<svg xmlns="http://www.w3.org/2000/svg" xmlns:xlink="http://www.w3.org/1999/xlink" viewBox="0 0 165.92 136.43"><defs><style>.cls-1,.cls-22,.cls-24{fill:none;}.cls-2{isolation:isolate;}.cls-3,.cls-4{fill:#fecc08;}.cls-10,.cls-15,.cls-25,.cls-4,.cls-6,.cls-8{mix-blend-mode:multiply;}.cls-5{fill:#f3f3f3;}.cls-7,.cls-8{fill:#f6a71c;}.cls-10,.cls-15,.cls-8{opacity:0.5;}.cls-10,.cls-9{fill:#8e7056;}.cls-11{fill:#079b49;}.cls-12{fill:#80c454;}.cls-13,.cls-15{fill:#58a145;}.cls-14{clip-path:url(#clip-path);}.cls-16{fill:#2c3f1b;}.cls-17{fill:#436b32;}.cls-18{fill:#385427;}.cls-19{fill:#b7d77b;}.cls-20{fill:#9fc950;}.cls-21{fill:#6c973f;}.cls-22{stroke:#2c3f1b;stroke-linecap:round;stroke-width:0.23px;}.cls-22,.cls-24{stroke-miterlimit:10;}.cls-23,.cls-25{fill:#b21f24;}.cls-24{stroke:#079b49;stroke-width:0.91px;}</style><clipPath id="clip-path"><ellipse class="cls-1" cx="31.2" cy="90.65" rx="32.6" ry="31.1" transform="translate(-64.3 99) rotate(-76.01)"/></clipPath></defs><title>Artboard 2</title><g class="cls-2"><g id="Layer_1" data-name="Layer 1"><path class="cls-3" d="M163.52,44.45c-2.09-2-3.42.63-7.86-2.11s-24.11-8.83-35.48-5.28l-1.55.48-1.55.48C105.71,41.56,93,57.74,90.88,62.51s-4.67,3.4-5.28,6.2.11,3.77.11,3.77,0,1.21,2.05,3.17,3.42-.63,7.87,2.1,24.1,8.83,35.47,5.29l1.55-.48,1.55-.48c11.37-3.54,24.09-19.72,26.2-24.5s4.67-3.39,5.28-6.19-.11-3.78-.11-3.78S165.61,46.41,163.52,44.45Z"/><circle class="cls-4" cx="102.35" cy="58.09" r="0.51"/><circle class="cls-4" cx="97.33" cy="63.11" r="0.51"/><circle class="cls-4" cx="97.15" cy="60.8" r="0.88"/><path class="cls-4" d="M165.57,47.61a3.39,3.39,0,0,0-.86-1.85,8.69,8.69,0,0,1-.18,2.28c-.54,2.81-3.13,1.5-5.13,6.32s-14.35,21.28-25.64,25.08l-1.53.52-1.54.52C119.4,84.28,99.61,78.63,95.1,76s-5.78,0-7.91-1.93a9,9,0,0,1-1.57-1.77,1.32,1.32,0,0,0,.09.17s0,1.21,2.05,3.17,3.42-.63,7.87,2.1,24.1,8.83,35.47,5.29l1.55-.48,1.55-.48c11.37-3.54,24.09-19.72,26.2-24.5s4.67-3.39,5.28-6.19S165.57,47.61,165.57,47.61Z"/><rect class="cls-5" x="47.21" y="0.46" width="46.59" height="104.93"/><path class="cls-5" d="M93.35.91v104H47.67V.91H93.35M94.26,0H46.76V105.84h47.5V0Z"/><g class="cls-6"><rect class="cls-5" x="71.02" y="0.46" width="22.79" height="104.93"/><path class="cls-5" d="M93.35.91v104H71.47V.91H93.35M94.26,0H70.56V105.84h23.7V0Z"/></g><rect class="cls-7" x="47.67" y="16.65" width="45.68" height="85.68"/><rect class="cls-8" x="70.51" y="16.65" width="22.84" height="85.68"/><path class="cls-9" d="M94,78.25h1.5a22.21,22.21,0,0,1,22.21,22.21v0a22.21,22.21,0,0,1-22.21,22.21H94a0,0,0,0,1,0,0V78.25a0,0,0,0,1,0,0Z" transform="translate(181.33 -24.39) rotate(77.65)"/><path class="cls-10" d="M125.64,92.94a27.68,27.68,0,0,1-19,15h0a27.62,27.62,0,0,1-19.84-3.14,22.21,22.21,0,0,0,21.57,7.2h0A22.19,22.19,0,0,0,125.64,92.94Z"/><ellipse class="cls-11" cx="103.28" cy="88.88" rx="22.21" ry="15.7" transform="translate(-16.62 24.14) rotate(-12.35)"/><ellipse class="cls-12" cx="103.28" cy="88.88" rx="11.86" ry="8.38" transform="translate(-16.62 24.14) rotate(-12.35)"/><ellipse class="cls-13" cx="31.2" cy="90.65" rx="32.6" ry="31.1" transform="translate(-64.3 99) rotate(-76.01)"/><path class="cls-12" d="M39.08,59a29.93,29.93,0,0,0-16.2.5,30.1,30.1,0,0,1,4.24.73c1.32.33,2.86-.32,4.09.17,1.38.55,2.43,2.25,3.68,3a30.32,30.32,0,0,1,4.25,3,44.13,44.13,0,0,1,4.32,3.45c1.08,1.22,1,2.26,1.87,3.63.58.92,2.18,2.13,2.67,3.1.66,1.3.16,2.39.64,3.78.11.32,1.27.9,1.37,1.22.31,1-.5,1.71-.29,2.72.41,1.91,1.71,4.15,1.76,6.15.09,3-1.29,5.86-2.07,9-.18.73.68,1.72.46,2.42-.46,1.44-2.07,2.57-2.7,3.9-.47,1-.19,3.29-.74,4.22s-2.14.78-2.88,1.76-.75,3.24-1.59,4.12c-1,1-2.83.68-3.93,1.57-1.27,1-2.87,3-4.27,3.83-2,1.2-3.95,1.09-6.21,1.8,15.23,1.53,29.84-8.86,33.82-24.85C65.73,80.69,55.74,63.16,39.08,59Z"/><g class="cls-14"><path class="cls-12" d="M-2.2,98.72a50.17,50.17,0,0,1,9-5.47,61.4,61.4,0,0,1,9.64-3.74,62.3,62.3,0,0,1,10.06-2.12c1.69-.27,3.41-.34,5.11-.46s3.41,0,5.11-.06c-1.7.14-3.4.18-5.08.4s-3.37.42-5,.79a60.33,60.33,0,0,0-9.73,2.75,59.14,59.14,0,0,0-9.12,4.26,47.18,47.18,0,0,0-8.1,5.69l-.06,0a1.36,1.36,0,0,1-1.93-.1,1.36,1.36,0,0,1,.11-1.93S-2.23,98.73-2.2,98.72Z"/><path class="cls-12" d="M5.76,94.42a25.12,25.12,0,0,1,1.9-4.32,27.94,27.94,0,0,1,2.57-3.87,22.78,22.78,0,0,1,3.17-3.34,22.42,22.42,0,0,1,3.73-2.63,22,22,0,0,0-3.41,3A22.26,22.26,0,0,0,11,86.76,27,27,0,0,0,8.89,90.7a24.53,24.53,0,0,0-1.36,4.15v.05a.91.91,0,0,1-1.09.69.9.9,0,0,1-.69-1.08A.29.29,0,0,1,5.76,94.42Z"/><path class="cls-12" d="M8,93.61a24.17,24.17,0,0,0,2.26,3.74,26.74,26.74,0,0,0,2.91,3.38,23.26,23.26,0,0,0,7.46,5A22.83,22.83,0,0,1,16.37,104a23.64,23.64,0,0,1-3.84-2.54,28.21,28.21,0,0,1-3.36-3.2,25.11,25.11,0,0,1-2.82-3.78.91.91,0,0,1,1.56-.94.2.2,0,0,1,0,.08Z"/><path class="cls-12" d="M15.41,90.19a25.46,25.46,0,0,1,2.06-4.11,27.42,27.42,0,0,1,2.72-3.69,22.87,22.87,0,0,1,3.3-3.15,22.58,22.58,0,0,1,3.83-2.44,23.23,23.23,0,0,0-6.87,5.81,26.94,26.94,0,0,0-2.54,3.73,25.26,25.26,0,0,0-1.86,4.07v0a.34.34,0,0,1-.65-.22Z"/><path class="cls-12" d="M16.61,89.6a25,25,0,0,0,2.13,3.94,26.33,26.33,0,0,0,2.78,3.55,23.11,23.11,0,0,0,7.24,5.34,23.08,23.08,0,0,1-4-2.18,23.85,23.85,0,0,1-3.5-2.93,26.57,26.57,0,0,1-2.95-3.49,24.94,24.94,0,0,1-2.34-4,.35.35,0,0,1,.16-.46.35.35,0,0,1,.46.17h0Z"/></g><path class="cls-15" d="M55.09,69.22a33.41,33.41,0,0,1,1.58,21.12c-4.35,17.47-21.39,28.27-38.06,24.12a30,30,0,0,1-16-10.21,30.52,30.52,0,0,0,20.72,18C40,126.43,57,115.63,61.37,98.16A33,33,0,0,0,55.09,69.22Z"/><ellipse class="cls-13" cx="94.5" cy="110.78" rx="12.75" ry="12.17" transform="translate(-35.84 175.69) rotate(-76.01)"/><path class="cls-12" d="M97.58,98.4a11.74,11.74,0,0,0-6.34.19,12,12,0,0,1,1.66.29c.52.13,1.12-.13,1.6.07s1,.88,1.44,1.16a12.19,12.19,0,0,1,1.67,1.17,20.24,20.24,0,0,1,1.68,1.35c.42.48.39.88.73,1.42.23.36.86.83,1,1.22s.06.93.25,1.47c0,.13.5.36.54.48.12.38-.2.67-.12,1.06a14.69,14.69,0,0,1,.69,2.41,13.29,13.29,0,0,1-.81,3.51c-.07.28.27.67.18.94-.18.57-.81,1-1.06,1.53s-.07,1.29-.29,1.65-.83.3-1.12.69-.29,1.27-.62,1.61-1.11.27-1.54.61a17.94,17.94,0,0,1-1.67,1.5,10.47,10.47,0,0,1-2.43.71,12.58,12.58,0,0,0,13.23-9.72C108,106.88,104.1,100,97.58,98.4Z"/><path class="cls-15" d="M103.85,102.39a13.11,13.11,0,0,1,.61,8.27c-1.7,6.83-8.37,11.06-14.89,9.43a11.68,11.68,0,0,1-6.26-4,11.94,11.94,0,0,0,8.1,7.05c6.52,1.63,13.19-2.6,14.89-9.43A13,13,0,0,0,103.85,102.39Z"/><ellipse class="cls-13" cx="114.55" cy="118.61" rx="12.75" ry="12.17" transform="translate(-28.23 201.09) rotate(-76.01)"/><path class="cls-12" d="M117.64,106.24a11.64,11.64,0,0,0-6.34.19,12.29,12.29,0,0,1,1.66.29c.51.13,1.12-.13,1.6.06s1,.88,1.44,1.17a10.78,10.78,0,0,1,1.66,1.17,15.87,15.87,0,0,1,1.69,1.35c.42.47.39.88.73,1.42.23.36.86.83,1,1.21s.06.94.25,1.48c0,.12.5.35.53.48.12.38-.19.67-.11,1.06a14.41,14.41,0,0,1,.69,2.41,13.72,13.72,0,0,1-.81,3.5c-.07.29.27.68.18,1-.18.56-.81,1-1.06,1.53s-.07,1.28-.29,1.65-.83.3-1.13.69-.29,1.26-.61,1.61-1.11.26-1.54.61a18.2,18.2,0,0,1-1.68,1.5,9.91,9.91,0,0,1-2.42.7,12.57,12.57,0,0,0,13.23-9.72C128.06,114.72,124.16,107.86,117.64,106.24Z"/><path class="cls-15" d="M123.9,110.23a13.08,13.08,0,0,1,.62,8.26c-1.7,6.84-8.37,11.06-14.89,9.44a11.72,11.72,0,0,1-6.27-4,12,12,0,0,0,8.11,7.06c6.52,1.62,13.19-2.6,14.89-9.44A12.9,12.9,0,0,0,123.9,110.23Z"/><ellipse class="cls-13" cx="93.35" cy="123.7" rx="12.75" ry="12.17" transform="translate(-49.25 184.38) rotate(-76.01)"/><path class="cls-12" d="M96.43,111.33a11.7,11.7,0,0,0-6.33.19,11.89,11.89,0,0,1,1.65.29c.52.13,1.12-.13,1.61.07s.94.88,1.44,1.16a12.09,12.09,0,0,1,1.66,1.17,20.4,20.4,0,0,1,1.69,1.35c.42.48.39.88.73,1.42.23.36.85.83,1,1.22s.07.93.25,1.47c0,.13.5.35.54.48.12.38-.2.67-.11,1.06a15.75,15.75,0,0,1,.69,2.41,13.79,13.79,0,0,1-.81,3.51c-.07.28.26.67.17.94-.18.57-.81,1-1.05,1.53s-.07,1.29-.29,1.65-.84.3-1.13.69-.29,1.27-.62,1.61-1.11.26-1.54.61a16.88,16.88,0,0,1-1.67,1.5,10.33,10.33,0,0,1-2.43.71,12.59,12.59,0,0,0,13.24-9.72C106.86,119.81,103,113,96.43,111.33Z"/><path class="cls-15" d="M102.7,115.32a13.18,13.18,0,0,1,.62,8.27c-1.71,6.83-8.37,11-14.89,9.43a11.7,11.7,0,0,1-6.27-4,12,12,0,0,0,8.11,7.05c6.52,1.63,13.18-2.6,14.89-9.43A13,13,0,0,0,102.7,115.32Z"/><path class="cls-16" d="M69.45,97.91a4.35,4.35,0,0,0-.79.87c-.15.24-.85,1-1.08,1.42,0,.19-.5.85-.68,1.27a9,9,0,0,0-.49,1.34,11,11,0,0,0,.79,8.29,5.2,5.2,0,0,0,1.71,2.42,2.37,2.37,0,0,0,1.81,1.56,7.45,7.45,0,0,1,2,1.1,13.87,13.87,0,0,0,2.18.65c.55.32,1.83-.1,2.25.2,1.12-.35,1.4,0,2.25-.27s.86-.19,1.28-.33a6,6,0,0,0,1.41-.66,6.8,6.8,0,0,0,2.41-1.71c.28-.26,1-1,.91-1,.12-.19,1.34-1.48,1-1.3a4.19,4.19,0,0,0,.77-1.37c.11-.35.57-1.08.4-1.25.38-.68.86-1.49.48-1.53a1.77,1.77,0,0,0,0-1.26,1.69,1.69,0,0,0,0-1.12c.24-.6.8-1.51-.18-1-.26-.16.13-.94-.19-1.07,0-.42.46-1.3-.35-1,.06-.5-.33-.61-.48-.93-.58.06,0-1-.46-1s.1-1.09-.63-.92c-.05-.46-.75-.32-.73-.86-.15-.56-.71-.72-1-1.11-.45-.24-.63-.73-1.28-.77-.9.2-.76-.56-1.4-.56a2.58,2.58,0,0,0-1.21-.61c-.81.2-.83-.32-1.38-.32-.1-.42-1.25.17-1.41-.14a3.66,3.66,0,0,1-1.16.11c-.31,0-.69,0-1,0-.54.24-.48-.07-.92.11,0-.26-.82.32-1.14.43s-.24-.14-1,.42c-.27.1-1.18.83-1,.52.49-.55-.35.15-.91.63A6.65,6.65,0,0,0,69.45,97.91Z"/><path class="cls-17" d="M83.11,103.29a6.36,6.36,0,0,0-1.29,1.81,13.17,13.17,0,0,1-.49,2.1c.62.12.64.93.34,2.13.43.52.6,1.37,1.17,1.9,0,.57.77.33.85.75s.73.3,1,.55.68.26,1,.34a5.5,5.5,0,0,0,1.07.14,2.67,2.67,0,0,1,1.14-.12,1.74,1.74,0,0,0,1-.22c1.2-.92,1-.58,1.1-.58a4,4,0,0,0,.8-.59,3.35,3.35,0,0,0,.75-.85c.52-.6.21-.45.54-1,0-.18-.12-.32.24-.93s.1-.69.25-1.17c0-.33.09-.81-.12-1,.13-.52-.65-.24-.22-1.1-.29-.18-.24-.71-.48-1-.49,0-.07-1-.69-.9-.87-.25-1.15-1-1.81-1.3a8.77,8.77,0,0,0-1-.41c-.68.23-.57-.25-1.13-.08s-.44-.25-1,0c-1,.63-1.23.63-1.12.33-.5.28-.55.17-1,.48C83.31,103.16,83.22,103.19,83.11,103.29Z"/><path class="cls-17" d="M73.85,84.73a5.57,5.57,0,0,0-1.3,2.06,13.57,13.57,0,0,1-.26,2.54c.78.25.92,1.26.75,2.71a27,27,0,0,0,1.74,2.56c0,.71,1,.53,1.16,1.07s1,.49,1.27.84.87.43,1.32.59a7.22,7.22,0,0,0,1.33.34,3.29,3.29,0,0,1,1.37,0,1.74,1.74,0,0,0,1.18-.11c1.33-1,1.13-.57,1.26-.55.52-.34.46-.2.89-.61a2.57,2.57,0,0,0,.78-1c.55-.65.19-.52.52-1.11,0-.22-.2-.41.15-1.12s0-.84.11-1.42c-.07-.41,0-1-.3-1.3.06-.64-.84-.41-.45-1.41-.39-.28-.42-.93-.75-1.32-.61-.12-.24-1.19-1-1.24-1.1-.44-1.56-1.43-2.43-1.9A13.77,13.77,0,0,0,80,83.77c-.8.17-.74-.42-1.4-.28-.51,0-.58-.39-1.24-.16-1.09.64-1.41.6-1.32.24-.57.26-.65.13-1.14.44C74.07,84.6,74,84.62,73.85,84.73Z"/><path class="cls-18" d="M75.83,91.29A11,11,0,0,0,72.33,99a10.63,10.63,0,0,0,.26,2.81c.68.48.46,1.9,1,2.69a2.27,2.27,0,0,0,.93,1.1c.23.46,1,.43.79,1.32a2.37,2.37,0,0,0,1.1,1,2.18,2.18,0,0,0,1.19.85c.28.38,1,.38,1.17.78.5.13.41.8,1.45.39a3.21,3.21,0,0,1,1.37.33c.29.24,1,.1,1.41.13,1.2-.66.48.44,1.42,0,1.2-.73.77,0,1.4-.22.32-.09.62-.16.93-.26s.88-.47.88-.32c.63-.43.21.09.87-.41.48-.32.59-.33.85-.49a8.63,8.63,0,0,0,.8-.57c-.15.18,1-.87.77-.65a12.89,12.89,0,0,0,1.34-1.39c.26-.33.67-.85.54-.9.22-.38.92-1.26.73-1.34.11-.36.31-.83.44-1.28,0-.3,0-.52,0-.87.2-.48.73-1.3.41-1.35-.09-.26.72-1.39.13-1.22.71-1-.34-.46-.17-1,0-.4-1,0-.28-1,1-1.35-.12-.8-.22-1.19s-.07-.9-.55-.94c.07-.57.34-1.34-.41-1.16.78-1.24.13-1.18-.27-1.34s-.85-.3-1.16-.56c-.56-.18-.74-.69-1.12-1a2.37,2.37,0,0,0-.26-.75c-.14-.2-.4-.28-.91-.12-.87.17-1-.34-1.28-.67a1.62,1.62,0,0,1-1.34-.5c-.43-.49-1.51-.32-2.22-.42-1.31.45-1.57,0-2.26,0-1,.36-1-.23-2.21.5a4.15,4.15,0,0,0-2.1,1A10,10,0,0,0,75.83,91.29Z"/><path class="cls-17" d="M55.93,83.74a5.15,5.15,0,0,0-1,1.13,3.76,3.76,0,0,1-.81,1.24c-.79.91.34,0-.58,1.13.2.05.45.07-.27,1,0,.29.28.33-.17,1.09s-.2.88-.12,1.19c.67-.25.18.62.06,1.15-.32.73-.19,1,.21,1.14.11.35.42.55.53.94.3.21-.33,1.31.31,1.24.48.07.88.23.47,1.16s.77.39.94.8c-.06.75.68.77,1.12,1,1-.25.91.49,1.24.81,0,.48.55.49,1.06.49s1.25-.22,1.11.35c.79-.29,1.28-.32,1.13.22s1-.18,1.15.07c.44,0,.48.25,1.12,0a1.87,1.87,0,0,1,1.16-.23,3.92,3.92,0,0,1,1.11-.35c.14.08,1.16-.7,1.07-.49s.3,0,1.07-.68a9.2,9.2,0,0,0,.89-.72c1-.89.22-.26,1-1.13,0-.1.73-1,.81-1.24s.72-1.14.6-1.33c.11-.41.5-1.13.37-1.4s.23-1,.07-1.34a4.13,4.13,0,0,0,0-1.52c.13-.65-.22-.89-.42-1.29a5.59,5.59,0,0,1-.36-1.5c-.29-.36-.11-1.19-.74-1.28s-1-.41-.93-1.21c-.37-.37-.54-.9-1.29-.87a3,3,0,0,0-1.08-1c-.37-.29-.36-.91-1.1-.81a1.71,1.71,0,0,0-1.62-.16c-.32-.23-1.3.17-1.55,0s-.27-.64-1.32,0a2.42,2.42,0,0,0-1,.18c-.61.35-.79.31-.91.24-.44.23-.74.35-.62.09-.47.3-.92.6-1.16.73-.62.48-.32.13-.69.42S55.77,83.89,55.93,83.74Z"/><path class="cls-18" d="M53.17,92.87a3.22,3.22,0,0,0-.68.79c.12,0-.13.25-.44.62s-.23.39-.72,1-.08.31-.43.76c-.1.22-.42.66-.37.77-.31.59-.34,1-.17,1.2-.22.59-.42,1.21-.16,1.43-.18.63-.37,1.31.06,1.44-.44.76-.14.85-.07,1.16-.31.67-.23,1,.49.72-.06.45.66.2.36.9a2.25,2.25,0,0,0,.46.88c.7-.22.33.58.56.83.66-.16.8.17.65.78.41.32.67.78,1.16,1,0,.68.52.85,1.21.84a5,5,0,0,0,2.16.85,2.24,2.24,0,0,0,2.28.29c1-.19,1.54-.09,2.29-.27A9.33,9.33,0,0,0,66,106.56a9.64,9.64,0,0,0,1.84-2.37,8.22,8.22,0,0,0,.56-1.3c.15-.45,0-.63.41-1.42a6.08,6.08,0,0,0,0-1.28c-.06-.41.29-1.23.11-1.59,0-.53-.23-.88-.24-1.45-.33-.28-.1-1.12-.54-1.34-.24-.41-.41-.92-.65-1.37-.18-.16,0-.64-.33-.72a.51.51,0,0,0-.69-.4c-.62.22-.62-.13-.72-.38.34-.66-.64-.09-.41-.64-.75,0-.71-.67-1.24-.82.11-.74-.58-.7-1.33-.59-.58,0-1.33.09-1.4-.38-1.11.51-.87-.21-1.28-.3.39-.59-.39-.09-.42-.27-.35.11-1.08.59-1.16.47-.82.37-.71-.08-1.49.35-1.11.73-1.58.91-1.3.43-.67.42-.91.48-1.3.73A7.35,7.35,0,0,0,53.17,92.87Z"/><path class="cls-16" d="M54.36,91.92c.39-.25.63-.31,1.3-.73-.28.48.19.3,1.3-.43.78-.43.67,0,1.49-.35.08.12.81-.36,1.16-.47,0,.17.74-.27.47.19-.34.05-.43-.12-1,.19-1.12.74-1.58.91-1.31.44-.67.42-.91.48-1.29.73a7.18,7.18,0,0,0-1.2.94,3.11,3.11,0,0,0-.67.8c.12,0-.14.25-.44.62s-.24.39-.73,1-.08.31-.43.76c-.1.22-.42.66-.37.77-.31.59-.34,1-.17,1.2-.21.59-.42,1.21-.16,1.43-.18.63-.37,1.31.06,1.43-.44.77-.14.85-.06,1.17-.31.67-.24,1,.49.71-.06.46.66.2.35.91a2.14,2.14,0,0,0,.46.87c.7-.21.34.59.56.84.66-.16.81.17.66.78.41.32.66.78,1.15,1,0,.68.52.85,1.21.84a5,5,0,0,0,2.17.85,2.24,2.24,0,0,0,2.28.29,7.69,7.69,0,0,1,1.13-.14,8,8,0,0,1-.95.3c-.75.18-1.32.08-2.29.27a2.24,2.24,0,0,1-2.28-.29,5,5,0,0,1-2.16-.85c-.69,0-1.21-.16-1.21-.84-.49-.22-.75-.68-1.16-1,.15-.61,0-.94-.65-.78-.23-.25.14-1-.56-.83a2.25,2.25,0,0,1-.46-.88c.3-.7-.42-.45-.36-.9-.72.27-.8,0-.49-.72-.07-.31-.37-.4.07-1.16-.43-.13-.24-.81-.06-1.44-.26-.22-.06-.84.16-1.43-.17-.23-.14-.61.17-1.2-.05-.11.27-.55.37-.77.35-.45,0-.25.43-.76s.42-.59.72-1,.56-.67.44-.62a3,3,0,0,1,.68-.79A7.35,7.35,0,0,1,54.36,91.92Z"/><path class="cls-18" d="M62.65,111.71a11.06,11.06,0,0,0-3.5,7.69,8.18,8.18,0,0,0,.26,2.81c-.11,1.23.56,1.81,1,2.69a4.52,4.52,0,0,1,.65,1.36,1.48,1.48,0,0,0,1.06,1.06c.36.36,1.25.21,1.47.68.52.19.68.69.83,1.2a2.81,2.81,0,0,1,1.27.67c.09.52.84.41,1.34.5a3.88,3.88,0,0,0,1.27.11c.65-.19.83,0,.95.31s.87-.06,1.19,0,.89-.15,1.07,0a4.49,4.49,0,0,0,1,0c.12.15,1-.38,1.26-.46.11.12.78-.32,1.06-.42.06.12,1-.59,1-.54,1-.86,1.24-1,1-.66a10.12,10.12,0,0,0,.92-.77c.27-.24.47-.48,1.12-1.18-.1,0,.84-1,.76-1.11s-.15-.26.68-1.28c-.61.31,1.42-1.87.49-1.34a1.69,1.69,0,0,0,.25-1.08c.3-.59-.1-.54.17-1.14-.14-.21,0-.66.11-1.2-.33-.07,0-.8-.14-1.06s.75-1.55-.1-1.2c-.57.08-.6-.35-.4-1,.46-.9.2-1.15-.4-1.09.15-.64-.28-.75-.57-1-.49-.06-.62-.46-.65-1a11.17,11.17,0,0,0-.78-.92c-.15-.55-1.06-.39-1-1.12-.65-.06-.46-.9-1.3-.76-.68,0-1-.36-1.56-.41s-1.19-.07-1-.76c-.19-.38-1.38.19-1.34-.36a5.24,5.24,0,0,0-1.45-.09,10.63,10.63,0,0,0-2.81.26A11,11,0,0,0,62.65,111.71Z"/><path class="cls-18" d="M72.07,111.85a11,11,0,0,0-3.24,10.51c.68.48.46,1.9,1,2.69a2.32,2.32,0,0,0,.93,1.1c.23.46,1,.43.79,1.32a2.39,2.39,0,0,0,1.09,1,2.24,2.24,0,0,0,1.2.85c.28.38,1,.38,1.16.78.51.13.41.8,1.45.39a3.22,3.22,0,0,1,1.38.33c.29.24,1,.09,1.41.13,1.2-.67.48.44,1.41,0,1.21-.73.77,0,1.4-.22.33-.09.63-.16.94-.27s.88-.46.88-.31c.62-.43.21.09.87-.41a8.21,8.21,0,0,1,.85-.49c.41-.31.37-.21.8-.57-.15.18,1-.87.77-.65a13.82,13.82,0,0,0,1.34-1.4c.25-.32.66-.84.54-.9.21-.38.92-1.25.73-1.33.11-.36.31-.84.44-1.28s0-.52,0-.87c.2-.48.73-1.31.41-1.35-.09-.26.72-1.39.13-1.22.71-1-.34-.47-.17-1,0-.4-.95,0-.29-1,1-1.36-.11-.81-.21-1.19s-.07-.9-.55-1c.07-.56.34-1.33-.41-1.15.78-1.25.13-1.18-.27-1.34s-.85-.3-1.16-.57c-.56-.17-.75-.68-1.12-1a2.65,2.65,0,0,0-.26-.75c-.14-.2-.4-.29-.91-.12-.87.17-1-.34-1.28-.68a1.58,1.58,0,0,1-1.34-.49c-.43-.5-1.51-.32-2.22-.43-1.31.46-1.57,0-2.26,0-1,.36-1-.23-2.22.5a4.27,4.27,0,0,0-2.1,1A11.25,11.25,0,0,0,72.07,111.85Z"/><path class="cls-16" d="M86.37,128.66a3.22,3.22,0,0,1-.45.33c.25-.32.61-.79.49-.85.22-.37.92-1.25.74-1.33.11-.36.3-.83.43-1.28,0-.3,0-.52,0-.87s.72-1.3.4-1.35c-.09-.26.73-1.39.13-1.22.71-1-.34-.46-.16-1,0-.4-1,0-.29-1,1-1.36-.11-.81-.21-1.19s-.07-.9-.56-.94c.07-.57.34-1.34-.41-1.16.78-1.25.14-1.18-.27-1.34s-.85-.3-1.16-.57c-.55-.17-.74-.68-1.12-1a2.37,2.37,0,0,0-.26-.75c-.14-.2-.39-.28-.91-.12-.87.17-1-.34-1.27-.68a1.56,1.56,0,0,1-1.34-.49c-.43-.5-1.52-.32-2.23-.42-1.31.45-1.57,0-2.25,0-1,.36-1-.23-2.22.5a4.2,4.2,0,0,0-2.1,1l-.5.32a12.34,12.34,0,0,1,1.2-1.32,11.25,11.25,0,0,1,1.9-1.43,4.27,4.27,0,0,1,2.1-1c1.25-.73,1.19-.14,2.22-.5.69,0,.95.42,2.26,0,.71.11,1.79-.07,2.22.43a1.59,1.59,0,0,0,1.34.49c.28.34.41.85,1.28.68.51-.17.77-.08.91.12a2.65,2.65,0,0,1,.26.75c.37.32.56.83,1.12,1,.31.27.88.29,1.16.57s1,.09.27,1.34c.75-.18.48.59.41,1.15.48,0,.33.68.55,1s1.19-.17.21,1.19c-.66,1.07.27.63.29,1-.17.57.88,0,.17,1,.59-.17-.22,1-.13,1.22.32,0-.21.87-.41,1.35,0,.35,0,.57,0,.87s-.33.92-.44,1.28c.19.08-.52,1-.73,1.33.12.06-.29.58-.54.9A12.49,12.49,0,0,1,87.16,128C87.3,127.85,86.22,128.84,86.37,128.66Z"/><path class="cls-18" d="M78.93,95a11,11,0,0,0,3.24-10.5c-.68-.48-.46-1.9-1-2.69a2.27,2.27,0,0,0-.93-1.1c-.23-.46-1-.44-.79-1.32a2.42,2.42,0,0,0-1.09-1,2.31,2.31,0,0,0-1.2-.85c-.28-.37-1-.37-1.16-.77-.51-.13-.41-.8-1.45-.4a3.09,3.09,0,0,1-1.38-.32c-.28-.24-1-.1-1.41-.13-1.2.66-.48-.44-1.41,0-1.2.73-.77,0-1.4.22-.33.09-.63.16-.93.26s-.89.47-.89.32c-.62.43-.21-.09-.87.41-.48.32-.59.33-.84.49a7.55,7.55,0,0,0-.81.57c.15-.18-1,.87-.77.65a14,14,0,0,0-1.34,1.39c-.25.33-.66.85-.54.9-.21.38-.92,1.26-.73,1.34-.11.36-.31.83-.43,1.28,0,.29,0,.52,0,.87S60.08,86,60.39,86c.09.26-.72,1.39-.13,1.22-.71,1,.34.46.17,1,0,.4,1,0,.29,1-1,1.35.11.8.21,1.19s.07.9.56.94c-.08.57-.35,1.33.4,1.16-.77,1.24-.13,1.18.28,1.34s.84.29,1.15.56c.56.18.75.69,1.12,1a2.65,2.65,0,0,0,.26.75c.15.19.4.28.91.12.87-.17,1,.33,1.28.67a1.57,1.57,0,0,1,1.34.5c.43.49,1.51.32,2.22.42,1.31-.45,1.57,0,2.26,0,1-.35,1,.24,2.22-.49a4.19,4.19,0,0,0,2.1-1A10.75,10.75,0,0,0,78.93,95Z"/><path class="cls-18" d="M62.08,91.7a8.31,8.31,0,0,0-.79.82c-.55.56-1.1,1.15-.68.86a4,4,0,0,1-.71,1c-.29.42-.81,1.07-.37.85-.13.31-.65,1-.45,1.06a2.27,2.27,0,0,0-.23,1c-.77,1.27-.19,1.34-.27,2.1a1.19,1.19,0,0,0,0,1.41c.09.43.12.94.22,1.4,0,1.1.71,1.67,1,2.69s1,1.65,1.71,2.42a11.29,11.29,0,0,0,2.29,1.88,11,11,0,0,0,5.4,1.62,11.17,11.17,0,0,0,1.42,0c.95-.49.65.15,1.4-.22.55-.19.18.45,1-.09a10.07,10.07,0,0,0,1.66-.9,5.48,5.48,0,0,0,1.17-.69,13.24,13.24,0,0,0,1.24-1,7.06,7.06,0,0,0,1-1.1c0-.13,1-1.17.85-1.19.85-1,.18-.56.54-1.15.54-.76.18-.72.63-1.47s.47-.77.45-.93c-.38.17.48-.83.12-.68a1.61,1.61,0,0,1-.12-1.18c-.29-.18.1-1-.07-1.37.13-.64.31-1.34-.19-1.44.13-.67-.25-.9-.44-1.33s-.36-.89-.54-1.36c.21-.83-.89-.46-.77-1.25-.32-.37-.62-.78-1-1.16a1.77,1.77,0,0,0-1.14-1c-.48-.22-1.16-.24-1.15-.89-.65,0-.69-.62-1.28-.67.13-.42,0-.59-.27-.63a3.08,3.08,0,0,0-1.06.13c-.69.19-.6-.33-1.23-.15a1.33,1.33,0,0,0-1-.27c-.66.23-1.13.3-1.2,0s-.75,0-1.06,0c-.11-.19-.5-.11-.94,0a9,9,0,0,0-1.27.46c.12-.33,0-.38-1.07.43-.44.24-.4.06-1,.54-.07,0-.71.45-1,.65C62,91.77,62.61,91.21,62.08,91.7Z"/><path class="cls-18" d="M62.92,81.71a8.1,8.1,0,0,0-1,1.13c-1.12,1.15.3,0-.81,1.24a5.47,5.47,0,0,0-.59,1.15c.18.06-.05.53-.26,1,.43-.12,0,.58-.21,1.13s-.86,1.5-.08,1.15c.39,0-.72,1.46-.1,1.31s.57.34.37,1c.45,0,.5.47.62.86A2.09,2.09,0,0,1,61.05,93c.07.46.09,1,.64,1-.39.9.23.89.77,1,.17.41.79.38.89.83.58,0,.72.42,1,.71l1.06.53c.36.17.7.32,1.06.45.06.4.85.11,1.3.12s.53.33,1,.31a6.2,6.2,0,0,1,1.15,0c.81-.43.78-.08,1.14-.14.52-.2,1-.43,1-.18a4.29,4.29,0,0,0,1.2-.51,7.5,7.5,0,0,1,1.29-.73c-.39.48.09.09,1.2-.94.32-.3.4-.4.76-.76-.09.06-.08,0,.5-.59.19-.29.65-.88.58-1a4.21,4.21,0,0,1,.64-1.38c.6-.87.2-.84.33-1.35a3.18,3.18,0,0,0,.19-1.46c0-.43.49-1.42-.09-1.4.25-.77-.22-.89-.16-1.54s-.54-.7-.62-1.25a1.58,1.58,0,0,0-.73-1.3c-.06-.61-.61-.8-.94-1.19-.5-.25-1.12-.36-1.43-.75-.57-.15-.75-.64-.94-1.09-.41-.26-.46-.83-1.36-.57a4,4,0,0,0-1.37-.4,1.84,1.84,0,0,1-1.31.08,1.69,1.69,0,0,0-.84-.24c-.56.2-1.06.38-1.47.48s-.74.16-.66-.14-.26-.2-1.07.39c-.6.38-.83.45-1,.44s-.07-.14-.71.38A8.15,8.15,0,0,0,62.92,81.71Z"/><path class="cls-19" d="M53.13,132.41c-6,.12-14-9.92-13.16-14.1,3.3-1.69,15.52-9.4,16.94-12.88s3.62-17.38,3.62-17.38l3,.28-.07,12.38,6.19-8.21,1.84,1.08-4.72,9.12,9.74-6.28.43,2-9.77,12.66s11.57-7.45,15.43-5.55.66,1.75.66,1.75-5.78,1.42-9.24,3.75a44.33,44.33,0,0,0-8.52,7.73c-1.24,1.65,5.45.32,7.82-1.32s.47,1.18.47,1.18-4.78,3.83-8.41,3.74S53.78,128.19,53.13,132.41Z"/><path class="cls-20" d="M55.37,116.61c2.24-2.87,5.18-6.78,6.52-8.72l5.72-5.74,8.88-5.73.43,2-9.77,12.66s11.57-7.45,15.43-5.55.66,1.75.66,1.75-5.78,1.42-9.24,3.75a44.33,44.33,0,0,0-8.52,7.73c-.44.6.13.8,1.16.75l-1.92,2.89c-3.85.52-11,6-11.59,10-3,.06-6.5-2.44-9.16-5.48C46.48,124.87,53.54,119,55.37,116.61Z"/><path class="cls-21" d="M58.88,105.38c-1.18,1.8-5.84,6.1-9.78,7.19,3.66-2.58,7.1-5.4,7.81-7.14,1.41-3.48,3.62-17.38,3.62-17.38S60.06,103.58,58.88,105.38Z"/><path class="cls-21" d="M69.63,92.5l.69.41s-7.73,11.52-8.23,10.24,1.42-14.82,1.42-14.82l-.07,12.38Z"/><path class="cls-21" d="M76.49,96.42l-9.74,6.28a36.9,36.9,0,0,0-4.81,4.91c-1.66,2.25,12.43-9.4,14.73-10.35C76.59,96.84,76.49,96.42,76.49,96.42Z"/><path class="cls-21" d="M60.59,124.08a9.87,9.87,0,0,1,.84-5.7c1.81-3,13.61-9.58,15.74-10.64s7.24-1,7.24-1h0c.43.63-1.17.56-1.17.56s-5.78,1.42-9.24,3.75a44.33,44.33,0,0,0-8.52,7.73c-1.24,1.65,5.45.32,7.82-1.32,1.35-.93,1.31-.42,1,.2a36.15,36.15,0,0,1-6.77,2.75,8.4,8.4,0,0,0-2.76,2A11.79,11.79,0,0,0,60.59,124.08Z"/><path class="cls-21" d="M66.08,112.62a9.21,9.21,0,0,1,1.43-2.92c.63-.72,2.67-2.82,3.8-4l-4.16,5.39s1.14-.73,2.81-1.68v0S66.88,111.88,66.08,112.62Z"/><path class="cls-21" d="M51.5,129.71a4,4,0,0,0-.43,2.38,8.4,8.4,0,0,1-.91-.34A8.2,8.2,0,0,1,51.5,129.71Z"/><path class="cls-20" d="M42,119.22a4.62,4.62,0,0,1-2.07.45,5.06,5.06,0,0,1-.06-.76A3.1,3.1,0,0,0,42,119.22Z"/><path class="cls-18" d="M73.4,91.3c-.19.18-.85.84-.74.85-.13.22-.32.54-.55,1,.09.11.32.13-.35,1-.29.54.08.52-.14,1.07.66-.27.16.58.07,1.07-.3.69.36.51.27,1,.25.23-.14,1.07.48,1-.18.66,1,.09.69.9.44.12.42.66.82.78s.92.13,1,.52c.71-.2,1,0,1,.35A2.61,2.61,0,0,0,77,101c.58-.19.73,0,1.28-.26.9-.55.83-.25.85-.07.64-.41,1-.6,1-.44.14,0,0,.18.95-.73.37-.35.84-.84.74-.85.24-.33,0-.21.55-1,0-.21.35-.75.37-1,.19-.45.37-.94.12-1s.91-1.58-.08-1.07c.35-.73.46-1.27-.26-1.06a1.92,1.92,0,0,0-.48-1c-.21-.31-1,0-.69-.91-.63.06-.67-.42-.75-.85s-.3-.7-1.06-.45-1,.07-1.12-.26c-.54.1-.52-.31-1-.22a1.32,1.32,0,0,1-.87-.12c-.34,0-1,.42-1.26.46,0-.19-.28-.09-1,.48C74.34,90.48,73.68,91,73.4,91.3Z"/><path class="cls-18" d="M66.37,86.47c-1,.91-.36.39-.65.76.31-.19.09.17-.65,1.06-.49.65.07.37-.45,1.12,0,.26-.45,1,0,1,.24.12.69.08.07,1.07-.31.7.74.16.27,1.05s.5.47.48,1c1.31-.73-.07,1.08.69.9.46.11,1,.15.86.75.76-.21.41.6,1,.55s.59.35.93.44c-.23.62.63.2,1.17,0s.57.13,1,0a2.87,2.87,0,0,1,1.14-.35c-.22.4.36,0,1-.49a3.83,3.83,0,0,0,.89-.67c.15-.14,1.17-1.15.62-.74-.22.1.23-.47.68-1.08s.11-.54.22-.92a4.16,4.16,0,0,1,.26-1.18,4.63,4.63,0,0,0,0-1.17,1.83,1.83,0,0,0-.38-.95c-.19-.28,0-1-.48-1,.17-.66-.85-.22-.69-.9a1.61,1.61,0,0,0-.89-.71c0-.54-.69-.35-.92-.59-.52,0-.89-.07-1-.34-.58.13-1,.16-1.07-.14a7.77,7.77,0,0,0-1.1.09c-.3,0-.85.27-1,.24a10.77,10.77,0,0,0-1,.51C67.44,85.53,66.25,86.58,66.37,86.47Z"/><path class="cls-18" d="M55.67,82.69a5.5,5.5,0,0,0-.75.85,3.16,3.16,0,0,1-.55,1A7.18,7.18,0,0,1,54,85.57c-.41.66.28.32-.1,1s-.17.89,0,1.14c0,.44,1-.13.35,1,.31.17-.15,1.07.54.93.37.15,1.39-.27.63,1,0,.56-.24,1.26.85.74a1.75,1.75,0,0,0,1,.55c.36.13,1.53-.53,1.1.28.36.07.56.27,1,.21s.42.26,1.07-.07c.11.18.86-.29,1-.27s.19.17,1-.48c.39-.26,1.06-.83.9-.69s1.28-1.25.75-.86.94-1.12.55-1a4.64,4.64,0,0,0,.55-1.22c.55-.79,0-.56-.07-.88s.06-.78-.3-.85c-.06-.36-.56-.32,0-1.28-.48,0-.13-.82-.46-1,0-.54-.55-.51-.71-.89.33-.84-.8-.3-.73-.86-.75.19-1,0-1.09-.43-.68.18-.49-.44-1-.39-.28-.14-.84,0-1.1-.1-.65.26-.63-.08-.93-.07-1,.62-1.12.53-1.2.41s-.5.12-.8.29A8,8,0,0,0,55.67,82.69Z"/><path class="cls-18" d="M63.59,94.35A6.66,6.66,0,0,0,63.77,93c0-.6-.26.15-.09-1.33-.1-.32-.07-1.35-.36-1.21a6.74,6.74,0,0,0-.56-1.22c-.24-.32-.54-.49-.82-.88-.12-1.09-.53-1-.94-1-.46.17-.52-1.43-1.14-.74-.43-.1-.68-1-1.31-.39s-1.06.44-1.38-.11c-.67.91-.53-1.56-1.32,0-.65,1-.89.35-1.26.35-.5.54-.77.19-1.17.57-.55,1-.87,1.14-1,.69-.29.16-.67.86-.9,1.08a8.46,8.46,0,0,0-.69,1.2,7.23,7.23,0,0,0-.44,1.25,11.53,11.53,0,0,0-.25,1.65,3.2,3.2,0,0,0,.16,1c0,.59.37.1.33,1.33.23.08.23,1.3.59,1.11,0,1.31.51.67.78,1.08.37,0,.58.8,1,.83.38-.75.55-.56.71-.32.09.58.1,1.44.41,1.12.3.63,1.22-1.27,1.33.33.43.19.81.57,1.46-.23.36-.59.78-1.41.84-.72a11,11,0,0,0,.39,1c.28.57,1-.58,1.26-.3.46-.36.74-.13,1.18-.62.22.4,1.07-2,1-.73.35-.42.8-1.38.89-1,.2-.08.5-.77.6-.8S63.26,95.73,63.59,94.35Z"/><path class="cls-18" d="M73.17,113.18A6.42,6.42,0,0,0,71.88,115a13.42,13.42,0,0,1-.49,2.1c.62.11.64.93.34,2.12.43.52.6,1.37,1.17,1.9-.05.58.77.33.85.75s.73.3,1,.55.68.26,1,.34a5.5,5.5,0,0,0,1.07.14,2.67,2.67,0,0,1,1.14-.12,1.59,1.59,0,0,0,1-.22c1.2-.92,1-.58,1.1-.58a4.44,4.44,0,0,0,.8-.58,3.32,3.32,0,0,0,.75-.86c.52-.59.21-.45.54-1,0-.18-.12-.32.24-.93s.1-.68.25-1.17c0-.33.09-.81-.12-1,.13-.52-.65-.23-.22-1.09-.29-.19-.24-.72-.48-1-.49,0-.07-.94-.69-.9-.87-.25-1.15-1-1.81-1.3a8.66,8.66,0,0,0-1-.4c-.68.22-.57-.26-1.13-.08s-.44-.26-1,0c-1,.63-1.23.64-1.12.34a6.5,6.5,0,0,0-1,.48C73.37,113.06,73.28,113.08,73.17,113.18Z"/><path class="cls-16" d="M74.08,112.5a6.5,6.5,0,0,1,1-.48c-.11.3.15.29,1.12-.34.57-.26.59,0,1,0s.45.3,1.13.08a8.66,8.66,0,0,1,1,.4c.66.3.94,1,1.81,1.3.62,0,.2.86.69.9.24.28.19.81.48,1-.43.86.35.57.22,1.09.21.22.1.7.12,1-.15.49.12.55-.25,1.17,0,0-.05.09-.07.13-.16-.13-.39-.2-.11-.76-.29-.19-.25-.71-.48-1-.5,0-.08-1-.69-.91-.87-.25-1.15-1-1.81-1.3a8.66,8.66,0,0,0-1-.4c-.68.23-.57-.26-1.13-.08s-.44-.26-1,0c-1,.63-1.24.63-1.12.33a6.5,6.5,0,0,0-1,.48c-.71.56-.8.58-.91.69a6.81,6.81,0,0,0-1.23,1.66.56.56,0,0,0-.46-.41,13.42,13.42,0,0,0,.49-2.1,6.42,6.42,0,0,1,1.29-1.82C73.28,113.08,73.37,113.06,74.08,112.5Z"/><path class="cls-16" d="M64.63,78.24a7.55,7.55,0,0,1,.81-.57c.25-.16.36-.17.84-.49.66-.5.25,0,.87-.41,0,.15.64-.28.89-.32s.6-.17.93-.26c.63-.26.2.51,1.4-.22.93-.48.21.62,1.41,0,.45,0,1.13-.11,1.41.13a3.09,3.09,0,0,0,1.38.32c1-.4.94.27,1.45.4.21.4.88.4,1.16.77a2.31,2.31,0,0,1,1.2.85,2.42,2.42,0,0,1,1.09,1c-.2.88.56.86.79,1.32a2.27,2.27,0,0,1,.93,1.1c.52.79.3,2.21,1,2.69a11.08,11.08,0,0,1,.27,2.81c0,.37,0,.74-.1,1.11a12.06,12.06,0,0,0-.24-1.69c-.69-.48-.47-1.9-1-2.69a2.27,2.27,0,0,0-.93-1.1c-.23-.46-1-.43-.78-1.32a2.49,2.49,0,0,0-1.1-1,2.31,2.31,0,0,0-1.2-.85c-.28-.37-.95-.37-1.16-.77-.51-.13-.41-.8-1.45-.4a3.07,3.07,0,0,1-1.37-.32c-.29-.24-1-.1-1.42-.13-1.2.66-.47-.44-1.41,0-1.2.73-.77,0-1.4.22-.33.09-.62.16-.93.26s-.88.47-.89.32c-.62.43-.21-.09-.87.41-.47.32-.59.33-.84.49a8.7,8.7,0,0,0-.81.57c.15-.18-.92.8-.78.67l0,0,0,0a12.93,12.93,0,0,0-1.33,1.37c-.25.33-.66.85-.53.9-.22.38-.92,1.26-.74,1.34-.11.36-.31.83-.43,1.28,0,.29,0,.52,0,.87s-.39.77-.48,1.06c-.19,0-.4-.09,0-.72-.59.17.22-1,.13-1.22-.31,0,.22-.87.41-1.35s0-.58,0-.87c.12-.45.32-.92.43-1.28-.19-.08.52-1,.73-1.34-.12-.05.29-.57.54-.9a13.68,13.68,0,0,1,1.32-1.37C63.7,79,64.78,78.06,64.63,78.24Z"/><path class="cls-16" d="M63.84,78.91l0,0Z"/><path class="cls-16" d="M61.94,125.92c.67.23.87.88,1.06,1.52a3.62,3.62,0,0,1,1.63.86c.12.66,1.07.52,1.71.63a4.59,4.59,0,0,0,1.62.15c.83-.25,1.06,0,1.22.39s1.1-.07,1.52,0,1.12-.19,1.36,0a5.73,5.73,0,0,0,1.23,0c.15.19,1.2-.49,1.6-.58.14.14,1-.41,1.36-.54.07.15,1.24-.76,1.32-.69a9.84,9.84,0,0,1,1.35-1c-.07.09-.11.15-.08.15-.65.7-.85.94-1.12,1.18a10.12,10.12,0,0,1-.92.77c.26-.3.06-.2-1,.66-.07,0-1,.66-1,.54-.28.1-1,.54-1.06.42-.31.08-1.14.61-1.26.46a4.49,4.49,0,0,1-1,0c-.18-.13-.8.12-1.07,0s-1,.27-1.19,0-.3-.5-.95-.31a3.88,3.88,0,0,1-1.27-.11c-.5-.09-1.25,0-1.34-.5a2.81,2.81,0,0,0-1.27-.67c-.15-.51-.31-1-.83-1.2-.22-.47-1.11-.32-1.47-.68a1.48,1.48,0,0,1-1.06-1.06c-.13-.31-.23-.64-.37-.92C61.18,125.47,61.76,125.51,61.94,125.92Z"/><path class="cls-16" d="M82,101.27a.37.37,0,0,1-.2-.08Z"/><path class="cls-16" d="M77.72,101.77c-.25.33.93-.62,1-.48-.38.55.76-.28.78,0,.36-.06,1.11-.45,1.35-.32A.8.8,0,0,1,81,101a5.76,5.76,0,0,1-.82.26c0-.26-1.16.57-.78,0-.06-.14-1.23.81-1,.48.55-.61-.11-.05-.9.69a12.09,12.09,0,0,0-.93,1c-.36.44-.76,1-.37.8,0,.22-.12.54-.22.9s-.19.78-.27,1.19c-.23.92-.28,1.79.34,2.13.15.78.86,1.13,1.17,1.9.45.11.81.3.86.75.36.16,1,.1,1,.55a5.67,5.67,0,0,0,1.94.47,1.84,1.84,0,0,1-.53,0,6.4,6.4,0,0,1-1.07-.14,5.44,5.44,0,0,1-1-.35c0-.45-.59-.39-1-.54,0-.46-.4-.65-.85-.75-.32-.77-1-1.12-1.17-1.9-.62-.34-.58-1.21-.34-2.13.07-.41.17-.83.27-1.19s.18-.68.21-.91c-.39.17,0-.35.38-.79a10.84,10.84,0,0,1,.92-1C77.61,101.71,78.26,101.15,77.72,101.77Z"/><path class="cls-22" d="M72.15,87.42c.38-.58.91-.9,1.34-.74a.74.74,0,0,1,.36.32,1,1,0,0,1,1-.37.91.91,0,0,1,.51.75,1.23,1.23,0,0,1,.76,0A1.51,1.51,0,0,1,77,89a.27.27,0,0,1,.12,0,1.07,1.07,0,0,1,.59,1.05"/><path class="cls-22" d="M80.49,97.08c.12.68-.06,1.28-.49,1.45a.75.75,0,0,1-.47,0,1,1,0,0,1-.52,1,.89.89,0,0,1-.88-.21,1.22,1.22,0,0,1-.58.5,1.5,1.5,0,0,1-1.71-.65l-.11.06a1.08,1.08,0,0,1-1.15-.38"/><path class="cls-22" d="M53.54,90.84c.19-.66.56-1.11.93-1.07a.57.57,0,0,1,.35.21c.2-.41.48-.66.77-.63s.43.24.55.58a.83.83,0,0,1,.61-.18c.52,0,.9.61,1,1.34h.11c.32,0,.57.38.67.86"/><path class="cls-22" d="M84.51,94.67a1.56,1.56,0,0,1,1.2,1.39,1.44,1.44,0,0,1-.13.66,1.49,1.49,0,0,1,.75,1.2A1.47,1.47,0,0,1,85.88,99a2.32,2.32,0,0,1,.28,1,2.06,2.06,0,0,1-1.11,2,1.1,1.1,0,0,1,0,.18,1.57,1.57,0,0,1-.69,1.39"/><path class="cls-22" d="M77.87,117.18c1.33.15,2.29.67,2.32,1.32a.91.91,0,0,1-.3.66c.85.23,1.41.65,1.43,1.14s-.34.81-.95,1.11a1.42,1.42,0,0,1,.52,1c0,.9-.92,1.71-2.29,2a.47.47,0,0,1,0,.17c0,.57-.55,1.09-1.43,1.4"/><path class="cls-22" d="M64.35,94.32a1.7,1.7,0,0,1-.4-.68c-.3,0-.63-.45-.76-1a1.38,1.38,0,0,1,.14-1.16.86.86,0,0,1-.55-.65A.85.85,0,0,1,63,90a1.25,1.25,0,0,1-.12-.31.8.8,0,0,1,.26-.86"/><path class="cls-22" d="M69.25,126.71a1.51,1.51,0,0,1-1.07,0,1.47,1.47,0,0,1-2.61-1.06.94.94,0,0,1-1.66-.89.76.76,0,0,1-.42-.08,1.13,1.13,0,0,1-.39-1.35"/><path class="cls-16" d="M55,107.87a1.73,1.73,0,0,1-2.28-1.77s-3.67-.39-2.84-3.38c0,0-2.48-2,.21-3.78,0,0-1.29-2.52.82-3l0,3.74-.17,3s1.89,1.83,2.06,2S55,107.87,55,107.87Z"/><path class="cls-16" d="M84.4,110.36a2.72,2.72,0,0,1,3.91.57c1.74,2.26.06,1.65.06,1.65a1.15,1.15,0,0,1,1.61-.49,1.17,1.17,0,0,1,.35,1.68,2.72,2.72,0,0,1,2.14,3.2s1.61,2.51-.75,3a2.19,2.19,0,0,1,.47,3.31s1.1,2.25-1.63,2.7c0,0-.28,3.31-4.19,2.67l1.68-2.76,1.5-3.31-.25-2.46L88,116.58,86,113.44l-1.68-2.18Z"/><path class="cls-18" d="M76.81,102.46a10.84,10.84,0,0,0-.92,1c-.37.44-.77,1-.38.79,0,.23-.12.55-.21.91s-.2.78-.27,1.19c-.24.92-.28,1.79.34,2.13.14.78.85,1.13,1.17,1.9.45.1.8.29.85.75.37.15,1,.09,1,.54a5.44,5.44,0,0,0,1,.35,6.4,6.4,0,0,0,1.07.14,7.19,7.19,0,0,0,2.12-.34c.11.09,1-.56,1.06-.54s.61-.41.84-.63A7.26,7.26,0,0,0,85,110c.77-.83,1-1.17.75-1.15.32-.5-.12-.32.39-1.08,0-.28-.37-.24.09-1a1.23,1.23,0,0,0,.09-1.22c0-.39-.82-.08-.42-.91-.11-.35-.1-.85-.61-.87s-.34-.71-.56-1a1.49,1.49,0,0,0-.86-.75c-.48,0-.89-.15-1-.54a2.24,2.24,0,0,1-1.11-.27c-.71.26-.68-.15-1-.22s-1,.26-1.35.32c0-.26-1.16.57-.78,0-.06-.14-1.24.81-1,.48C78.26,101.15,77.61,101.71,76.81,102.46Z"/><path class="cls-22" d="M82.13,104.83a1.05,1.05,0,0,1,.35.79,1.21,1.21,0,0,1,.93,1.29,1.13,1.13,0,0,1-1.12.78c.49.22.79.57.72.87s-.5.49-1,.48a.52.52,0,0,1,0,.32c-.08.33-.56.51-1.15.47"/><path class="cls-16" d="M60.68,125.34s0,2.83,2.32,2.1c0,0,.67,2.79,2.68,2.43a1.61,1.61,0,0,0,2.61.61s1.64,2.79,3.21.27c0,0,2.71,1.89,3.28-.92H73.34l-2.94.37-1.48-.12-1.2-.35-.94.2-1.43-.78-.9-.4a8.11,8.11,0,0,0-1.93-2.63A8.49,8.49,0,0,0,60.68,125.34Z"/><path class="cls-18" d="M87.16,109.7a2.22,2.22,0,0,0,3.34-1.89s2.13.65,1.42-1.45c0,0,3.76,0,1.93-3.5,0,0,3.78-.8.8-4.15a1.89,1.89,0,0,0-1.2-3.14s2-2.95-1.2-3.39c0,0-.18-2.74-2.19-2.11,0,0-1.32-3.28-3.53-1.29a2.81,2.81,0,0,0-4.19-.32s6.22,3.78,6.54,4.07a34.77,34.77,0,0,1,1.84,3.66l-.21,6.38Z"/><path class="cls-18" d="M86.41,128.14a2.08,2.08,0,0,1-2.71,2.14s-.45,2.63-3.35,1.25c0,0-1.1,1.32-2.68-.52a2,2,0,0,1-2.89-1.18l5.08-.2Z"/><path class="cls-18" d="M50.9,96a1.49,1.49,0,0,1-.82-2.36s-2-1.9.42-2.49c0,0-.84-2.71,1.53-3.08a2.52,2.52,0,0,1,2-2.49s-.05-4.52,3.58-4c0,0,1-1.52,2.13-.34a1.25,1.25,0,0,1,1.88.5l-2.06,2.15L55,87.67l-2.8,1.66-.56,2.15-.34,3.75.12.5Z"/><path class="cls-16" d="M60,87.37s-1.52-1.51.78-2.7a2.66,2.66,0,0,1,1.07-3.92s.93-3.85,3.78-3.3c0,0,1.08-3.56,3.85-1.17,0,0,3.07-3,5.07.1,0,0,2.51-1.16,4.26,2.31,0,0,2.92,1.37,2.36,3.16,0,0,3,2.18,1.19,3.9a1.77,1.77,0,0,1,0,2.71L82.09,86l-.62-2.55-1-1.78-2.31-2.28-1.37-.63L74,77.47l-2.26-.69-3,.61-1.49.27L65,78.83l-1.33.87-2,2L61,83.24l.18,1-.29,1-.17,1.73-.51.87Z"/><path class="cls-23" d="M53.08,119c-.08-3.08-3.82-7.47-8.2-10.5s-9.8-5-12.71-4S25,115.81,25.38,122.38s2.06,9.4,2.95,10,4.11,1.15,10.42-.75S53.16,122.1,53.08,119Z"/><path class="cls-11" d="M42.9,107.27h0c-.25.36.41,1.25,1.47,2s2.12,1,2.37.67h0c-.6-.49-1.22-1-1.86-1.41S43.58,107.66,42.9,107.27Z"/><path class="cls-24" d="M44.73,108.74c.78-1.13,3.25-4.81,6.38-3.53"/><rect class="cls-3" x="34.68" y="106.95" width="0.91" height="1.88" rx="0.46" transform="translate(67.71 -0.8) rotate(34.72)"/><rect class="cls-3" x="38.12" y="109.33" width="0.91" height="1.88" rx="0.46" transform="translate(69.68 -2.34) rotate(34.72)"/><rect class="cls-3" x="41.56" y="111.71" width="0.91" height="1.88" rx="0.46" transform="translate(71.65 -3.87) rotate(34.72)"/><rect class="cls-3" x="45" y="114.1" width="0.91" height="1.88" rx="0.46" transform="translate(73.62 -5.4) rotate(34.72)"/><rect class="cls-3" x="48.43" y="116.48" width="0.91" height="1.88" rx="0.46" transform="translate(75.59 -6.94) rotate(34.72)"/><rect class="cls-3" x="33.9" y="111.06" width="0.91" height="1.88" rx="0.46" transform="translate(69.91 0.38) rotate(34.72)"/><rect class="cls-3" x="37.34" y="113.44" width="0.91" height="1.88" rx="0.46" transform="translate(71.88 -1.16) rotate(34.72)"/><rect class="cls-3" x="40.78" y="115.83" width="0.91" height="1.88" rx="0.46" transform="translate(73.85 -2.69) rotate(34.72)"/><rect class="cls-3" x="44.21" y="118.21" width="0.91" height="1.88" rx="0.46" transform="translate(75.82 -4.23) rotate(34.72)"/><rect class="cls-3" x="47.65" y="120.59" width="0.91" height="1.88" rx="0.46" transform="translate(77.79 -5.76) rotate(34.72)"/><rect class="cls-3" x="30.33" y="113.24" width="0.91" height="1.88" rx="0.46" transform="translate(70.51 2.8) rotate(34.72)"/><rect class="cls-3" x="33.76" y="115.62" width="0.91" height="1.88" rx="0.46" transform="translate(72.49 1.27) rotate(34.72)"/><rect class="cls-3" x="37.2" y="118" width="0.91" height="1.88" rx="0.46" transform="translate(74.46 -0.27) rotate(34.72)"/><rect class="cls-3" x="40.64" y="120.38" width="0.91" height="1.88" rx="0.46" transform="translate(76.42 -1.8) rotate(34.72)"/><rect class="cls-3" x="44.08" y="122.77" width="0.91" height="1.88" rx="0.46" transform="translate(78.39 -3.34) rotate(34.72)"/><rect class="cls-3" x="31.02" y="119.57" width="0.91" height="1.88" rx="0.46" transform="translate(74.25 3.53) rotate(34.72)"/><rect class="cls-3" x="34.46" y="121.95" width="0.91" height="1.88" rx="0.46" transform="translate(76.22 1.99) rotate(34.72)"/><rect class="cls-3" x="37.9" y="124.34" width="0.91" height="1.88" rx="0.46" transform="translate(78.19 0.46) rotate(34.72)"/><rect class="cls-3" x="30.24" y="123.68" width="0.91" height="1.88" rx="0.46" transform="translate(76.45 4.71) rotate(34.72)"/><rect class="cls-3" x="33.68" y="126.06" width="0.91" height="1.88" rx="0.46" transform="translate(78.42 3.17) rotate(34.72)"/><rect class="cls-3" x="30.11" y="128.24" width="0.91" height="1.88" rx="0.46" transform="translate(79.02 5.6) rotate(34.72)"/><path class="cls-25" d="M53.08,119c0-1.69-1.19-3.77-2.93-5.8a8.72,8.72,0,0,1,1.93,4.54c.08,3.08-8,10.72-14.33,12.62s-9.47,1.38-10.39.77a3.78,3.78,0,0,0,1,1.24c.9.62,4.11,1.15,10.42-.75S53.16,122.1,53.08,119Z"/></g></g></svg>