<svg id="Layer_1" data-name="Layer 1" xmlns="http://www.w3.org/2000/svg" viewBox="0 0 296.24 239.07"><defs><style>.cls-1{fill:#b5b8ba;}.cls-2{fill:#fff;}.cls-14,.cls-3,.cls-7{fill:none;}.cls-3{stroke:#fff;stroke-width:2.68px;}.cls-14,.cls-3,.cls-6,.cls-7{stroke-miterlimit:10;}.cls-4{fill:#b21f24;}.cls-5{fill:#d82927;}.cls-6{fill:#ccc;stroke:#010101;stroke-width:0.67px;}.cls-14,.cls-7{stroke:#b21f24;}.cls-7{stroke-width:6px;}.cls-8{fill:#fad1ab;}.cls-9{fill:#e5b693;}.cls-10{fill:#079b49;}.cls-11{fill:#bc9571;}.cls-12{fill:#e6f3eb;}.cls-13{fill:#3c4248;}.cls-14{stroke-width:0.52px;}.cls-15{fill:#0b331c;}.cls-16{font-size:12px;fill:#010101;font-family:TerumoBCT-Regular, Terumo BCT;}</style></defs><title>Artboard 2</title><path class="cls-1" d="M110.13,14.89A2.23,2.23,0,0,1,107.79,17H90.23a2.24,2.24,0,0,1-2.35-2.12V12.77a2.24,2.24,0,0,1,2.35-2.12h17.56a2.23,2.23,0,0,1,2.34,2.12Zm63,153.31v-127c0-5.69-4-13.49-8.93-17.34L153.43,15.4a26.94,26.94,0,0,0-4.7-2.84S106,1.1,99.51,1.13,53.19,12.56,53.19,12.56a28.55,28.55,0,0,0-4.5,2.61L36.66,24c-5,3.72-9.17,11.41-9.17,17.11v127c0,5.7,3.93,13.58,8.74,17.52l19.62,16.06h34V211.9h20.84V201.78h34l19.62-16.06c4.8-3.94,8.73-11.82,8.73-17.52"/><path class="cls-2" d="M165,157.54c0,15.08-14.26,27.43-31.69,27.43H67.35c-17.43,0-31.69-12.35-31.69-27.43V52.9c0-15.09,14.26-27.42,31.69-27.42h65.91C150.69,25.48,165,37.81,165,52.9Z"/><path class="cls-3" d="M165,157.54c0,15.08-14.26,27.43-31.69,27.43H67.35c-17.43,0-31.69-12.35-31.69-27.43V52.9c0-15.09,14.26-27.42,31.69-27.42h65.91C150.69,25.48,165,37.81,165,52.9Z"/><path class="cls-4" d="M35.66,52.9V157.54c0,15.08,14.26,27.43,31.69,27.43h65.91c17.43,0,31.69-12.35,31.69-27.43V52.9a24,24,0,0,0-1.6-8.57H37.26A24,24,0,0,0,35.66,52.9Z"/><rect class="cls-2" x="68.48" y="59.64" width="65.65" height="102.27"/><rect class="cls-5" x="96.15" y="92.63" width="9.05" height="36.29"/><rect class="cls-5" x="96.15" y="92.63" width="9.05" height="36.29" transform="translate(211.45 10.1) rotate(90)"/><line class="cls-6" x1="34.72" y1="185.73" x2="56.1" y2="185.73"/><line class="cls-6" x1="34.72" y1="145.56" x2="56.1" y2="145.56"/><line class="cls-6" x1="34.72" y1="105.39" x2="56.1" y2="105.39"/><line class="cls-6" x1="34.72" y1="65.22" x2="56.1" y2="65.22"/><line class="cls-6" x1="34.72" y1="25.05" x2="56.1" y2="25.05"/><path class="cls-7" d="M204.55,157.54V110.23a12.94,12.94,0,0,1,12.94-13h15.15"/><path class="cls-8" d="M258.1,32h-5.62s-1.3,5.14-1.55,5.7-6.69,5.61-11.33,6.75-9.17,3.1-10.66,7.44-2.73,13.23-3.29,16.17S224.57,79,223.8,83.68s-2.23,10.85-1.92,17.35,1.51,12.79,1.92,16.79.55,11.65.62,15.49,4.58,7.31,10.78,6.82c1.36,0,.31-1.86-2-2.85a5,5,0,0,1-2.91-4.65c.06-1.24.37-3.53.37-3.53s2.88,3.9,3.1,5.08,1.92.18,1.92-1.37-1.61-4-1.61-4.64-.06-4.06-2.36-6.07-1.82-5.7-1.11-10.1,2.38-17.78,2-22.31a15.21,15.21,0,0,1,1.12-6.32c.77-2.17,3.1-13,3.1-13.75.68,1.61,3.47,8.08,3.78,12.51s-.44,9.45-.62,13.76-.47,8.39-1.18,10.47a65.69,65.69,0,0,0-3.16,16.6c-.22,6.94-1.55,15.77.25,25.78s3.62,21.16,3.1,27.32-1.65,21.13,1,29.93,4.27,16.76,2.66,20.2-6.26,7.93-7.06,9.6-.87,2.76.74,3,6,.56,7.06,0,6.7-4.68,7.38-6.44-.1-4.31-.06-8.3.58-18.93,1.48-23.61A83.14,83.14,0,0,0,253,181.7c-.46-5.76.53-14.62.62-18.9S253.81,151,254.9,148s2.26-9.6,2-12.2a7.7,7.7,0,0,0,2.11.37V32Z"/><path class="cls-8" d="M260,32h5.62s1.3,5.14,1.55,5.7,6.69,5.61,11.33,6.75,9.17,3.1,10.66,7.44,2.73,13.23,3.28,16.17S293.5,79,294.27,83.68s2.23,10.85,1.92,17.35-1.51,12.79-1.92,16.79-.55,11.65-.62,15.49-4.58,7.31-10.78,6.82c-1.36,0-.31-1.86,2.05-2.85a5,5,0,0,0,2.91-4.65c-.06-1.24-.37-3.53-.37-3.53s-2.88,3.9-3.1,5.08-1.92.18-1.92-1.37,1.61-4,1.61-4.64.06-4.06,2.35-6.07,1.83-5.7,1.12-10.1-2.39-17.78-2-22.31a15.38,15.38,0,0,0-1.12-6.32c-.77-2.17-3.1-13-3.1-13.75-.68,1.61-3.47,8.08-3.78,12.51s.44,9.45.62,13.76.47,8.39,1.18,10.47a65.69,65.69,0,0,1,3.16,16.6c.22,6.94,1.55,15.77-.25,25.78s-3.62,21.16-3.1,27.32,1.65,21.13-1,29.93-4.27,16.76-2.66,20.2,6.26,7.93,7.06,9.6.87,2.76-.74,3-6,.56-7.07,0-6.69-4.68-7.37-6.44.09-4.31.06-8.3-.59-18.93-1.48-23.61A82.56,82.56,0,0,1,265,181.7c.46-5.76-.53-14.62-.62-18.9S264.25,151,263.17,148s-2.26-9.6-2-12.2a7.7,7.7,0,0,1-2.11.37V32Z"/><path class="cls-9" d="M259.05,30.6h-6.24l-.69,2.8c1.64,2.26,3.57,3.24,6.93,3.24Z"/><path class="cls-9" d="M259,30.6h6.23l.7,2.8c-1.65,2.26-3.57,3.24-6.93,3.24Z"/><path class="cls-10" d="M259.05,116.66c-6.85,0-22.54-1.29-22.54-1.29s-.7,4.1-.8,6-.73,14.07-.73,14.07v6.87a57.73,57.73,0,0,0,.18,6h21.09s2.8-9.49,2.8-12.19Z"/><path class="cls-10" d="M259,116.66c6.85,0,22.54-1.29,22.54-1.29s.7,4.1.8,6,.73,14.07.73,14.07v6.87a57.73,57.73,0,0,1-.18,6H261.82s-2.8-9.49-2.8-12.19Z"/><path class="cls-8" d="M221.88,101c.31,6.51,1.52,12.79,1.92,16.79s.56,11.65.62,15.49,4.58,7.31,10.78,6.82c1.36,0,.31-1.86-2-2.85a4.94,4.94,0,0,1-2.92-4.65c.07-1.24.38-3.53.38-3.53s2.88,3.9,3.09,5.08,1.92.18,1.92-1.37-1.61-4-1.61-4.64-.06-4.06-2.35-6.07-1.83-5.7-1.12-10.1"/><ellipse class="cls-11" cx="244.72" cy="71.16" rx="0.82" ry="0.6"/><ellipse class="cls-11" cx="274.04" cy="71.16" rx="0.82" ry="0.6"/><rect class="cls-12" x="218.95" y="91.25" width="15.3" height="12.82"/><path class="cls-8" d="M259.05,0C251,0,247,7.05,247,10.2s-.87,24,12,24Z"/><path class="cls-8" d="M259,0c8.08,0,12,7.05,12,10.2s.87,24-12,24Z"/><path class="cls-8" d="M248.06,19s-2.09-1.81-1.92,1.13-.08,4.3,3.24,6.67Z"/><path class="cls-8" d="M270,19s2.09-1.81,1.92,1.13.08,4.3-3.24,6.67Z"/><polygon class="cls-1" points="248.63 22.6 248.44 22.6 247.26 17.32 248.02 17.32 248.63 22.6"/><polygon class="cls-1" points="269.36 22.6 269.36 22.6 270.77 17.32 270.02 17.32 269.36 22.6"/><ellipse class="cls-13" cx="254.3" cy="18.64" rx="0.82" ry="1.32"/><ellipse class="cls-13" cx="263.46" cy="18.64" rx="0.82" ry="1.32"/><path class="cls-14" d="M255.45,28.07s4.86.85,7.57-.44"/><path class="cls-1" d="M261,14.54s2.48-2,6.48,2.09l-6.42-.7Z"/><path class="cls-1" d="M256.07,14.46s-2.31-2-5.62,2.26l5.65-.85Z"/><path class="cls-15" d="M262.5,17.3s.79-1,3.57,1.34C266.07,18.64,263.24,17.22,262.5,17.3Z"/><path class="cls-15" d="M255,17.3s-.78-1-3.57,1.34C251.42,18.64,254.25,17.22,255,17.3Z"/><path class="cls-1" d="M262.8,24.37a1.89,1.89,0,0,1,1.35.27,2.65,2.65,0,0,1,1,1,23.28,23.28,0,0,1,.61,3.14s2-3,2.56-4a65.72,65.72,0,0,0,1.73-6.57l-.05.44a66.35,66.35,0,0,1-.93,7.82,13.06,13.06,0,0,1-1.79,3.81c-.45.45-.31,2.34-2,3.13a6,6,0,0,1-2.09.76,4.8,4.8,0,0,1-3,1.32c-1.79,0-2.24-.65-2.24-.65s-2.68,0-3.81-1.16L253,32.5s-2.59-.81-3-2.39a12.35,12.35,0,0,0-.9-2.48V26.39l-1.74-7.86.67-.33,1.55,5.94,2.24,4.45.46-2.21a2.84,2.84,0,0,1,1.09-1.26,2.92,2.92,0,0,1,1.63-.61,16.62,16.62,0,0,0,6.17.16Z"/><path class="cls-9" d="M259.09,19.48a.45.45,0,0,0-.83,0c-.59,1.51-1.64,4.56-.88,5.65.57.82,2.76.68,2.76-.39A16.61,16.61,0,0,0,259.09,19.48Z"/><ellipse class="cls-9" cx="259.86" cy="24.4" rx="1.23" ry="0.95"/><ellipse class="cls-9" cx="257.69" cy="24.4" rx="1.23" ry="0.95"/><path class="cls-9" d="M249.09,18.42l1.36.43A1.18,1.18,0,0,1,249.09,18.42Z"/><path class="cls-9" d="M249.05,19.36l1.42-.11A1.19,1.19,0,0,1,249.05,19.36Z"/><path class="cls-9" d="M268.4,18.42l-1.36.43A1.18,1.18,0,0,0,268.4,18.42Z"/><path class="cls-9" d="M268.44,19.36,267,19.25A1.17,1.17,0,0,0,268.44,19.36Z"/><path class="cls-8" d="M253.91,28a6.76,6.76,0,0,0,2.81.35c1.23-.2,1.78.38,2.92.22s2.27.2,3.1-.27a3.07,3.07,0,0,1,1.51-.45s.59,3-.18,3.47-3,1.17-3.56.95-1.27-2-1.27-2l-1.25,0s.09,1.58-.65,1.9-4-.93-3.86-2.23A5.33,5.33,0,0,1,253.91,28Z"/><path class="cls-9" d="M250.24,22.44l1.82,2A3.59,3.59,0,0,1,250.24,22.44Z"/><path class="cls-9" d="M267.26,22.44l-1.82,2A3.59,3.59,0,0,0,267.26,22.44Z"/><path class="cls-1" d="M248,17.32a33.22,33.22,0,0,0,2-6.3c.26-2.15-1.2-5.66-1.2-5.66a9.88,9.88,0,0,0-2.07,3.7c-.67,2.26.57,9.47.57,9.47Z"/><path class="cls-1" d="M270,17.21a30.38,30.38,0,0,1-2.3-6.29c-.3-2.16,1.36-5.86,1.36-5.86A11.63,11.63,0,0,1,271.35,9c.75,2.25-.64,9.46-.64,9.46Z"/><path class="cls-7" d="M100.12,185v29.88a13.31,13.31,0,0,0,13.31,13.31h77.81a13.31,13.31,0,0,0,13.31-13.31V157.54"/><text class="cls-16" transform="translate(13.61 188.52)">0l</text><text class="cls-16" transform="translate(6.8 148.35)">50l</text><text class="cls-16" transform="translate(0 108.18)">100l</text><text class="cls-16" transform="translate(0 68.01)">150l</text><text class="cls-16" transform="translate(0 27.84)">200l</text></svg>