<svg id="Layer_1" data-name="Layer 1" xmlns="http://www.w3.org/2000/svg" viewBox="0 0 445.5 79.1"><defs><style>.cls-1{fill:#3d454f;}.cls-2{fill:#008d61;}</style></defs><title>Artboard 1</title><path class="cls-1" d="M97.81,68.37a4.48,4.48,0,0,0,1.12,3.23,4.17,4.17,0,0,0,3.13,1.16,4.23,4.23,0,0,0,3.14-1.12,4.43,4.43,0,0,0,1.13-3.27V57.9h2V68.73a5.7,5.7,0,0,1-.53,2.52,5.39,5.39,0,0,1-1.4,1.79,6,6,0,0,1-2,1.08,7.72,7.72,0,0,1-2.4.37,7.87,7.87,0,0,1-2.48-.37,5.63,5.63,0,0,1-2-1.08,5.06,5.06,0,0,1-1.32-1.79,6.16,6.16,0,0,1-.48-2.52V57.9h2Z"/><path class="cls-1" d="M112,74.17V62.54h1.83l.12.92a7,7,0,0,1,1.77-.87,6.49,6.49,0,0,1,2.11-.35,4.53,4.53,0,0,1,3.55,1.19,5.17,5.17,0,0,1,1,3.5v7.24h-2V66.88a3.48,3.48,0,0,0-.69-2.29,2.78,2.78,0,0,0-2.26-.83,4.66,4.66,0,0,0-1.9.4,9,9,0,0,0-1.61.89v9.12Z"/><path class="cls-1" d="M125.75,74.17V57.9h2V74.17Z"/><path class="cls-1" d="M133.8,73.93a5.55,5.55,0,0,1-1.79-1.4,6.12,6.12,0,0,1-1.07-2,7.26,7.26,0,0,1-.37-2.25,7.1,7.1,0,0,1,.36-2.24A5.82,5.82,0,0,1,132,64.12a5.15,5.15,0,0,1,1.78-1.36,6.17,6.17,0,0,1,5,0,5.33,5.33,0,0,1,1.78,1.38,6,6,0,0,1,1.06,1.95,7.38,7.38,0,0,1,0,4.49,6,6,0,0,1-1.06,2,5.33,5.33,0,0,1-1.78,1.38,6.2,6.2,0,0,1-4.95,0Zm-.35-2.44a4.14,4.14,0,0,0,1.2,1,3.18,3.18,0,0,0,1.61.4,3.29,3.29,0,0,0,1.66-.4,3.83,3.83,0,0,0,1.18-1,4.52,4.52,0,0,0,.71-1.48,6.25,6.25,0,0,0,0-3.36,4.52,4.52,0,0,0-.71-1.48,3.68,3.68,0,0,0-1.18-1,3.69,3.69,0,0,0-3.3,0,3.54,3.54,0,0,0-1.17,1,4.57,4.57,0,0,0-.69,1.46,5.93,5.93,0,0,0-.23,1.68,6.06,6.06,0,0,0,.23,1.7A4.63,4.63,0,0,0,133.45,71.49Z"/><path class="cls-1" d="M154.51,71.69a4.64,4.64,0,0,1-1.95,2.08,5.45,5.45,0,0,1-2.64.67,6.41,6.41,0,0,1-2.11-.36A5.11,5.11,0,0,1,146,73a5.63,5.63,0,0,1-1.28-1.89,6.77,6.77,0,0,1-.49-2.67,7.34,7.34,0,0,1,.49-2.8A5.57,5.57,0,0,1,146,63.67a5.08,5.08,0,0,1,1.79-1.08,6.15,6.15,0,0,1,2-.35,5,5,0,0,1,1.81.3,4.82,4.82,0,0,1,1.33.73,4.62,4.62,0,0,1,.9.93,3.7,3.7,0,0,1,.5.88l-1.46.87a3.73,3.73,0,0,0-1.36-1.68,3.13,3.13,0,0,0-3.05-.21,3.61,3.61,0,0,0-1.15.89,4.21,4.21,0,0,0-.82,1.44,6.32,6.32,0,0,0,0,3.91,4.18,4.18,0,0,0,.83,1.43,3.62,3.62,0,0,0,1.23.9,3.84,3.84,0,0,0,1.51.3,3.33,3.33,0,0,0,1.72-.49,3.56,3.56,0,0,0,1.38-1.58Z"/><path class="cls-1" d="M156.85,74.17V57.9h2V67l5-4.41h2.51l-4.17,3.75,5.24,7.88h-2.29l-4.42-6.58-1.83,1.58v5Z"/><path class="cls-1" d="M170,60.68a1.18,1.18,0,0,1-.91-.4,1.45,1.45,0,0,1,0-2,1.17,1.17,0,0,1,.91-.42,1.23,1.23,0,0,1,.93.42,1.43,1.43,0,0,1,0,2A1.24,1.24,0,0,1,170,60.68Zm-1,13.49V62.54h2V74.17Z"/><path class="cls-1" d="M174.41,74.17V62.54h1.83l.12.92a7.3,7.3,0,0,1,1.77-.87,6.53,6.53,0,0,1,2.11-.35,4.52,4.52,0,0,1,3.55,1.19,5.17,5.17,0,0,1,1,3.5v7.24h-2V66.88a3.48,3.48,0,0,0-.69-2.29,2.78,2.78,0,0,0-2.26-.83,4.7,4.7,0,0,0-1.9.4,9,9,0,0,0-1.61.89v9.12Z"/><path class="cls-1" d="M197.32,63.76a3.66,3.66,0,0,1,.74,1.11,3.3,3.3,0,0,1,.28,1.4,3.47,3.47,0,0,1-.44,1.79,3.71,3.71,0,0,1-1.18,1.28,5,5,0,0,1-1.72.76,8.36,8.36,0,0,1-2,.25c-.23,0-.51,0-.84,0l-.77-.1a2.05,2.05,0,0,0-.77.25.63.63,0,0,0-.35.55c0,.26.2.45.6.58a9,9,0,0,0,2.18.2,21.21,21.21,0,0,1,2.72.2,6.79,6.79,0,0,1,2,.56A2.75,2.75,0,0,1,199,73.6a3.15,3.15,0,0,1,.42,1.7A3.06,3.06,0,0,1,199,77a3.83,3.83,0,0,1-1.25,1.18,6.5,6.5,0,0,1-1.86.72,10.34,10.34,0,0,1-2.25.24,10,10,0,0,1-4.57-.85,2.83,2.83,0,0,1-1.62-2.68,3,3,0,0,1,1.78-2.79,2.17,2.17,0,0,1-.76-.53,1.25,1.25,0,0,1-.32-.88,1.36,1.36,0,0,1,.56-1.12,3.47,3.47,0,0,1,1.37-.64,6.47,6.47,0,0,1-.7-.41,3.66,3.66,0,0,1-.74-.69,3.49,3.49,0,0,1-.57-1,3.14,3.14,0,0,1-.24-1.28,3.51,3.51,0,0,1,.44-1.78,3.87,3.87,0,0,1,1.19-1.26,5.34,5.34,0,0,1,1.68-.74,7.78,7.78,0,0,1,1.92-.25,8.07,8.07,0,0,1,1.48.14,6.46,6.46,0,0,1,1.42.43l1.8-1.74,1.27,1.1ZM193,73.4q-1.71-.06-2.37-.15a3,3,0,0,0-1.07.83,2,2,0,0,0-.42,1.31,1.48,1.48,0,0,0,.34,1,2.71,2.71,0,0,0,.93.7,5.86,5.86,0,0,0,1.39.42,9.77,9.77,0,0,0,1.78.15A6,6,0,0,0,196.5,77a1.84,1.84,0,0,0,1.11-1.64,1.7,1.7,0,0,0-.21-.87,1.46,1.46,0,0,0-.73-.61,4.69,4.69,0,0,0-1.4-.37A18.5,18.5,0,0,0,193,73.4ZM190,67.25a2.65,2.65,0,0,0,.65.83,3.43,3.43,0,0,0,1,.58,3.73,3.73,0,0,0,1.34.22,6.14,6.14,0,0,0,1.21-.13,3.78,3.78,0,0,0,1.1-.44,2.32,2.32,0,0,0,1.11-2.06,2.18,2.18,0,0,0-.28-1.09,2.37,2.37,0,0,0-.73-.78,3.46,3.46,0,0,0-1.07-.46,4.81,4.81,0,0,0-2.46,0,3.3,3.3,0,0,0-1.06.46,2.27,2.27,0,0,0-.73.78,2.13,2.13,0,0,0-.28,1.11A2.52,2.52,0,0,0,190,67.25Z"/><path class="cls-1" d="M209.64,71.52a1.44,1.44,0,0,0,.34,1.13,1.33,1.33,0,0,0,.88.28,2.31,2.31,0,0,0,.93-.19,4.21,4.21,0,0,0,.8-.47l.76,1.27a6,6,0,0,1-1.16.66,4.32,4.32,0,0,1-1.62.24,3.09,3.09,0,0,1-2.14-.67,2.64,2.64,0,0,1-.74-2.06V64.07h-2.1V62.54h2.1V59.37h2v3.17h3.2v1.53h-3.22Z"/><path class="cls-1" d="M215.13,74.17V57.9h2v5.56a8.46,8.46,0,0,1,1.7-.86,5.91,5.91,0,0,1,2.13-.36,4.5,4.5,0,0,1,3.53,1.2,5.19,5.19,0,0,1,1,3.49v7.24h-2V66.91a3.52,3.52,0,0,0-.69-2.39,2.88,2.88,0,0,0-2.23-.76,4.41,4.41,0,0,0-1.88.42,12.87,12.87,0,0,0-1.59.9v9.09Z"/><path class="cls-1" d="M230.21,68.25a5.18,5.18,0,0,0,1,3.44,3.77,3.77,0,0,0,3.05,1.24,3.36,3.36,0,0,0,1.94-.54,4.24,4.24,0,0,0,1.28-1.32l1.32.83a5.68,5.68,0,0,1-1.73,1.82,5.07,5.07,0,0,1-2.86.72,7.23,7.23,0,0,1-2.49-.4,5.34,5.34,0,0,1-1.88-1.17,5.19,5.19,0,0,1-1.2-1.92,8.2,8.2,0,0,1,0-5.15,5.89,5.89,0,0,1,1.11-1.91,4.91,4.91,0,0,1,1.72-1.22,6.28,6.28,0,0,1,4.62,0,4.41,4.41,0,0,1,1.67,1.23,5.35,5.35,0,0,1,1,1.9,8.5,8.5,0,0,1,.33,2.43Zm6.65-1.49a3.07,3.07,0,0,0-.3-1.33,3,3,0,0,0-.72-1,2.75,2.75,0,0,0-1-.56,3.66,3.66,0,0,0-1.12-.19,3.33,3.33,0,0,0-2.11.7,3.81,3.81,0,0,0-1.24,2.33Z"/><path class="cls-1" d="M247.08,74.17V57.9h5.32a6.52,6.52,0,0,1,4.38,1.25,4.62,4.62,0,0,1,1.43,3.68,4.36,4.36,0,0,1-1.5,3.59,6.82,6.82,0,0,1-4.38,1.22h-3.2v6.53Zm2-8.24h3.37A4.15,4.15,0,0,0,255,65.2a2.86,2.86,0,0,0,1-2.42,3,3,0,0,0-.91-2.44,4,4,0,0,0-2.61-.75h-3.34Z"/><path class="cls-1" d="M262.72,73.93a5.41,5.41,0,0,1-1.78-1.4,6.12,6.12,0,0,1-1.07-2,7,7,0,0,1-.37-2.25,7.1,7.1,0,0,1,.36-2.24,5.82,5.82,0,0,1,1.06-1.94,5.06,5.06,0,0,1,1.78-1.36,6.17,6.17,0,0,1,5,0,5.19,5.19,0,0,1,1.77,1.38,5.79,5.79,0,0,1,1.07,1.95,7.38,7.38,0,0,1,0,4.49,5.79,5.79,0,0,1-1.07,2,5.19,5.19,0,0,1-1.77,1.38,5.63,5.63,0,0,1-2.49.52A5.71,5.71,0,0,1,262.72,73.93Zm-.34-2.44a4,4,0,0,0,1.2,1,3.18,3.18,0,0,0,1.61.4,3.32,3.32,0,0,0,1.66-.4,3.83,3.83,0,0,0,1.18-1,4.72,4.72,0,0,0,.71-1.48,6.25,6.25,0,0,0,0-3.36,4.72,4.72,0,0,0-.71-1.48,3.68,3.68,0,0,0-1.18-1,3.42,3.42,0,0,0-1.66-.39,3.34,3.34,0,0,0-1.64.39,3.54,3.54,0,0,0-1.17,1,4.81,4.81,0,0,0-.7,1.46,6.3,6.3,0,0,0-.22,1.68,6.45,6.45,0,0,0,.22,1.7A4.87,4.87,0,0,0,262.38,71.49Z"/><path class="cls-1" d="M276.26,71.52a1.48,1.48,0,0,0,.34,1.13,1.33,1.33,0,0,0,.88.28,2.28,2.28,0,0,0,.93-.19,4.21,4.21,0,0,0,.8-.47l.76,1.27a6,6,0,0,1-1.16.66,4.32,4.32,0,0,1-1.62.24,3.09,3.09,0,0,1-2.14-.67,2.64,2.64,0,0,1-.74-2.06V64.07h-2.1V62.54h2.1V59.37h2v3.17h3.19v1.53h-3.22Z"/><path class="cls-1" d="M283.14,68.25a5.18,5.18,0,0,0,1.05,3.44,3.75,3.75,0,0,0,3.05,1.24,3.38,3.38,0,0,0,1.94-.54,4.35,4.35,0,0,0,1.28-1.32l1.32.83A5.6,5.6,0,0,1,290,73.72a5,5,0,0,1-2.85.72,7.19,7.19,0,0,1-2.49-.4,5.25,5.25,0,0,1-1.88-1.17,5.07,5.07,0,0,1-1.2-1.92,7.44,7.44,0,0,1-.43-2.65,7.21,7.21,0,0,1,.4-2.5,5.89,5.89,0,0,1,1.11-1.91,4.73,4.73,0,0,1,1.72-1.22,6.26,6.26,0,0,1,4.61,0,4.33,4.33,0,0,1,1.67,1.23,5.21,5.21,0,0,1,1,1.9,8.5,8.5,0,0,1,.33,2.43Zm6.66-1.49a3.38,3.38,0,0,0-.3-1.33,3,3,0,0,0-.72-1,2.83,2.83,0,0,0-1-.56,3.72,3.72,0,0,0-1.13-.19,3.37,3.37,0,0,0-2.11.7,3.85,3.85,0,0,0-1.23,2.33Z"/><path class="cls-1" d="M294.68,74.17V62.54h1.83l.12.92a7,7,0,0,1,1.77-.87,6.49,6.49,0,0,1,2.11-.35,4.52,4.52,0,0,1,3.55,1.19,5.17,5.17,0,0,1,1,3.5v7.24h-2V66.88a3.48,3.48,0,0,0-.69-2.29,2.78,2.78,0,0,0-2.26-.83,4.66,4.66,0,0,0-1.9.4,9,9,0,0,0-1.61.89v9.12Z"/><path class="cls-1" d="M311.2,71.52a1.44,1.44,0,0,0,.34,1.13,1.3,1.3,0,0,0,.87.28,2.24,2.24,0,0,0,.93-.19,4.63,4.63,0,0,0,.81-.47l.75,1.27a5.71,5.71,0,0,1-1.16.66,4.32,4.32,0,0,1-1.62.24,3.06,3.06,0,0,1-2.13-.67,2.61,2.61,0,0,1-.75-2.06V64.07h-2.1V62.54h2.1V59.37h2v3.17h3.19v1.53H311.2Z"/><path class="cls-1" d="M317.71,60.68a1.22,1.22,0,0,1-.92-.4,1.4,1.4,0,0,1-.37-1,1.38,1.38,0,0,1,.37-1,1.21,1.21,0,0,1,.92-.42,1.23,1.23,0,0,1,.93.42,1.43,1.43,0,0,1,0,2A1.24,1.24,0,0,1,317.71,60.68Zm-1,13.49V62.54h2V74.17Z"/><path class="cls-1" d="M329,74.17l-.12-1a4.41,4.41,0,0,1-1.46.94,4.92,4.92,0,0,1-1.83.33,5.28,5.28,0,0,1-1.55-.23,4.08,4.08,0,0,1-1.33-.68,3.39,3.39,0,0,1-.94-1.14,3.32,3.32,0,0,1-.35-1.58,3,3,0,0,1,.71-2,4.79,4.79,0,0,1,1.78-1.28,8.93,8.93,0,0,1,2.38-.67,17.08,17.08,0,0,1,2.52-.2v-.15a2.84,2.84,0,0,0-.65-2.09,2.6,2.6,0,0,0-1.89-.64,3.39,3.39,0,0,0-1.54.36,3.52,3.52,0,0,0-1.19.94l-1.39-.93a4.63,4.63,0,0,1,1.77-1.4,6.09,6.09,0,0,1,2.55-.46,4.7,4.7,0,0,1,3.18,1,4.28,4.28,0,0,1,1.14,3.35v7.58Zm-.19-6.07c-.55,0-1.15.06-1.78.12a7.83,7.83,0,0,0-1.76.38,3.37,3.37,0,0,0-1.33.82,1.92,1.92,0,0,0-.52,1.41,1.76,1.76,0,0,0,.23,1,2.25,2.25,0,0,0,.57.65,2.39,2.39,0,0,0,.77.37,3.5,3.5,0,0,0,.82.11,3.84,3.84,0,0,0,1.66-.36,6.21,6.21,0,0,0,1.34-.84Z"/><path class="cls-1" d="M334.08,74.17V57.9h2V74.17Z"/><path class="cls-1" d="M347.13,73.93a5.41,5.41,0,0,1-1.78-1.4,6.14,6.14,0,0,1-1.08-2,7.25,7.25,0,0,1-.36-2.25,7.09,7.09,0,0,1,.35-2.24,6,6,0,0,1,1.06-1.94,5.25,5.25,0,0,1,1.78-1.36,6.17,6.17,0,0,1,5,0,5.23,5.23,0,0,1,1.78,1.38,6,6,0,0,1,1.07,1.95,7.38,7.38,0,0,1,0,4.49,6,6,0,0,1-1.07,2,5.23,5.23,0,0,1-1.78,1.38,5.6,5.6,0,0,1-2.49.52A5.66,5.66,0,0,1,347.13,73.93Zm-.34-2.44a4,4,0,0,0,1.19,1,3.18,3.18,0,0,0,1.61.4,3.27,3.27,0,0,0,1.66-.4,3.72,3.72,0,0,0,1.18-1,4.32,4.32,0,0,0,.71-1.48,6.25,6.25,0,0,0,0-3.36,4.32,4.32,0,0,0-.71-1.48,3.58,3.58,0,0,0-1.18-1,3.37,3.37,0,0,0-1.66-.39,3.3,3.3,0,0,0-1.63.39,3.45,3.45,0,0,0-1.17,1,4.59,4.59,0,0,0-.7,1.46,6.31,6.31,0,0,0-.23,1.68,6.45,6.45,0,0,0,.23,1.7A4.65,4.65,0,0,0,346.79,71.49Z"/><path class="cls-1" d="M358.67,74.17V64.07h-1.79V62.54h1.84v-.86a5.89,5.89,0,0,1,.26-1.9,3.37,3.37,0,0,1,.75-1.27,2.9,2.9,0,0,1,1.15-.71,4.92,4.92,0,0,1,1.49-.21,6.39,6.39,0,0,1,1.65.18,5.59,5.59,0,0,1,1.18.45l-.58,1.44a7.14,7.14,0,0,0-1-.35,4,4,0,0,0-1.18-.16,2.91,2.91,0,0,0-.77.09,1.28,1.28,0,0,0-.57.38,2.18,2.18,0,0,0-.36.78,5.18,5.18,0,0,0-.14,1.31v.83h2.93v1.53h-2.9v10.1Z"/><path class="cls-1" d="M370.86,74.17V57.9h4.88A5.84,5.84,0,0,1,379.61,59a3.8,3.8,0,0,1,1.31,3,3.07,3.07,0,0,1-.94,2.4,4.68,4.68,0,0,1-2.4,1.09,6.69,6.69,0,0,1,1.47.32,4.36,4.36,0,0,1,1.35.71,3.6,3.6,0,0,1,1,1.22,4.09,4.09,0,0,1,.38,1.85,4.59,4.59,0,0,1-.37,1.89,3.94,3.94,0,0,1-1,1.42,4.53,4.53,0,0,1-1.57.91,6.06,6.06,0,0,1-2,.31Zm2.05-9.36h2.64a3.35,3.35,0,0,0,2.37-.78,2.72,2.72,0,0,0,.83-2.05c0-1.6-1-2.39-2.93-2.39h-2.91Zm0,7.68h3.79a3,3,0,0,0,2.11-.72,2.83,2.83,0,0,0,.79-2.18q0-3.11-4-3.1h-2.71Z"/><path class="cls-1" d="M384.19,74.17V57.9h2V74.17Z"/><path class="cls-1" d="M392.24,73.93a5.41,5.41,0,0,1-1.78-1.4,6.14,6.14,0,0,1-1.08-2A7.25,7.25,0,0,1,389,68.3a7.09,7.09,0,0,1,.35-2.24,6,6,0,0,1,1.06-1.94,5.15,5.15,0,0,1,1.78-1.36,6.17,6.17,0,0,1,5,0A5.33,5.33,0,0,1,399,64.15,5.77,5.77,0,0,1,400,66.1a7.18,7.18,0,0,1,0,4.49,5.77,5.77,0,0,1-1.06,2,5.33,5.33,0,0,1-1.78,1.38,6.2,6.2,0,0,1-4.95,0Zm-.35-2.44a4.14,4.14,0,0,0,1.2,1,3.18,3.18,0,0,0,1.61.4,3.27,3.27,0,0,0,1.66-.4,3.72,3.72,0,0,0,1.18-1,4.32,4.32,0,0,0,.71-1.48,6.25,6.25,0,0,0,0-3.36,4.32,4.32,0,0,0-.71-1.48,3.58,3.58,0,0,0-1.18-1,3.37,3.37,0,0,0-1.66-.39,3.3,3.3,0,0,0-1.63.39,3.48,3.48,0,0,0-1.18,1,4.79,4.79,0,0,0-.69,1.46A5.93,5.93,0,0,0,391,68.3a6.06,6.06,0,0,0,.23,1.7A4.85,4.85,0,0,0,391.89,71.49Z"/><path class="cls-1" d="M405.87,73.93a5.41,5.41,0,0,1-1.78-1.4,6.12,6.12,0,0,1-1.07-2,7,7,0,0,1-.37-2.25,7.1,7.1,0,0,1,.36-2.24,5.82,5.82,0,0,1,1.06-1.94,5.06,5.06,0,0,1,1.78-1.36,6.14,6.14,0,0,1,5,0,5.13,5.13,0,0,1,1.78,1.38,5.79,5.79,0,0,1,1.07,1.95,7.38,7.38,0,0,1,0,4.49,5.79,5.79,0,0,1-1.07,2,5.13,5.13,0,0,1-1.78,1.38,5.55,5.55,0,0,1-2.48.52A5.71,5.71,0,0,1,405.87,73.93Zm-.34-2.44a4,4,0,0,0,1.2,1,3.18,3.18,0,0,0,1.61.4,3.32,3.32,0,0,0,1.66-.4,3.83,3.83,0,0,0,1.18-1,4.5,4.5,0,0,0,.7-1.48,6,6,0,0,0,0-3.36,4.5,4.5,0,0,0-.7-1.48,3.68,3.68,0,0,0-1.18-1,3.42,3.42,0,0,0-1.66-.39,3.34,3.34,0,0,0-1.64.39,3.54,3.54,0,0,0-1.17,1,4.81,4.81,0,0,0-.7,1.46,6.3,6.3,0,0,0-.22,1.68,6.45,6.45,0,0,0,.22,1.7A4.87,4.87,0,0,0,405.53,71.49Z"/><path class="cls-1" d="M425,74.17l-.15-1a3.82,3.82,0,0,1-1.43.94,5,5,0,0,1-1.71.28A5.51,5.51,0,0,1,419.4,74a4.78,4.78,0,0,1-1.69-1.31,5.77,5.77,0,0,1-1-2,7.76,7.76,0,0,1-.37-2.45,6.71,6.71,0,0,1,.38-2.21,5.7,5.7,0,0,1,1.11-1.93,5.35,5.35,0,0,1,1.83-1.35,5.85,5.85,0,0,1,2.56-.52,7.84,7.84,0,0,1,1.58.14,6.76,6.76,0,0,1,1.12.31V57.9h2V74.17Zm-.15-9.85a1.73,1.73,0,0,0-.41-.2l-.61-.18a6.11,6.11,0,0,0-1.39-.18,4.22,4.22,0,0,0-1.87.39,4.05,4.05,0,0,0-1.31,1,4.38,4.38,0,0,0-.78,1.48,5.66,5.66,0,0,0-.26,1.68,7,7,0,0,0,.23,1.82,4.09,4.09,0,0,0,.71,1.45,3.48,3.48,0,0,0,1.18,1,3.79,3.79,0,0,0,1.66.35,4.09,4.09,0,0,0,1.53-.3,3.45,3.45,0,0,0,1.32-1Z"/><polygon class="cls-2" points="0 1.33 0 10.25 15.97 10.25 15.97 40.27 28.33 40.27 28.33 10.25 44.3 10.25 44.3 1.33 0 1.33"/><path class="cls-2" d="M49.09,4.4V37.2a2.92,2.92,0,0,0,2.76,3.08H89.67V31.87H60.32V24.36h26.6V16.22H60.32V8.71H89.67V1.33H51.85A2.92,2.92,0,0,0,49.09,4.4"/><path class="cls-2" d="M239.93,1.34H226.41l-7.65,24.93L211.09,1.34H197.56a2.94,2.94,0,0,0-2.78,3.07V40.27H205.5V18.57l-.34-4.42.88.79,1,3.29,6.73,22h10.06l6.75-22,.93-3.29.87-.79L232,18.57v21.7h10.7V4.41a2.93,2.93,0,0,0-2.77-3.07"/><path class="cls-2" d="M126.51,15.26c-.12,1.25-.83,2-1.84,2H106.22V9.74h18.43c1,0,1.73.81,1.84,2.06.05.64.11,1.06.11,1.74a16.09,16.09,0,0,1-.09,1.72m2.62,10.43c4.59,0,8-4.63,8.36-9.84a45.21,45.21,0,0,0,0-5.46c-.39-5.2-3.77-9-8.37-9H98A2.94,2.94,0,0,0,95.2,4.41V40.27h11V25.69h9.31l10.14,14.58h13.78L128.37,25.69Z"/><path class="cls-2" d="M285.06,28c-.25,2.21-1,3.25-2.36,3.84a13.15,13.15,0,0,1-4.08.8,48.15,48.15,0,0,1-5.38.31,48.28,48.28,0,0,1-5.4-.31,13.15,13.15,0,0,1-4.08-.8c-1.4-.59-2.1-1.63-2.36-3.84a64.19,64.19,0,0,1-.37-7.21,64.69,64.69,0,0,1,.37-7.23c.26-2.2,1-3.24,2.36-3.83a12.87,12.87,0,0,1,4.08-.8,47,47,0,0,1,10.78,0,12.87,12.87,0,0,1,4.08.8c1.4.59,2.11,1.63,2.36,3.83a66.32,66.32,0,0,1,.38,7.23,65.8,65.8,0,0,1-.38,7.21m11.38-15.16c-.22-5.84-3.55-9.59-6.62-10.81A23.11,23.11,0,0,0,281.54.3c-2.76-.19-4.3-.3-8.3-.3s-5.56.11-8.32.3a23.15,23.15,0,0,0-8.28,1.75c-3,1.22-6.4,5-6.61,10.81-.09,2.21-.24,5-.24,8s.15,5.74.24,7.94c.21,5.84,3.56,9.59,6.61,10.8a22.77,22.77,0,0,0,8.28,1.76c2.76.21,4.3.3,8.32.3s5.56-.09,8.3-.3a22.73,22.73,0,0,0,8.28-1.76c3.07-1.21,6.4-5,6.62-10.8.09-2.2.23-5,.23-7.94s-.14-5.74-.23-7.95"/><path class="cls-2" d="M176,29a4.08,4.08,0,0,1-2.37,3.81,12.14,12.14,0,0,1-4.1.81,39.46,39.46,0,0,1-4.21.22,40.88,40.88,0,0,1-4.26-.22,12.09,12.09,0,0,1-4.09-.81A4.1,4.1,0,0,1,154.57,29V1.34H143.13V29c0,5.14,3.07,9.21,6.48,10.55a21.16,21.16,0,0,0,8.28,1.76c1.09.07,3.89.2,7.4.2s6.27-.13,7.36-.2a21.16,21.16,0,0,0,8.28-1.76c3.41-1.34,6.47-5.41,6.47-10.55V1.34H176Z"/><path class="cls-2" d="M353.28,20.85c0-9,.57-12.93,2.76-15.78,2-2.6,5.37-3.9,20.66-3.9,14.07,0,17,.89,19.44,3.42a9,9,0,0,1,2.36,6.58v3.34h-4.72V12.8c0-3.09-.81-4.88-2.11-5.85-1.55-1.14-3.74-1.63-15-1.63-11.79,0-15,.41-16.67,2.77s-1.87,5.2-1.87,12.76.16,10.33,1.87,12.77,4.88,2.76,16.67,2.76c11.23,0,13.59-.48,15.13-1.62,1.3-1,2.12-2.77,2.12-5.86V27h4.71v3.5a9.06,9.06,0,0,1-2.35,6.59c-2.45,2.51-5.54,3.41-19.61,3.41-15.29,0-18.62-1.3-20.66-3.91-2.19-2.84-2.76-6.74-2.76-15.77M335.47,36.14c4.64,0,7.32-.9,7.32-5.77V28c0-4.88-2.68-5.77-7.32-5.77H308.88v13.9Zm-31.71-33a1.62,1.62,0,0,1,1.63-1.79H336.2c7.89,0,10.09,4.23,10.09,8.7v3.75c0,2.76-1.55,5.61-6.18,6.1v.24c4.06.24,7.64,1.78,7.64,7.65V32c0,5.45-4.71,8.29-11.06,8.29h-31.3a1.62,1.62,0,0,1-1.63-1.78ZM421.11,5.48h-19.2V1.33H445.5V5.48H426.31v34.8h-5.2ZM341.33,9.79c0-3.25-1.71-4.31-5.45-4.31h-27v12.6h27c3.74,0,5.45-1,5.45-4.3Z"/></svg>