<svg xmlns="http://www.w3.org/2000/svg" viewBox="0 0 185.99 130.01"><defs><style>.cls-1{isolation:isolate;}.cls-2{fill:#b21f24;}.cls-3{fill:#d99c88;}.cls-4{fill:#f3f3f3;}.cls-5{fill:#570e0f;}.cls-6{fill:#079b49;}.cls-7{fill:#80c454;}.cls-8{fill:#eceded;}.cls-9{fill:#dbdcdc;}.cls-10{fill:#121233;}.cls-11{fill:#3d3c5d;}.cls-12{fill:#3c4248;}.cls-13,.cls-17{fill:#697076;}.cls-14{fill:#8f9397;}.cls-15{fill:#292d30;}.cls-16{fill:#fff;}.cls-17{opacity:0.25;}.cls-17,.cls-19,.cls-21{mix-blend-mode:multiply;}.cls-18{fill:#daa941;}.cls-20,.cls-21{fill:#854d20;}</style></defs><title>Artboard 2</title><g class="cls-1"><g id="Layer_1" data-name="Layer 1"><path class="cls-2" d="M71,74c-12.15,0-20.29-2.48-24.87-7.6-4.44-4.95-4.44-11.07-3.85-16.41.69-6.3,7.28-9.81,13.65-13.21,5.61-3,11.42-6.09,12.29-10.61C70.31,15.29,87.6,2.2,105.92,2.2A38.66,38.66,0,0,1,117.74,4C130.49,6.59,140,19.31,140,33.67c-.06,18.49-15.42,32.4-41.07,37.21A155.75,155.75,0,0,1,71,74Z"/><path class="cls-3" d="M105.92,4.4a36.66,36.66,0,0,1,11.27,1.76C141.82,11,153.56,58.39,98.51,68.72a152.46,152.46,0,0,1-27.53,3c-27.53,0-27.44-13.37-26.54-21.57,1.13-10.33,23.78-12.6,25.92-23.64C72.14,17.37,87.84,4.4,105.92,4.4m0-4.4C86.27,0,68.35,13.82,66,25.7c-.67,3.49-6,6.34-11.16,9.09-6.56,3.49-14,7.46-14.81,14.91-.39,3.52-1.29,11.77,4.4,18.12,5,5.61,13.7,8.33,26.51,8.33A158.46,158.46,0,0,0,99.32,73c14.21-2.67,25.21-7.86,32.69-15.44a33.76,33.76,0,0,0,10.17-23.92c.06-15.35-10.19-29-23.89-31.78A41,41,0,0,0,105.92,0Z"/><circle class="cls-4" cx="111.1" cy="26.12" r="7.78"/><path class="cls-5" d="M91,26.12a73.1,73.1,0,0,1,5.61,6.76c1.76,2.33,3.41,4.73,5,7.17s3.1,4.93,4.51,7.48A72.9,72.9,0,0,1,110,55.41a71.8,71.8,0,0,1-5.61-6.76c-1.76-2.33-3.41-4.73-5-7.17s-3.09-4.92-4.5-7.48A74.86,74.86,0,0,1,91,26.12Z"/><path class="cls-5" d="M78.1,31.55a74.73,74.73,0,0,1,5.61,6.76c1.76,2.33,3.41,4.73,5,7.17S91.8,50.4,93.21,53a72.9,72.9,0,0,1,3.88,7.88,71.8,71.8,0,0,1-5.61-6.76c-1.76-2.33-3.41-4.73-5-7.17S83.39,42,82,39.43A75.84,75.84,0,0,1,78.1,31.55Z"/><path class="cls-5" d="M67.17,38.68a60.8,60.8,0,0,1,5.13,6c1.6,2.08,3.09,4.24,4.51,6.43s2.78,4.44,4,6.75A58.68,58.68,0,0,1,84.25,65a59.59,59.59,0,0,1-5.14-6c-1.59-2.09-3.08-4.24-4.51-6.44s-2.78-4.43-4-6.75A59.25,59.25,0,0,1,67.17,38.68Z"/><path class="cls-5" d="M57.43,45.61a40.33,40.33,0,0,1,4.42,4.75c1.36,1.65,2.61,3.38,3.81,5.15S68,59.1,69,61a40.44,40.44,0,0,1,2.71,5.89,39.5,39.5,0,0,1-4.42-4.75c-1.36-1.65-2.62-3.38-3.81-5.15s-2.3-3.59-3.32-5.48A41.52,41.52,0,0,1,57.43,45.61Z"/><path class="cls-6" d="M55.13,50.1c-24.24-14.78-35,22-31.82,30.82s.59,20.42-2.32,25.2c2.91-4.78,11.92-12.38,21.32-13.62S79.37,64.87,55.13,50.1Z"/><polygon class="cls-7" points="16.23 112.24 46.48 64.3 17.73 113.16 16.23 112.24"/><polygon class="cls-7" points="39.21 75.93 47.9 74.04 39.31 76.35 39.21 75.93"/><polygon class="cls-7" points="34.55 83.56 43.24 81.68 34.66 83.99 34.55 83.56"/><polygon class="cls-7" points="29.53 91.81 38.22 89.92 29.63 92.23 29.53 91.81"/><polygon class="cls-7" points="40.28 74.18 38.4 65.5 40.71 74.08 40.28 74.18"/><polygon class="cls-7" points="35.63 81.82 33.75 73.13 36.06 81.72 35.63 81.82"/><polygon class="cls-7" points="30.61 90.07 28.72 81.38 31.03 89.96 30.61 90.07"/><path class="cls-8" d="M183.8,55.24c-5.51,18.37-19.53,25-33.16,20.9s-21.7-17.32-16.2-35.69S157,5.52,170.58,9.61,189.31,36.87,183.8,55.24Z"/><path class="cls-9" d="M185.39,32a56.27,56.27,0,0,1-1.95,9.44c-6,20.1-21.36,27.33-36.27,22.86a27.39,27.39,0,0,1-14.31-9.76,24.24,24.24,0,0,0,17.78,21.62c13.63,4.08,27.65-2.53,33.16-20.9A54.22,54.22,0,0,0,185.39,32Z"/><path class="cls-10" d="M130.11,64.62c-.84.41-.55.63-1.19.7a1.4,1.4,0,0,1-1.3.1c-.87,0-1.93.47-2.07.4a3.65,3.65,0,0,0-2,0c.17,0-.6-.47-1.72-.33-.64-.25-.17-.3-1.32-.8-.92-.84-.19-.93-.78-1,.31-.23-.91-.64,0-1.2.43-.48-.36-.87.22-1.54A10.12,10.12,0,0,0,121,59.2c.5-.68.7-1.28,1.31-1.06.74-.48.75-1.21,1.82-1.33.38-1.19,2.09-.62,2.23-1.09.78-.37,1.78-.3,2.26-.86.76.46,1.82-.82,2.3-.34.67-.62,1.39,0,1.8-.05,1.24.53,1.12-.06,1.93.37,1.06.18,1.62.61,1.4.6.54.37.28.6.7,1.15,0,0,.33,1.14.09,1.24a7.24,7.24,0,0,1-.31,1.5c-1-.14-.33.43-1.11,1.14a4.36,4.36,0,0,0-1.28,1.73c-.6,1-.42,1.23-1.57,1.61-.54,0-1.09.54-1.37.49C130.56,64.22,130.64,64.8,130.11,64.62Z"/><path class="cls-11" d="M128.82,56.73A16,16,0,0,1,126,58.56a33.42,33.42,0,0,1-3.08,1.4,5.22,5.22,0,0,1,1.22-1.26,9.68,9.68,0,0,1,1.46-.92A9.23,9.23,0,0,1,128.82,56.73Z"/><path class="cls-11" d="M134.47,60.21a9.57,9.57,0,0,1-2.65,2.19,9.69,9.69,0,0,1-1.56.74,5.48,5.48,0,0,1-1.71.35,32.63,32.63,0,0,1,2.83-1.85A16.46,16.46,0,0,1,134.47,60.21Z"/><path class="cls-11" d="M128.52,62.05a9.59,9.59,0,0,1-3.19,1.28,10.81,10.81,0,0,1-1.71.22,5.71,5.71,0,0,1-1.74-.19,30,30,0,0,1,3.26-.89A16.28,16.28,0,0,1,128.52,62.05Z"/><path class="cls-11" d="M127.41,60.21a15.78,15.78,0,0,1,2.91-1.78c1-.49,2-.93,3.1-1.34a4.83,4.83,0,0,1-1.24,1.23,8.91,8.91,0,0,1-1.47.9A9.57,9.57,0,0,1,127.41,60.21Z"/><path class="cls-12" d="M62.78,78.5c-5.57.54-9.46-3.3-15.52-3.8s-5.7,12.35,5.37,10.74S62.78,78.5,62.78,78.5Z"/><path class="cls-12" d="M69.28,108.41s-4.35,10-7.36,11.67-10.05-7.38-19.21-6.43c2.7-3,3-7.66,3-7.66Z"/><path class="cls-12" d="M102.56,70S89.82,59.28,75.69,60c5.25,7.34,3.82,13.79,3.82,13.79l6.85,2.74Z"/><path class="cls-12" d="M93.79,109.61s-4.13,6.31-9.22,7.6c1.07-3.18-.92-7-.92-7l3.67-1.16Z"/><path class="cls-12" d="M38.48,88.37C31.6,91.92,5.31,82.24,0,77.27c5.19,5.61,14.27,14.58,15.24,22S10.16,123.24,6.6,130c3.84-6.18,26.73-25,34.29-23.33l-7.31-8.35Z"/><path class="cls-13" d="M157.93,82.88,163,79.21c-9-8.79-36-12.58-66.93-8.5-27.32,3.6-54.92,14.9-69.36,24.08a4.87,4.87,0,0,0,1.15,8.77c16.34,5.13,45.91,8.9,73.23,5.3,33-4.35,59.39-16.19,63.49-27.73Z"/><path class="cls-14" d="M157.93,82.88,163,79.21c-5-4.86-15.46-8.2-29.08-9.51-5.34,4.61-8.23,10.17-7.49,15.76.79,6.05,5.7,11,13,14,13.57-5.29,22.89-11.86,25.19-18.34Z"/><path class="cls-15" d="M137.21,79.34a2.46,2.46,0,0,1-2.42-2.14,2.4,2.4,0,0,1,.48-1.81,2.47,2.47,0,0,1,1.63-.94l.32,0a2.46,2.46,0,0,1,.32,4.89Z"/><path class="cls-16" d="M137.22,74.54a2.34,2.34,0,0,1,.3,4.67l-.3,0a2.35,2.35,0,0,1-.31-4.67l.31,0m0-.22-.34,0a2.57,2.57,0,0,0,.34,5.11l.33,0a2.57,2.57,0,0,0-.33-5.11Z"/><path class="cls-12" d="M113,98.9s.66-6.72,4.38-7.82c-7.5-.71-16.78-.2-22.76,4.78C102.06,96.05,113,98.9,113,98.9Z"/><path class="cls-17" d="M157.93,82.88,163,79.21a20.76,20.76,0,0,0-4.35-3.15c.14.18.27.36.39.53C155,88.15,128.62,100,95.55,104.36c-26.14,3.45-54.33.15-71-4.63a4.8,4.8,0,0,0,3.35,3.83c16.34,5.13,45.91,8.9,73.23,5.3,33-4.35,59.39-16.19,63.49-27.73Z"/><path class="cls-18" d="M108.6,50.21c-6.3,0-6.1,4.8-6.4,12.36s12.51,17.67,25.72,11.11,3.81-14.51-1.55-9.46c-1.53,1.45-12.16,0-12-6.15S113.41,50.62,108.6,50.21Z"/><path class="cls-18" d="M108.6,50.21c-6.3,0-6.1,4.8-6.4,12.36s12.51,17.67,25.72,11.11,3.81-14.51-1.55-9.46c-1.53,1.45-12.16,0-12-6.15S113.41,50.62,108.6,50.21Z"/><g class="cls-19"><path class="cls-18" d="M114.25,54.67v0a5.67,5.67,0,0,0,.09,1.11C114.32,55.39,114.29,55,114.25,54.67Z"/><path class="cls-18" d="M128.42,71c-11.86,5.88-23.41-1.09-26.23-8.17,0,7.52,12.67,17.33,25.73,10.84,5.27-2.61,6.94-5.45,6.71-7.59C133.64,67.67,131.7,69.38,128.42,71Z"/></g><ellipse class="cls-20" cx="119.57" cy="105.44" rx="3.95" ry="2.78"/><path class="cls-21" d="M119.57,107.15c-1.92,0-3.52-1-3.88-2.25a2,2,0,0,0-.07.54c0,1.54,1.77,2.79,3.95,2.79s4-1.25,4-2.79a2,2,0,0,0-.08-.54C123.08,106.18,121.49,107.15,119.57,107.15Z"/><ellipse class="cls-20" cx="126.25" cy="107.69" rx="3.95" ry="2.78"/><path class="cls-21" d="M126.25,109.39c-1.92,0-3.52-1-3.88-2.25a2,2,0,0,0-.07.55c0,1.54,1.76,2.78,4,2.78s3.95-1.24,3.95-2.78a2,2,0,0,0-.08-.55C129.76,108.42,128.16,109.39,126.25,109.39Z"/><ellipse class="cls-20" cx="113.62" cy="108.23" rx="3.95" ry="2.78"/><path class="cls-21" d="M113.62,109.93c-1.92,0-3.52-1-3.87-2.24a1.91,1.91,0,0,0-.08.54c0,1.54,1.77,2.78,4,2.78s3.95-1.24,3.95-2.78a1.91,1.91,0,0,0-.08-.54C117.13,109,115.54,109.93,113.62,109.93Z"/><ellipse class="cls-20" cx="120.73" cy="109.87" rx="3.95" ry="2.78"/><path class="cls-21" d="M120.73,111.57c-1.92,0-3.52-1-3.88-2.24a1.9,1.9,0,0,0-.07.54c0,1.54,1.76,2.78,4,2.78s4-1.24,4-2.78a1.91,1.91,0,0,0-.08-.54C124.24,110.6,122.65,111.57,120.73,111.57Z"/><ellipse class="cls-20" cx="114.9" cy="112.65" rx="3.95" ry="2.78"/><path class="cls-21" d="M114.9,114.35c-1.92,0-3.52-1-3.88-2.24a2,2,0,0,0-.08.54c0,1.54,1.77,2.79,4,2.79s3.95-1.25,3.95-2.79a2,2,0,0,0-.08-.54C118.41,113.39,116.81,114.35,114.9,114.35Z"/></g></g></svg>