<svg xmlns="http://www.w3.org/2000/svg" viewBox="0 0 224.21 224.58"><defs><style>.cls-1{isolation:isolate;}.cls-2{fill:#fecc08;}.cls-3{fill:#00a99d;}.cls-4{fill:#079b49;}.cls-5{fill:#e6e6e5;}.cls-5,.cls-9{mix-blend-mode:multiply;}.cls-6{fill:#fff;}.cls-7,.cls-9{fill:#b21f24;}.cls-8{fill:#f3f3f3;opacity:0.5;}</style></defs><title>Artboard 2</title><g class="cls-1"><g id="Layer_1" data-name="Layer 1"><path class="cls-2" d="M112.12,112.09,12.23,61.24A108.76,108.76,0,0,1,38.55,27.52Z"/><path class="cls-3" d="M112.12,112.09,73.82,217.43a112.08,112.08,0,0,1-67-143.64,102.54,102.54,0,0,1,5.45-12.55Z"/><path class="cls-4" d="M112.12,112.09,38.55,27.52A112.09,112.09,0,0,1,185.69,196.66c-31.76,27.63-72.31,35.16-111.87,20.77Z"/><circle class="cls-5" cx="112.11" cy="112.29" r="89.58"/><circle class="cls-6" cx="112.11" cy="112.29" r="83.67"/><path class="cls-7" d="M132.51,90.13c-18.37-19.85-20.41-40.8-20.41-47.36,0,6.56-2,27.51-20.4,47.36-13.4,14.48-17.26,30.46-17.26,41s6.93,38.77,37.66,38.77,37.67-28.24,37.67-38.77S145.91,104.61,132.51,90.13Z"/><path class="cls-8" d="M130.33,108.48c6.95,4.3,9,15.08,6.87,17.15-.72.7-.08-2.2-11.41-9.2-11.6-7.17-14.18-5.49-13.87-6.44C112.83,107.19,123.38,104.18,130.33,108.48Z"/><path class="cls-9" d="M80.69,128.68c0,.18,0,.37,0,.54,0,9.2,6.06,33.9,32.93,33.9,19.5,0,11.91-11.79,4.06-8.47C111.42,157.29,91.67,154.19,80.69,128.68Z"/></g></g></svg>