<svg xmlns="http://www.w3.org/2000/svg" viewBox="0 0 137.58 101.4"><defs><style>.cls-1{isolation:isolate;}.cls-2{fill:#b5b8ba;}.cls-3{fill:#dbdcdc;}.cls-4{fill:#fff;}.cls-5{fill:#8f9397;}.cls-6{fill:#676767;}.cls-7{fill:#079b49;}.cls-10,.cls-8{fill:#bbb3d8;}.cls-10,.cls-9{mix-blend-mode:multiply;}</style></defs><title>Artboard 2</title><g class="cls-1"><g id="Layer_1" data-name="Layer 1"><rect class="cls-2" y="4.11" width="52.23" height="50.14"/><rect class="cls-3" x="1.5" y="5.61" width="52.23" height="50.14"/><rect class="cls-4" x="4.77" y="17.38" width="4.93" height="4.74"/><rect class="cls-4" x="11.58" y="17.38" width="4.93" height="4.74"/><rect class="cls-4" x="18.39" y="17.38" width="4.93" height="4.74"/><rect class="cls-4" x="25.2" y="17.38" width="4.93" height="4.74"/><rect class="cls-4" x="32" y="17.38" width="4.93" height="4.74"/><rect class="cls-4" x="38.81" y="17.38" width="4.93" height="4.74"/><rect class="cls-4" x="45.62" y="17.38" width="4.93" height="4.74"/><rect class="cls-4" x="4.77" y="24.98" width="4.93" height="4.74"/><rect class="cls-4" x="11.58" y="24.98" width="4.93" height="4.74"/><rect class="cls-4" x="18.39" y="24.98" width="4.93" height="4.74"/><rect class="cls-4" x="25.2" y="24.98" width="4.93" height="4.74"/><rect class="cls-4" x="32" y="24.98" width="4.93" height="4.74"/><rect class="cls-4" x="38.81" y="24.98" width="4.93" height="4.74"/><rect class="cls-4" x="45.62" y="24.98" width="4.93" height="4.74"/><rect class="cls-4" x="4.77" y="32.58" width="4.93" height="4.74"/><rect class="cls-4" x="11.58" y="32.58" width="4.93" height="4.74"/><rect class="cls-4" x="18.39" y="32.58" width="4.93" height="4.74"/><rect class="cls-4" x="25.2" y="32.58" width="4.93" height="4.74"/><rect class="cls-4" x="32" y="32.58" width="4.93" height="4.74"/><rect class="cls-4" x="38.81" y="32.58" width="4.93" height="4.74"/><rect class="cls-4" x="45.62" y="32.58" width="4.93" height="4.74"/><rect class="cls-4" x="4.77" y="40.18" width="4.93" height="4.74"/><rect class="cls-4" x="11.58" y="40.18" width="4.93" height="4.74"/><rect class="cls-4" x="18.39" y="40.18" width="4.93" height="4.74"/><rect class="cls-4" x="25.2" y="40.18" width="4.93" height="4.74"/><rect class="cls-4" x="32" y="40.18" width="4.93" height="4.74"/><rect class="cls-4" x="38.81" y="40.18" width="4.93" height="4.74"/><rect class="cls-4" x="45.62" y="40.18" width="4.93" height="4.74"/><rect class="cls-4" x="4.77" y="47.77" width="4.93" height="4.74"/><rect class="cls-4" x="11.58" y="47.77" width="4.93" height="4.74"/><rect class="cls-4" x="18.39" y="47.77" width="4.93" height="4.74"/><rect class="cls-5" x="1.5" y="4.11" width="52.23" height="10.03"/><rect class="cls-6" x="9.95" width="3.31" height="9.13" rx="1.66"/><rect class="cls-6" x="43.06" width="3.31" height="9.13" rx="1.66"/><path class="cls-7" d="M5.07,17.67A7.92,7.92,0,0,1,7.5,19.39a7.92,7.92,0,0,1,1.72,2.43A8,8,0,0,1,6.79,20.1,8.22,8.22,0,0,1,5.07,17.67Z"/><path class="cls-7" d="M9.22,17.67A8,8,0,0,1,7.5,20.1a7.92,7.92,0,0,1-2.43,1.72,7.92,7.92,0,0,1,1.72-2.43A8,8,0,0,1,9.22,17.67Z"/><path class="cls-7" d="M11.9,17.67a8,8,0,0,1,2.43,1.72,7.92,7.92,0,0,1,1.72,2.43,7.92,7.92,0,0,1-2.43-1.72A8,8,0,0,1,11.9,17.67Z"/><path class="cls-7" d="M16.05,17.67a8.22,8.22,0,0,1-1.72,2.43,8,8,0,0,1-2.43,1.72,7.92,7.92,0,0,1,1.72-2.43A7.92,7.92,0,0,1,16.05,17.67Z"/><path class="cls-7" d="M18.72,17.67a7.92,7.92,0,0,1,2.43,1.72,7.92,7.92,0,0,1,1.72,2.43,7.92,7.92,0,0,1-2.43-1.72A8,8,0,0,1,18.72,17.67Z"/><path class="cls-7" d="M22.87,17.67a8,8,0,0,1-1.72,2.43,7.92,7.92,0,0,1-2.43,1.72,7.92,7.92,0,0,1,1.72-2.43A8,8,0,0,1,22.87,17.67Z"/><path class="cls-7" d="M25.54,17.67A7.92,7.92,0,0,1,28,19.39a8.12,8.12,0,0,1,1.73,2.43,7.8,7.8,0,0,1-2.43-1.72A8.25,8.25,0,0,1,25.54,17.67Z"/><path class="cls-7" d="M29.7,17.67A8.25,8.25,0,0,1,28,20.1a7.8,7.8,0,0,1-2.43,1.72,7.78,7.78,0,0,1,1.73-2.43A7.8,7.8,0,0,1,29.7,17.67Z"/><path class="cls-7" d="M32.37,17.67a8,8,0,0,1,2.43,1.72,7.92,7.92,0,0,1,1.72,2.43,7.92,7.92,0,0,1-2.43-1.72A8,8,0,0,1,32.37,17.67Z"/><path class="cls-7" d="M36.52,17.67A8,8,0,0,1,34.8,20.1a8,8,0,0,1-2.43,1.72,8.83,8.83,0,0,1,4.15-4.15Z"/><path class="cls-7" d="M39.19,17.67a8.83,8.83,0,0,1,4.15,4.15,8,8,0,0,1-2.43-1.72A8,8,0,0,1,39.19,17.67Z"/><path class="cls-7" d="M43.34,17.67a8,8,0,0,1-1.72,2.43,7.92,7.92,0,0,1-2.43,1.72,7.92,7.92,0,0,1,1.72-2.43A8,8,0,0,1,43.34,17.67Z"/><path class="cls-7" d="M46,17.67a7.8,7.8,0,0,1,2.43,1.72,8,8,0,0,1,1.73,2.43,7.8,7.8,0,0,1-2.43-1.72A8.25,8.25,0,0,1,46,17.67Z"/><path class="cls-7" d="M50.17,17.67a8.25,8.25,0,0,1-1.73,2.43A7.8,7.8,0,0,1,46,21.82a8.12,8.12,0,0,1,1.73-2.43A7.92,7.92,0,0,1,50.17,17.67Z"/><path class="cls-8" d="M48,91.24c-.06-.1-1.41-2.63-4-11.37-2-6.71,1.67-10.49,4.59-13.52a21.52,21.52,0,0,0,2.6-3.06c.86-1.36.81-1.68.78-1.74s-.09-.07-.33-.07a16.19,16.19,0,0,0-3.15.69c-1.42.38-3.18.86-5.27,1.28-3.44.69-7.4,2.91-10.58,4.7-2.71,1.52-4.86,2.72-6.09,2.72A1.09,1.09,0,0,1,25.43,70c-.7-3.12,6.24-6.38,11.82-9l.57-.27c1.17-.55,2.24-1,3.23-1.43,3.51-1.51,6-2.6,9.13-6,.78-.87,1.11-1.61,1-2.19-.26-1.08-2.09-1.78-3.87-2.46a12.19,12.19,0,0,1-3.88-2c-1.58-1.49-5.37-1.8-7.4-2-1.44-.12-1.74-.14-1.79-.5s.28-.42.4-.47.51-.21.87-.37a19,19,0,0,1,7.68-2,10.61,10.61,0,0,1,3.67.64l1,.37c2.93,1.1,5.24,2,7,2a3.37,3.37,0,0,0,2.31-.78c1-.82,1-2.38,1.11-4.74A41,41,0,0,1,59.87,28c1.09-3.67,2.31-5.52,3.63-5.52,1.5,0,2.53,2.36,2.75,4.58.14,1.46-.48,4.4-1.08,7.24s-1.35,6.37-.89,6.93h0a.78.78,0,0,0,.36-.17C67.55,39,68.22,38.32,72,30.71l.4-.8c1.24-2.51,1.86-3.77,6.09-7.57a1.33,1.33,0,0,1,.82-.44.49.49,0,0,1,.42.24c.9,1.4-4.7,14-6.7,18.35a3.08,3.08,0,0,0,.61.06c3.13,0,8-4,11.31-6.67,2.24-1.82,3.34-2.7,3.92-2.7a.53.53,0,0,1,.37.14.63.63,0,0,1,.15.44c-.06,2.3-7.63,9-8.49,9.72a3.35,3.35,0,0,0-.55.79,5.56,5.56,0,0,0,1.73-.59c2.83-1.3,12.23-5.54,14.61-5.66h0c.46,0,.55.27.56.35.29,1.44-11.77,9.72-18,12.36l2.15-.46a58.84,58.84,0,0,1,9.4-1.57c.87,0,1.39.14,1.64.44a.67.67,0,0,1,.15.58c-.23,1.34-3.14,2.4-7.56,3.87-2.76.92-6.19,2.06-6.4,2.9,0,0,0,.13.12.29.79.83,2.67,1.29,5.3,1.29A25.59,25.59,0,0,0,91.56,55a19.94,19.94,0,0,0,3.13-1.69,7.33,7.33,0,0,1,2.91-1.37.77.77,0,0,1,.72.4c.26.48-.23,1.5-.69,2.27-1.69,2.83-6.56,8.19-12.92,8.19a11.08,11.08,0,0,1-1.9-.16A30.46,30.46,0,0,0,78,62.14c-2.08,0-2.71.44-2.91.7a.48.48,0,0,0-.1.37l0,.08,0,.09a45.18,45.18,0,0,1-4,9.36c-2.53,4.63-2.3,5.91-1.68,9.32.1.56.22,1.19.33,1.89.33,2.08.13,3.68-.57,4.51A1.45,1.45,0,0,1,68,89a2,2,0,0,1-1.64-1.18l-.39-.7a24.78,24.78,0,0,1-3.34-9.28,33.22,33.22,0,0,0-1.87-7.45l-2.62,2.27h-.09s-5.14.69-7.56,3.92A6.81,6.81,0,0,0,49.34,82c1.37,8.36-.71,9.35-1,9.43l-.25.09Z"/><path class="cls-4" d="M79.32,22.21c1.76,0-6.7,18.48-6.7,18.48a3,3,0,0,0,1,.17c5,0,13.79-9.37,15.22-9.37.14,0,.21.08.2.26,0,2.23-8.38,9.5-8.38,9.5s-1.23,1.34-.36,1.34A5.47,5.47,0,0,0,82.23,42c3.79-1.74,12.34-5.52,14.5-5.63h0c2,0-10.48,9.11-17.63,12.13-1.42.6-1.75.83-1.36.83C79,49.29,87.39,47,90.85,47c1,0,1.57.18,1.49.65-.46,2.65-16,5.05-13.77,7.34,1,1,3.17,1.38,5.53,1.38a25.77,25.77,0,0,0,7.57-1.1c2.22-.83,4.81-3,5.93-3a.48.48,0,0,1,.45.24c.55,1-5.24,10-13.34,10a11.6,11.6,0,0,1-1.84-.15,29.86,29.86,0,0,0-4.86-.5c-3.82,0-3.29,1.48-3.29,1.48a44.55,44.55,0,0,1-4,9.28c-3,5.5-2.17,6.46-1.38,11.41.53,3.29-.39,4.69-1.37,4.69a1.67,1.67,0,0,1-1.37-1,26.13,26.13,0,0,1-3.69-9.87,31.09,31.09,0,0,0-2.06-7.93L58,72.37S47.66,73.67,49,82s-.75,9.09-.75,9.09-1.36-2.51-3.93-11.31S49,67.49,51.51,63.45c1.07-1.7,1.08-2.28.18-2.28-1.24,0-4.19,1.11-8.48,2-6.28,1.27-14,7.42-16.61,7.42a.77.77,0,0,1-.86-.64c-.67-3,6.93-6.42,12.21-8.91s8.44-3.07,12.46-7.5-4.2-4.62-6.8-7.08S33.15,44.61,34.72,44c1.21-.45,4.6-2.37,8.44-2.36a10,10,0,0,1,3.56.62c3.45,1.28,6.07,2.35,8.07,2.35a3.65,3.65,0,0,0,2.52-.87c2.16-1.85.17-6.67,2.86-15.69,1.16-3.92,2.34-5.29,3.33-5.29,1.28,0,2.25,2.3,2.44,4.3.32,3.28-3.38,14.47-1.63,14.47a1,1,0,0,0,.55-.24c2.94-2.14,3.66-2.89,7.44-10.45,1.55-3.08,1.8-4.13,6.42-8.28a1.17,1.17,0,0,1,.6-.36m0-.62a1.58,1.58,0,0,0-1,.52C74,26,73.39,27.23,72.14,29.77c-.12.25-.25.52-.4.8C68,38.11,67.32,38.74,64.49,40.8h0c-.15-1,.54-4.25,1-6.47.63-3,1.23-5.82,1.08-7.33-.23-2.36-1.38-4.86-3.06-4.86-1.5,0-2.78,1.87-3.93,5.74a41.25,41.25,0,0,0-1.66,10.88c-.1,2.28-.16,3.78-1,4.51a3.06,3.06,0,0,1-2.12.71c-1.69,0-4-.86-6.88-1.94l-1-.37A10.77,10.77,0,0,0,43.16,41a19.45,19.45,0,0,0-7.81,2c-.35.16-.63.29-.85.37-.56.21-.64.56-.6.81.08.6.55.64,2.07.76,2,.16,5.71.46,7.21,1.88a12.49,12.49,0,0,0,4,2.06c1.7.65,3.46,1.32,3.68,2.24.11.48-.19,1.12-.91,1.91-3,3.35-5.54,4.43-9,5.92-1,.43-2.06.88-3.23,1.44l-.58.27c-7.22,3.38-12.68,6.22-12,9.33a1.39,1.39,0,0,0,1.47,1.13c1.32,0,3.49-1.22,6.24-2.76,3.17-1.78,7.1-4,10.49-4.67,2.1-.42,3.87-.9,5.29-1.28a16.58,16.58,0,0,1,3.06-.68,6,6,0,0,1-.7,1.33,20.34,20.34,0,0,1-2.57,3c-3,3.1-6.67,7-4.66,13.83,2.56,8.77,3.92,11.33,4,11.43l.26.47.5-.18c.43-.15,2.54-1.34,1.16-9.77a6.48,6.48,0,0,1,1.09-5.12C53.08,73.65,58,73,58.09,73l.19,0,.14-.12,2.21-1.92a33.3,33.3,0,0,1,1.69,7,25,25,0,0,0,3.38,9.38l.39.7A2.27,2.27,0,0,0,68,89.32a1.78,1.78,0,0,0,1.34-.66c.54-.63,1.09-2,.65-4.76-.12-.71-.23-1.33-.33-1.9-.61-3.33-.84-4.58,1.64-9.11a44.06,44.06,0,0,0,4-9.43l.06-.24-.07-.11s0,0,.07-.1.63-.55,2.63-.55a29.73,29.73,0,0,1,4.75.48,11.67,11.67,0,0,0,1.95.17c6.5,0,11.47-5.46,13.19-8.35,1.09-1.84.8-2.37.69-2.57a1.08,1.08,0,0,0-1-.58h0A7.45,7.45,0,0,0,94.52,53a20,20,0,0,1-3.07,1.65,25.24,25.24,0,0,1-7.35,1.06c-2.54,0-4.34-.42-5.08-1.18l0,0c.31-.7,4-1.91,6.18-2.64,4.64-1.55,7.5-2.57,7.77-4.12a1,1,0,0,0-.22-.84,2.38,2.38,0,0,0-1.88-.54h0a55.12,55.12,0,0,0-9,1.47A85.84,85.84,0,0,0,91,42.29c6.84-4.74,6.67-5.61,6.59-6a.77.77,0,0,0-.82-.6H96.7c-2.44.12-11.89,4.38-14.73,5.68-.37.17-.65.29-.88.38l.06-.07c1.49-1.3,8.51-7.56,8.57-9.93a.87.87,0,0,0-.24-.66.79.79,0,0,0-.59-.24c-.69,0-1.7.8-4.12,2.77-3.22,2.62-8.09,6.59-11.1,6.59h-.16c.64-1.4,2.09-4.65,3.46-8,3.79-9.15,3.32-9.87,3-10.3a.82.82,0,0,0-.69-.38h0Z"/><g class="cls-9"><path class="cls-8" d="M67.66,85.71a23.77,23.77,0,0,1-3.44-9.27A28.64,28.64,0,0,0,62.32,69l-.88.75a31,31,0,0,1,1.61,6.75,23.8,23.8,0,0,0,3.45,9.28c.48.87,1.27,1.17,1.89.73A1.91,1.91,0,0,1,67.66,85.71Z"/><path class="cls-8" d="M88.91,47.88c-2.62-.1-9.08,1.57-11.8,2.11C76.26,50.66,84.7,48.25,88.91,47.88Z"/><path class="cls-8" d="M74.1,41.61c4,.48,11.27-6.46,14.15-8.44,0-.08,0-.17,0-.24C88.36,31.05,79.45,40.71,74.1,41.61Z"/><path class="cls-8" d="M80.28,61.3a10.79,10.79,0,0,0,2.53.07,13.06,13.06,0,0,1-1.37-.11,22.81,22.81,0,0,0-5.64-.37A29.77,29.77,0,0,1,80.28,61.3Z"/><path class="cls-8" d="M90.8,56.42a24.29,24.29,0,0,1-6,1.07A25.47,25.47,0,0,0,92,56.38c1.72-.65,3.69-2.15,5-2.71C96.26,52.81,93.28,55.49,90.8,56.42Z"/><path class="cls-8" d="M82,42.94c3.24-1.49,10.08-4.52,13-5.28,0-.09-.06-.14-.22-.13-2.07.12-10.32,3.77-14,5.45-.38.18-.68.3-.95.4C79.94,43.64,80.42,43.67,82,42.94Z"/><path class="cls-8" d="M48.83,87.7a84.45,84.45,0,0,1-2.41-9.4c-1.7-8,5-10.7,7.64-14.15,1.36-1.81,1.1-2.17-.43-2,.41.19.23.75-.67,1.94-2.59,3.45-9.34,6.15-7.64,14.15s2.75,10.31,2.75,10.31S48.45,88.46,48.83,87.7Z"/><path class="cls-8" d="M72.34,31.74c-3.59,6.94-4.36,7.83-7,9.74.12.42.4.51.91.14,2.85-2,3.55-2.76,7.26-9.93,1.47-2.83,1.76-3.86,5.87-7.54.07-.68-.15-.86-.79-.29C74.11,27.82,73.86,28.82,72.34,31.74Z"/><path class="cls-8" d="M57.72,43.93a3.45,3.45,0,0,1-1.73.78,3.84,3.84,0,0,0,2.89-.82c2.08-1.77.23-6.3,2.9-14.83.91-2.94,1.82-4.37,2.63-4.84-1-.55-2.4.43-3.8,4.89C58,37.64,59.8,42.16,57.72,43.93Z"/><path class="cls-8" d="M38.54,43.42a9.07,9.07,0,0,1,5.21.8c.82.38,1.58.8,2.36,1.24s1.51.91,2.26,1.3,1.56.74,2.34,1.05,1.6.47,2.53.83a2.5,2.5,0,0,1,.73.46,1.66,1.66,0,0,1,.48.89,3.47,3.47,0,0,1-.17,1.59A7.3,7.3,0,0,1,52.79,54a22.85,22.85,0,0,1-4.08,3.54,13,13,0,0,1-1.17.73c-.46.22-.83.36-1.24.55l-2.41,1c-1.59.72-3.18,1.44-4.75,2.22a32.57,32.57,0,0,0-4.55,2.6,25.09,25.09,0,0,1,4.25-3.14c1.51-.92,3.06-1.77,4.63-2.57q1.17-.6,2.37-1.17c.38-.18.83-.38,1.15-.55s.69-.44,1-.69a22.86,22.86,0,0,0,3.81-3.39,6.27,6.27,0,0,0,1.26-2,2.63,2.63,0,0,0,.15-1c0-.2-.16-.3-.5-.49-.7-.3-1.62-.54-2.45-.9a18.09,18.09,0,0,1-2.41-1.21c-1.54-.95-2.9-2-4.42-2.85A9.42,9.42,0,0,0,38.54,43.42Z"/></g><circle class="cls-10" cx="68.35" cy="51.58" r="0.83"/><circle class="cls-10" cx="64.63" cy="56.92" r="0.83"/><circle class="cls-10" cx="66.89" cy="54.19" r="1.73"/><circle class="cls-10" cx="67.16" cy="58.01" r="1.3"/><circle class="cls-10" cx="64.5" cy="50.73" r="1.3"/><path class="cls-8" d="M113.43,63.32c-.08-.13,0-.26.35-.92.54-1,1.55-2.82,1.34-4a6.86,6.86,0,0,1,.25-2.39c.22-1,.45-2,.08-2.48a1,1,0,0,0-.83-.3c-.15,0-.32,0-.51,0a12.17,12.17,0,0,0-5.52,2.39c-.49.32-1,.68-1.63,1.05l-.29.18c-2.25,1.37-5,3.09-6.68,3.09a1.4,1.4,0,0,1-1-.38.58.58,0,0,1-.17-.51c.11-.66,1.41-1.33,3.22-2.27a22.44,22.44,0,0,0,5.36-3.44c.82-.83,1.57-1.5,2.18-2s1.4-1.25,1.34-1.41-.09-.16-1-.18h0a13,13,0,0,0-2.19.27,14.67,14.67,0,0,1-2.76.34A6,6,0,0,1,100,48.05a37.94,37.94,0,0,1-4-5.25l-.07-.13.12-.09a.71.71,0,0,1,.46-.12c.65,0,1.9.44,4.16,2.53a3.77,3.77,0,0,0,2.6,1.1c2.31,0,4.28-2.28,4.3-2.3l1.87-.55a18.08,18.08,0,0,0-2.86-3.12,13.63,13.63,0,0,1-3.26-4.34l-.2-.39a1.08,1.08,0,0,1-.06-1.08.81.81,0,0,1,.75-.38,3.35,3.35,0,0,1,2.1,1.11c.29.26.54.5.77.72,1.38,1.32,1.9,1.81,4.79,2.05a24.63,24.63,0,0,1,5.51,1,.39.39,0,0,0,.25.12c.28,0,1.07-.33,2.45-3.47,1.52-3.47,5.64-4.39,7.84-4.39.52,0,1.41.05,1.58.37a.39.39,0,0,1,0,.33c-.12.37-.76.67-1.57,1.05a10.82,10.82,0,0,0-1.72.93c-1.31.95-4.13,4.35-3.77,5.93,0,.12.09.15.18.15.56,0,1.9-1,3.19-2.07,1.54-1.22,3-2.36,3.8-2.36a.59.59,0,0,1,.27,0,.36.36,0,0,1,.23.29c.13.71-1.6,2.46-3.87,4.69-.3.29-.61.59-.86.85,3.06-2,9.56-4.62,10.82-4.62a.36.36,0,0,1,.34.15.29.29,0,0,1-.05.31c-.8,1.08-6,4.35-7,5a2.73,2.73,0,0,0-.8.62h.18a3,3,0,0,0,.37,0,32.24,32.24,0,0,1,6-1.14,1.93,1.93,0,0,1,1,.18A.32.32,0,0,1,136,42c0,.33-.67.54-2.48,1.11-2.41.76-6,1.89-6.64,3.48,4,.62,10.44,1.74,10.49,2.57,0,.28-.36.37-.5.41a14.77,14.77,0,0,1-3.72.64,13.23,13.23,0,0,1-1.6-.13l-.49-.06a37.91,37.91,0,0,0-4.09-.35,7.05,7.05,0,0,0-2.88.6c-.17.06-.2.12-.2.12,0,.35,2.08,1.16,3.46,1.7A18.3,18.3,0,0,1,131,53.82c.87.7,1.61,1.78,1.36,2.49-.14.41-.58.62-1.29.62a9,9,0,0,1-2.43-.45A22.51,22.51,0,0,1,123.22,54,5.09,5.09,0,0,0,121,53a1.24,1.24,0,0,0-.33,0c-1.3.38-1.69,2.07-2.27,4.64l-.12.56c-.6,2.59-2.94,4.08-4.07,4.8l-.43.28a.33.33,0,0,1-.21.09h-.1Z"/><path class="cls-4" d="M127.53,31.23c.8,0,1.35.12,1.43.28.33.61-2,1.18-3.21,2.09s-4.22,4.41-3.83,6.1a.32.32,0,0,0,.34.29c1.28,0,5.54-4.43,7-4.43a.45.45,0,0,1,.2,0c1.17.51-5.62,6.29-5.16,6.29a3.23,3.23,0,0,0,.8-.46c3.1-2.08,9.57-4.61,10.75-4.61.18,0,.24.06.15.18-.7,1-5,3.75-7,5-1.3.82-.93.95-.53.95a3.09,3.09,0,0,0,.4,0,32.67,32.67,0,0,1,6-1.14,1.79,1.79,0,0,1,.88.16c1,.65-8.38,2-9.1,4.87,0,0,12.85,2,10.18,2.67a14.38,14.38,0,0,1-3.68.64,16.91,16.91,0,0,1-2.07-.19,39.21,39.21,0,0,0-4.11-.35,7.16,7.16,0,0,0-2.94.61c-1.88.71,5.34,2.58,6.87,3.81,1.2,1,2.22,2.8.17,2.8a8.55,8.55,0,0,1-2.38-.45c-4.55-1.37-6.29-3.48-7.7-3.48a1.14,1.14,0,0,0-.37.05c-1.5.43-1.85,2.37-2.52,5.32s-3.69,4.44-4.43,5l-.11.05c-.27,0,2-3.07,1.68-4.87s1.78-5.31-.66-5.31a3.4,3.4,0,0,0-.53,0c-3.26.51-4.48,1.78-7.22,3.46-2.23,1.37-5.22,3.25-6.88,3.25a1.2,1.2,0,0,1-.91-.33c-1.17-1.2,5.48-3,8.4-6s5-3.86,2.37-3.91h-.09c-1.39,0-3.1.61-4.88.61a5.86,5.86,0,0,1-4.71-2.26,38.54,38.54,0,0,1-4-5.23.67.67,0,0,1,.36-.07c.53,0,1.73.34,4,2.48a3.92,3.92,0,0,0,2.71,1.14c2.42,0,4.43-2.36,4.43-2.36l2-.56a17.2,17.2,0,0,0-3-3.35,14.28,14.28,0,0,1-3.42-4.68c-.34-.63-.11-1.21.54-1.21a3.26,3.26,0,0,1,2,1.07c2,1.86,2.22,2.53,5.67,2.81a24.32,24.32,0,0,1,5.46,1,.39.39,0,0,0,.31.14c.42,0,1.26-.52,2.61-3.59,1.48-3.38,5.51-4.28,7.68-4.28m0-.34c-2.24,0-6.44.94-8,4.49-1.44,3.28-2.21,3.37-2.29,3.37h0l-.06-.08-.09,0a24.23,24.23,0,0,0-5.55-1c-2.83-.23-3.33-.72-4.68-2l-.78-.73a3.63,3.63,0,0,0-2.21-1.15,1,1,0,0,0-.9.46,1.28,1.28,0,0,0,.06,1.25l.2.39a13.76,13.76,0,0,0,3.3,4.39,18.09,18.09,0,0,1,2.69,2.89l-1.55.43-.1,0-.07.08s-1.94,2.24-4.17,2.24a3.61,3.61,0,0,1-2.48-1.06c-2.31-2.12-3.6-2.57-4.28-2.57a1,1,0,0,0-.57.15l-.23.18.14.26a38.75,38.75,0,0,0,4,5.28,6.13,6.13,0,0,0,5,2.38,14.89,14.89,0,0,0,2.8-.34,12,12,0,0,1,2.08-.27h.08a3.65,3.65,0,0,1,.83.08,9.85,9.85,0,0,1-1.25,1.21c-.6.53-1.36,1.2-2.18,2a22.51,22.51,0,0,1-5.32,3.41c-2.1,1.08-3.19,1.68-3.31,2.4a.73.73,0,0,0,.22.65,1.52,1.52,0,0,0,1.16.43c1.68,0,4.5-1.73,6.76-3.11l.3-.19c.61-.37,1.13-.72,1.64-1.05a12.07,12.07,0,0,1,5.45-2.36,4.43,4.43,0,0,1,.48,0,.85.85,0,0,1,.69.23c.32.4.1,1.39-.11,2.34a7,7,0,0,0-.25,2.46c.2,1.12-.79,2.92-1.32,3.88-.39.71-.48.88-.35,1.1l.1.17h.22a.58.58,0,0,0,.31-.13l.42-.28c1.15-.72,3.53-2.24,4.14-4.91l.13-.55c.57-2.51.94-4.16,2.15-4.51a.86.86,0,0,1,.28,0,5.12,5.12,0,0,1,2.1.94,22.7,22.7,0,0,0,5.5,2.53,9,9,0,0,0,2.48.46c1,0,1.34-.4,1.45-.74.31-.87-.67-2.07-1.41-2.67a18.25,18.25,0,0,0-3.7-1.72,18.19,18.19,0,0,1-3.28-1.49h0a6.77,6.77,0,0,1,2.82-.59,37.47,37.47,0,0,1,4.07.35l.49.06a13.39,13.39,0,0,0,1.62.13,15.15,15.15,0,0,0,3.77-.64c.16,0,.64-.17.62-.59s-.06-1.08-10.4-2.69c.83-1.42,4.29-2.51,6.43-3.19,2-.62,2.54-.81,2.6-1.25a.45.45,0,0,0-.24-.45,2,2,0,0,0-1.05-.21,32,32,0,0,0-6.12,1.15h0a4.81,4.81,0,0,1,.44-.29c1.46-.91,6.27-4,7.07-5a.44.44,0,0,0,.06-.49.49.49,0,0,0-.49-.24c-1.15,0-6.28,2-9.64,3.87,2.63-2.58,3.85-3.94,3.72-4.65a.55.55,0,0,0-.33-.42.94.94,0,0,0-.34-.07c-.87,0-2.34,1.17-3.91,2.4-1.15.91-2.58,2-3.08,2-.35-1.5,2.45-4.86,3.69-5.77a10.44,10.44,0,0,1,1.69-.91c.88-.42,1.52-.71,1.67-1.15a.64.64,0,0,0,0-.47c-.17-.31-.75-.46-1.74-.46Z"/><g class="cls-9"><path class="cls-8" d="M104.5,35.43a13,13,0,0,0,3.22,4.39A15.52,15.52,0,0,1,110.57,43l-.61.18a16.61,16.61,0,0,0-2.61-2.79A13,13,0,0,1,104.12,36c-.25-.48-.15-.93.24-1.09A1.06,1.06,0,0,0,104.5,35.43Z"/><path class="cls-8" d="M128.32,37.11c-.75,1.23-3.47,3.7-4.54,4.78C123.21,42.08,126.87,38.93,128.32,37.11Z"/><path class="cls-8" d="M126.72,45.81c1-2,6.38-3.23,8.16-4l.12,0C135.89,42.45,128.75,43.62,126.72,45.81Z"/><path class="cls-8" d="M119.54,37a5.66,5.66,0,0,1,.73-1.19,5.25,5.25,0,0,0-.36.66,12.59,12.59,0,0,1-1.54,2.71A17.18,17.18,0,0,0,119.54,37Z"/><path class="cls-8" d="M125,33.65a13.46,13.46,0,0,0-2.32,2.46,13.92,13.92,0,0,1,2.69-3c.82-.59,2.1-1,2.74-1.45C128.27,32.24,126.14,32.8,125,33.65Z"/><path class="cls-8" d="M128.5,41.77a62.75,62.75,0,0,0,6.37-4.4s0,.08,0,.15c-.69.91-4.86,3.6-6.74,4.77-.2.12-.34.23-.47.32C127.55,42.51,127.68,42.28,128.5,41.77Z"/><path class="cls-8" d="M97.89,43.49a46.18,46.18,0,0,0,3.59,3.95c3.17,3.2,6.45.91,8.82.77,1.24-.08,1.33.15.78.79,0-.24-.28-.33-1.1-.28-2.37.15-5.65,2.44-8.81-.76a33,33,0,0,1-3.91-4.38S97.42,43.43,97.89,43.49Z"/><path class="cls-8" d="M130.73,49.6c-4.28-.44-4.92-.36-6.6.27-.15-.18-.11-.33.21-.46,1.8-.68,2.34-.79,6.76-.33a10.55,10.55,0,0,0,5.25-.42c.32.17.34.33-.11.45A10.79,10.79,0,0,1,130.73,49.6Z"/><path class="cls-8" d="M120.7,52.64a1.83,1.83,0,0,0-.88.56,2.1,2.1,0,0,1,1.25-1.08c1.44-.43,3,1.8,7.69,3.15,1.63.47,2.56.48,3,.25-.06.65-.93,1-3.4.27C123.66,54.44,122.14,52.22,120.7,52.64Z"/><path class="cls-8" d="M115.13,61.61C116.29,60,116,58,116,56a9.08,9.08,0,0,1,.18-1.47c.08-.49.26-1,.33-1.4,0-.21,0-.31-.08-.39a1.43,1.43,0,0,0-.51-.23,3.33,3.33,0,0,0-1.3,0,12.48,12.48,0,0,0-2.71.72,6,6,0,0,0-1.23.63c-.41.26-.83.5-1.26.74a21.65,21.65,0,0,1-5.3,2.35,17.69,17.69,0,0,0,2.57-1.3c.83-.48,1.65-1,2.46-1.51l1.2-.79a6.27,6.27,0,0,1,1.32-.73,12.14,12.14,0,0,1,2.86-.8,4,4,0,0,1,1.58.06,1.93,1.93,0,0,1,.77.41,1,1,0,0,1,.25,1c-.11.54-.27,1-.37,1.42s-.17.93-.22,1.39c-.08.93-.09,1.92-.23,2.89A5,5,0,0,1,115.13,61.61Z"/></g><circle class="cls-10" cx="120.4" cy="45.44" r="0.46"/><circle class="cls-10" cx="116.82" cy="45.54" r="0.46"/><circle class="cls-10" cx="118.75" cy="45.32" r="0.95"/><circle class="cls-10" cx="117.08" cy="44.04" r="0.72"/><circle class="cls-10" cx="119.62" cy="47.46" r="0.72"/><path class="cls-8" d="M103.6,101.23c-.69,0-1.47-.92-2.3-2.73a22.42,22.42,0,0,1-1.74-5.76c-.24-1.28-.4-2.12-1-2.49a1.69,1.69,0,0,0-1-.28c-1,0-2.27.69-4,1.65l-.5.27a6.07,6.07,0,0,1-2.95.71A12.15,12.15,0,0,1,86.81,92l-.5-.14c-.07,0-.25,0-.25-.22s.16-.24.93-.41c1.09-.25,3.13-.71,3.88-1.65a6.56,6.56,0,0,1,2-1.39c.91-.51,1.86-1,1.91-1.64,0-.33-.2-.71-.7-1.12a12.11,12.11,0,0,0-5.44-2.55c-.57-.16-1.19-.32-1.87-.53l-.33-.1c-3.24-1-7.28-2.23-7.14-4,0-.22.14-.58.75-.58a12.32,12.32,0,0,1,3.35,1,22.52,22.52,0,0,0,6.13,1.73c1.17.07,2.17.19,3,.29A15,15,0,0,0,94,80.9c.37,0,.41-.07.41-.07s0-.19-.56-.89a11.65,11.65,0,0,0-1.65-1.47c-1.83-1.42-4.1-3.2-3.56-7A38.36,38.36,0,0,1,89.9,65l0-.14.14,0c.14,0,1.36.41,1.26,5.07a3.76,3.76,0,0,0,1,2.8,6.86,6.86,0,0,0,4.42,1.57h0l.07,0,1.56,1a17.91,17.91,0,0,0,.44-4.21,13.7,13.7,0,0,1,1.09-5.3l.16-.42a1.05,1.05,0,0,1,.91-.78.86.86,0,0,1,.6.28,3.41,3.41,0,0,1,.61,2.36c0,.39,0,.73,0,1-.07,1.91-.09,2.62,1.64,5A25.06,25.06,0,0,1,106.79,78a.44.44,0,0,0,.07.27c.08.09.3.23.89.23a11.9,11.9,0,0,0,3.34-.7,6.2,6.2,0,0,1,1.91-.3,9.53,9.53,0,0,1,7,3.83c.41.61.34.81.31.87a.44.44,0,0,1-.46.29,5.19,5.19,0,0,1-1.59-.53,10.54,10.54,0,0,0-1.84-.68,10.85,10.85,0,0,0-2-.15c-1.88,0-4.31.33-5,1.26-.07.1,0,.15,0,.17.18.44,2.14.8,3.71,1.08,2.52.45,4.19.81,4.42,1.52a.39.39,0,0,1,0,.35c-.14.19-.52.42-2.21.42-1.19,0-2.68-.11-3.88-.2l-1.21-.08c3.6.95,10.82,4.53,10.76,5.33a.27.27,0,0,1-.28.23h-.16c-1.58,0-7.14-1.62-8.24-2a3.57,3.57,0,0,0-.93-.19h-.11s.23.23.43.39c.51.33,5.15,3.37,5.36,4.62a.31.31,0,0,1-.06.27.28.28,0,0,1-.23.09,7.7,7.7,0,0,1-2.29-1.17c-1.94-1.17-4.61-2.77-6.35-2.77a2.28,2.28,0,0,0-.66.1c1.44,2.25,5.51,8.71,5.08,9.5a.29.29,0,0,1-.26.14h0a.82.82,0,0,1-.43-.17c-2.6-1.75-3-2.38-3.9-3.65l-.28-.41c-2.67-3.85-3.08-4.14-4.81-5.06a.51.51,0,0,0-.21-.07c-.24.33.48,2.29,1,3.72a18.79,18.79,0,0,1,1.15,3.86,3.63,3.63,0,0,1-.64,2.43A.82.82,0,0,1,103.6,101.23Z"/><path class="cls-4" d="M101.07,64.79c.51,0,1.06.71,1,2.45,0,2.76-.42,3.34,1.65,6.11a23.91,23.91,0,0,1,2.88,4.75s-.12.61,1.12.61a12,12,0,0,0,3.4-.72A6,6,0,0,1,113,77.7c4,0,7.39,3.91,7.18,4.47,0,.12-.15.17-.3.17-.66,0-2.17-.93-3.39-1.19a10.11,10.11,0,0,0-2-.16c-1.93,0-4.41.34-5.12,1.33-1,1.42,7.61,1.52,8.07,2.92.13.42-.81.55-2.1.55-2,0-4.81-.31-5.74-.31-.49,0-.44.09.58.36,4.16,1.09,11.71,5.12,10.53,5.23h-.14c-1.4,0-6.07-1.32-8.19-1.94a3.56,3.56,0,0,0-1-.2c-.66,0,.21.7.21.7s5.1,3.31,5.3,4.52c0,.11,0,.16-.12.16-.85,0-5.86-3.94-8.64-3.94a1.91,1.91,0,0,0-.91.2s6.14,9.54,5.07,9.54A.73.73,0,0,1,112,100a11.06,11.06,0,0,1-4.14-4c-2.65-3.82-3.1-4.17-4.87-5.11a.67.67,0,0,0-.29-.09c-1.06,0,1.9,5.93,2,7.76,0,1.15-.33,2.54-1.08,2.54-.53,0-1.25-.69-2.15-2.63C99.29,93.73,100,91,98.68,90.1a2,2,0,0,0-1.06-.3c-1.16,0-2.61.85-4.6,1.94a6,6,0,0,1-2.87.69,14.8,14.8,0,0,1-3.8-.7c-.9-.2,3.43-.47,4.65-2s5.69-2.29,3.15-4.39-4.3-2.18-7.37-3.12S79.3,80,79.43,78.32c0-.31.23-.43.58-.43,1.59,0,6.07,2.56,9.47,2.75,2.13.12,3.71.43,4.51.43s.81-.27,0-1.24c-1.71-2-5.89-3.34-5.18-8.34A39.08,39.08,0,0,1,90.06,65s1.21.24,1.12,4.89c-.09,4.46,5.17,4.55,5.61,4.55h0l1.76,1.13a17,17,0,0,0,.5-4.48,14.23,14.23,0,0,1,1.25-5.66.86.86,0,0,1,.74-.66m0-.35a1.21,1.21,0,0,0-1.07.89c0,.13-.1.26-.15.41a13.83,13.83,0,0,0-1.11,5.38A18.3,18.3,0,0,1,98.36,75L97,74.17l-.09-.06h-.11A6.66,6.66,0,0,1,92.5,72.6a3.57,3.57,0,0,1-1-2.68c.1-4.7-1.14-5.19-1.39-5.24l-.29-.05-.1.27a38.13,38.13,0,0,0-1.28,6.54c-.55,3.91,1.76,5.72,3.62,7.17a10.82,10.82,0,0,1,1.63,1.44,3.48,3.48,0,0,1,.49.67H94a14.66,14.66,0,0,1-1.51-.14c-.81-.1-1.81-.22-3-.29a22.37,22.37,0,0,1-6.08-1.72,12.24,12.24,0,0,0-3.41-1,.8.8,0,0,0-.92.75C79,80,82.15,81.16,86.35,82.44l.33.1c.68.21,1.29.38,1.88.53a11.94,11.94,0,0,1,5.37,2.53c.45.37.67.69.64,1,0,.52-.95,1-1.83,1.51a7.13,7.13,0,0,0-2,1.43c-.7.89-2.7,1.35-3.78,1.59-.82.19-1.07.24-1.07.58,0,.14.07.32.4.39l.49.13a11.85,11.85,0,0,0,3.38.58,6.33,6.33,0,0,0,3-.73l.5-.27c1.65-.91,3-1.62,3.93-1.62a1.63,1.63,0,0,1,.87.24c.52.33.67,1.15.9,2.38a22.42,22.42,0,0,0,1.75,5.8c.88,1.91,1.68,2.83,2.46,2.83a1,1,0,0,0,.74-.34A3.84,3.84,0,0,0,105,98.5a18,18,0,0,0-1.16-3.91,18.53,18.53,0,0,1-1.06-3.44h0c1.7.91,2.1,1.2,4.74,5l.28.4c.88,1.29,1.33,1.94,4,3.7a1,1,0,0,0,.52.21.45.45,0,0,0,.41-.24c.42-.77-2.41-5.49-5-9.47a2.33,2.33,0,0,1,.38,0c1.69,0,4.44,1.66,6.26,2.75a7.24,7.24,0,0,0,2.38,1.2.47.47,0,0,0,.37-.16.46.46,0,0,0,.09-.4c-.21-1.3-4.58-4.19-5.46-4.76l0,0a5.28,5.28,0,0,1,.51.14c1.55.45,6.72,2,8.29,2h.18a.43.43,0,0,0,.43-.38c.07-.9-5.85-3.8-9.49-5.08,1.15.08,2.53.18,3.65.18,1.75,0,2.16-.23,2.35-.49a.52.52,0,0,0,.07-.5c-.26-.83-1.9-1.16-4.55-1.64-1.28-.23-3.41-.61-3.58-1,.61-.82,2.87-1.19,4.86-1.19a10.56,10.56,0,0,1,1.92.15,11.6,11.6,0,0,1,1.8.66,4.93,4.93,0,0,0,1.66.55.61.61,0,0,0,.62-.4c.06-.16.08-.43-.33-1A9.73,9.73,0,0,0,113,77.36a6.23,6.23,0,0,0-2,.31,12,12,0,0,1-3.29.69c-.45,0-.69-.09-.76-.18l0-.1L107,78A24.81,24.81,0,0,0,104,73.14c-1.7-2.27-1.67-3-1.6-4.83,0-.32,0-.67,0-1.06a3.35,3.35,0,0,0-.66-2.48,1,1,0,0,0-.72-.33Z"/><g class="cls-9"><path class="cls-8" d="M101,66.44a13,13,0,0,0-1.15,5.32A15.66,15.66,0,0,1,99.43,76l-.53-.34a17.33,17.33,0,0,0,.35-3.8,13,13,0,0,1,1.15-5.32c.19-.52.6-.74,1-.55A1.11,1.11,0,0,0,101,66.44Z"/><path class="cls-8" d="M115.56,85.39c-1.42.26-5.07-.14-6.59-.23C108.46,84.86,113.24,85.52,115.56,85.39Z"/><path class="cls-8" d="M108,90c2.14-.57,6.64,2.64,8.36,3.5a.61.61,0,0,1,.05.12C116.58,94.6,111,90,108,90Z"/><path class="cls-8" d="M109.81,78.75a6.22,6.22,0,0,1,1.38-.23,5.23,5.23,0,0,0-.74.17,13,13,0,0,1-3,.64A16.26,16.26,0,0,0,109.81,78.75Z"/><path class="cls-8" d="M115.93,80.59a13.37,13.37,0,0,0-3.38-.11,14,14,0,0,1,4,0c1,.21,2.18.87,2.91,1.08C119.18,82.13,117.35,80.91,115.93,80.59Z"/><path class="cls-8" d="M112.19,88.62a62.82,62.82,0,0,0,7.52,1.86s0,.08-.11.09c-1.14.09-5.92-1.25-8-1.88a5.57,5.57,0,0,0-.55-.14C111,88.4,111.27,88.35,112.19,88.62Z"/><path class="cls-8" d="M90.62,66.83a44.72,44.72,0,0,0-.57,5.31c-.3,4.49,3.58,5.43,5.26,7.11.88.88.77,1.1-.08,1.11.21-.13.07-.42-.51-1-1.68-1.68-5.57-2.62-5.27-7.12a33.6,33.6,0,0,1,.69-5.83S90.36,66.44,90.62,66.83Z"/><path class="cls-8" d="M107.8,95.48c-2.5-3.5-3-3.93-4.57-4.76,0-.24.17-.31.48-.15,1.71.89,2.15,1.23,4.73,4.84a10.47,10.47,0,0,0,3.79,3.65c.09.36,0,.48-.41.22A10.83,10.83,0,0,1,107.8,95.48Z"/><path class="cls-8" d="M98.88,90a1.79,1.79,0,0,0-1-.29,2.14,2.14,0,0,1,1.64.22c1.27.8.61,3.41,2.73,7.85.73,1.53,1.34,2.24,1.82,2.43-.52.38-1.35,0-2.45-2.36C99.5,93.39,100.15,90.78,98.88,90Z"/><path class="cls-8" d="M88.47,91.75c2-.22,3.3-1.76,4.77-3a9.19,9.19,0,0,1,1.22-.85c.43-.26.91-.46,1.27-.68.17-.12.24-.19.24-.31a1.38,1.38,0,0,0-.17-.54,3.35,3.35,0,0,0-.85-1,12.5,12.5,0,0,0-2.34-1.55,5.52,5.52,0,0,0-1.28-.51c-.47-.14-.93-.29-1.39-.45a21.94,21.94,0,0,1-5.28-2.42,18,18,0,0,0,2.68,1.07c.91.31,1.84.58,2.76.84l1.4.38a5.8,5.8,0,0,1,1.41.5,12.29,12.29,0,0,1,2.5,1.62,4,4,0,0,1,1,1.22,2.08,2.08,0,0,1,.21.85,1,1,0,0,1-.55.82c-.48.27-.9.42-1.31.66s-.81.48-1.19.75c-.75.56-1.5,1.21-2.32,1.75A5,5,0,0,1,88.47,91.75Z"/></g><circle class="cls-10" cx="104.08" cy="84.98" r="0.46"/><circle class="cls-10" cx="101.63" cy="82.36" r="0.46"/><circle class="cls-10" cx="103.08" cy="83.67" r="0.95"/><circle class="cls-10" cx="102.93" cy="81.57" r="0.72"/><circle class="cls-10" cx="102.05" cy="85.74" r="0.72"/></g></g></svg>