<svg xmlns="http://www.w3.org/2000/svg" viewBox="0 0 160.99 101.69"><defs><style>.cls-1{isolation:isolate;}.cls-2{fill:#b5b8ba;}.cls-3{fill:#dbdcdc;}.cls-4{fill:#fff;}.cls-5{fill:#8f9397;}.cls-6{fill:#676767;}.cls-7{fill:#079b49;}.cls-8{fill:#ccc;opacity:0.68;mix-blend-mode:multiply;}.cls-9{fill:#b21f24;}.cls-10{opacity:0.5;}</style></defs><title>Artboard 2</title><g class="cls-1"><g id="Layer_1" data-name="Layer 1"><rect class="cls-2" x="26.85" y="4.11" width="52.2" height="50.11"/><rect class="cls-3" x="28.35" y="5.61" width="52.2" height="50.11"/><rect class="cls-4" x="31.62" y="17.37" width="4.93" height="4.73"/><rect class="cls-4" x="38.42" y="17.37" width="4.93" height="4.73"/><rect class="cls-4" x="45.23" y="17.37" width="4.93" height="4.73"/><rect class="cls-4" x="52.03" y="17.37" width="4.93" height="4.73"/><rect class="cls-4" x="58.84" y="17.37" width="4.93" height="4.73"/><rect class="cls-4" x="65.64" y="17.37" width="4.93" height="4.73"/><rect class="cls-4" x="72.45" y="17.37" width="4.93" height="4.73"/><rect class="cls-4" x="31.62" y="24.97" width="4.93" height="4.73"/><rect class="cls-4" x="38.42" y="24.97" width="4.93" height="4.73"/><rect class="cls-4" x="45.23" y="24.97" width="4.93" height="4.73"/><rect class="cls-4" x="52.03" y="24.97" width="4.93" height="4.73"/><rect class="cls-4" x="58.84" y="24.97" width="4.93" height="4.73"/><rect class="cls-4" x="65.64" y="24.97" width="4.93" height="4.73"/><rect class="cls-4" x="72.45" y="24.97" width="4.93" height="4.73"/><rect class="cls-4" x="31.62" y="32.56" width="4.93" height="4.73"/><rect class="cls-4" x="38.42" y="32.56" width="4.93" height="4.73"/><rect class="cls-4" x="45.23" y="32.56" width="4.93" height="4.73"/><rect class="cls-4" x="52.03" y="32.56" width="4.93" height="4.73"/><rect class="cls-4" x="58.84" y="32.56" width="4.93" height="4.73"/><rect class="cls-4" x="65.64" y="32.56" width="4.93" height="4.73"/><rect class="cls-4" x="72.45" y="32.56" width="4.93" height="4.73"/><rect class="cls-4" x="31.62" y="40.15" width="4.93" height="4.73"/><rect class="cls-4" x="38.42" y="40.15" width="4.93" height="4.73"/><rect class="cls-4" x="45.23" y="40.15" width="4.93" height="4.73"/><rect class="cls-4" x="52.03" y="40.15" width="4.93" height="4.73"/><rect class="cls-4" x="58.84" y="40.15" width="4.93" height="4.73"/><rect class="cls-4" x="65.64" y="40.15" width="4.93" height="4.73"/><rect class="cls-4" x="72.45" y="40.15" width="4.93" height="4.73"/><rect class="cls-4" x="31.62" y="47.75" width="4.93" height="4.73"/><rect class="cls-4" x="38.42" y="47.75" width="4.93" height="4.73"/><rect class="cls-4" x="45.23" y="47.75" width="4.93" height="4.73"/><rect class="cls-5" x="28.35" y="4.11" width="52.2" height="10.02"/><rect class="cls-6" x="36.8" width="3.31" height="9.12" rx="1.66"/><rect class="cls-6" x="69.89" width="3.31" height="9.12" rx="1.66"/><path class="cls-7" d="M31.91,17.66a8.25,8.25,0,0,1,2.43,1.73,7.87,7.87,0,0,1,1.72,2.42,7.92,7.92,0,0,1-2.43-1.72A7.92,7.92,0,0,1,31.91,17.66Z"/><path class="cls-7" d="M36.06,17.66a7.92,7.92,0,0,1-1.72,2.43,8,8,0,0,1-2.43,1.72,7.87,7.87,0,0,1,1.72-2.42A8.12,8.12,0,0,1,36.06,17.66Z"/><path class="cls-7" d="M38.73,17.66a8.12,8.12,0,0,1,2.43,1.73,7.87,7.87,0,0,1,1.72,2.42,8,8,0,0,1-2.43-1.72A7.92,7.92,0,0,1,38.73,17.66Z"/><path class="cls-7" d="M42.88,17.66a7.92,7.92,0,0,1-1.72,2.43,7.92,7.92,0,0,1-2.43,1.72,7.87,7.87,0,0,1,1.72-2.42A8.25,8.25,0,0,1,42.88,17.66Z"/><path class="cls-7" d="M45.56,17.66A8.07,8.07,0,0,1,48,19.39a7.74,7.74,0,0,1,1.73,2.42,7.8,7.8,0,0,1-2.43-1.72A7.92,7.92,0,0,1,45.56,17.66Z"/><path class="cls-7" d="M49.71,17.66A8.12,8.12,0,0,1,48,20.09a7.87,7.87,0,0,1-2.42,1.72,7.87,7.87,0,0,1,1.72-2.42A8.12,8.12,0,0,1,49.71,17.66Z"/><path class="cls-7" d="M52.38,17.66a8.25,8.25,0,0,1,2.43,1.73,7.87,7.87,0,0,1,1.72,2.42,7.92,7.92,0,0,1-2.43-1.72A7.92,7.92,0,0,1,52.38,17.66Z"/><path class="cls-7" d="M56.53,17.66a7.92,7.92,0,0,1-1.72,2.43,7.92,7.92,0,0,1-2.43,1.72,7.87,7.87,0,0,1,1.72-2.42A8.25,8.25,0,0,1,56.53,17.66Z"/><path class="cls-7" d="M59.2,17.66a8.12,8.12,0,0,1,2.43,1.73,7.87,7.87,0,0,1,1.72,2.42,7.87,7.87,0,0,1-2.42-1.72A8,8,0,0,1,59.2,17.66Z"/><path class="cls-7" d="M63.35,17.66a7.92,7.92,0,0,1-1.72,2.43,7.92,7.92,0,0,1-2.43,1.72,7.74,7.74,0,0,1,1.73-2.42A8.07,8.07,0,0,1,63.35,17.66Z"/><path class="cls-7" d="M66,17.66a8.25,8.25,0,0,1,2.43,1.73,7.87,7.87,0,0,1,1.72,2.42,7.92,7.92,0,0,1-2.43-1.72A7.92,7.92,0,0,1,66,17.66Z"/><path class="cls-7" d="M70.18,17.66a8.09,8.09,0,0,1-1.72,2.43A8,8,0,0,1,66,21.81a7.87,7.87,0,0,1,1.72-2.42A8.12,8.12,0,0,1,70.18,17.66Z"/><path class="cls-7" d="M72.85,17.66a8.12,8.12,0,0,1,2.43,1.73A7.87,7.87,0,0,1,77,21.81a7.92,7.92,0,0,1-2.43-1.72A7.92,7.92,0,0,1,72.85,17.66Z"/><path class="cls-7" d="M77,17.66a7.92,7.92,0,0,1-1.72,2.43,7.92,7.92,0,0,1-2.43,1.72,7.87,7.87,0,0,1,1.72-2.42A8.25,8.25,0,0,1,77,17.66Z"/><path class="cls-7" d="M31.91,25.37a8,8,0,0,1,2.43,1.72,7.92,7.92,0,0,1,1.72,2.43,7.92,7.92,0,0,1-2.43-1.72A8,8,0,0,1,31.91,25.37Z"/><path class="cls-7" d="M36.06,25.37a8.83,8.83,0,0,1-4.15,4.15,8.83,8.83,0,0,1,4.15-4.15Z"/><path class="cls-7" d="M38.73,25.37a8.83,8.83,0,0,1,4.15,4.15,8.83,8.83,0,0,1-4.15-4.15Z"/><path class="cls-7" d="M42.88,25.37a8,8,0,0,1-1.72,2.43,7.92,7.92,0,0,1-2.43,1.72,7.92,7.92,0,0,1,1.72-2.43A8,8,0,0,1,42.88,25.37Z"/><path class="cls-7" d="M45.56,25.37A7.87,7.87,0,0,1,48,27.09a7.78,7.78,0,0,1,1.73,2.43,7.8,7.8,0,0,1-2.43-1.72A8,8,0,0,1,45.56,25.37Z"/><path class="cls-7" d="M49.71,25.37A8.25,8.25,0,0,1,48,27.8a7.87,7.87,0,0,1-2.42,1.72,8.83,8.83,0,0,1,4.15-4.15Z"/><path class="cls-7" d="M52.38,25.37a8,8,0,0,1,2.43,1.72,7.92,7.92,0,0,1,1.72,2.43A7.92,7.92,0,0,1,54.1,27.8,8,8,0,0,1,52.38,25.37Z"/><path class="cls-7" d="M56.53,25.37a8,8,0,0,1-1.72,2.43,7.92,7.92,0,0,1-2.43,1.72,7.92,7.92,0,0,1,1.72-2.43A8,8,0,0,1,56.53,25.37Z"/><path class="cls-7" d="M59.2,25.37a8.83,8.83,0,0,1,4.15,4.15,7.87,7.87,0,0,1-2.42-1.72A8.07,8.07,0,0,1,59.2,25.37Z"/><path class="cls-7" d="M63.35,25.37a8,8,0,0,1-1.72,2.43,7.92,7.92,0,0,1-2.43,1.72,7.78,7.78,0,0,1,1.73-2.43A7.87,7.87,0,0,1,63.35,25.37Z"/><path class="cls-7" d="M66,25.37a8,8,0,0,1,2.43,1.72,7.92,7.92,0,0,1,1.72,2.43,7.92,7.92,0,0,1-2.43-1.72A8,8,0,0,1,66,25.37Z"/><path class="cls-7" d="M70.18,25.37a8.22,8.22,0,0,1-1.72,2.43A8,8,0,0,1,66,29.52a8.83,8.83,0,0,1,4.15-4.15Z"/><path class="cls-7" d="M72.85,25.37A8.83,8.83,0,0,1,77,29.52a7.92,7.92,0,0,1-2.43-1.72A8,8,0,0,1,72.85,25.37Z"/><path class="cls-7" d="M77,25.37a8,8,0,0,1-1.72,2.43,7.92,7.92,0,0,1-2.43,1.72,7.92,7.92,0,0,1,1.72-2.43A8,8,0,0,1,77,25.37Z"/><path class="cls-7" d="M31.91,33.28A8,8,0,0,1,34.34,35a7.92,7.92,0,0,1,1.72,2.43,8.83,8.83,0,0,1-4.15-4.15Z"/><path class="cls-7" d="M36.06,33.28a7.92,7.92,0,0,1-1.72,2.43,8,8,0,0,1-2.43,1.72,8.83,8.83,0,0,1,4.15-4.15Z"/><path class="cls-7" d="M38.73,33.28a8.83,8.83,0,0,1,4.15,4.15,8,8,0,0,1-2.43-1.72A7.92,7.92,0,0,1,38.73,33.28Z"/><path class="cls-7" d="M42.88,33.28a8.83,8.83,0,0,1-4.15,4.15A7.92,7.92,0,0,1,40.45,35,8,8,0,0,1,42.88,33.28Z"/><path class="cls-7" d="M45.56,33.28A7.87,7.87,0,0,1,48,35a7.78,7.78,0,0,1,1.73,2.43,7.8,7.8,0,0,1-2.43-1.72A7.92,7.92,0,0,1,45.56,33.28Z"/><path class="cls-7" d="M49.71,33.28A8.12,8.12,0,0,1,48,35.71a7.87,7.87,0,0,1-2.42,1.72,8.83,8.83,0,0,1,4.15-4.15Z"/><path class="cls-7" d="M52.38,33.28A8,8,0,0,1,54.81,35a7.92,7.92,0,0,1,1.72,2.43,8.83,8.83,0,0,1-4.15-4.15Z"/><path class="cls-7" d="M56.53,33.28a8.83,8.83,0,0,1-4.15,4.15A7.92,7.92,0,0,1,54.1,35,8,8,0,0,1,56.53,33.28Z"/><path class="cls-7" d="M59.2,33.28a8.83,8.83,0,0,1,4.15,4.15,8.95,8.95,0,0,1-4.15-4.15Z"/><path class="cls-7" d="M63.35,33.28a8.83,8.83,0,0,1-4.15,4.15A7.78,7.78,0,0,1,60.93,35,7.87,7.87,0,0,1,63.35,33.28Z"/><path class="cls-7" d="M66,33.28A8,8,0,0,1,68.46,35a7.92,7.92,0,0,1,1.72,2.43A8.83,8.83,0,0,1,66,33.28Z"/><path class="cls-7" d="M70.18,33.28A8.83,8.83,0,0,1,66,37.43a8.83,8.83,0,0,1,4.15-4.15Z"/><path class="cls-7" d="M72.85,33.28A8.83,8.83,0,0,1,77,37.43a8.83,8.83,0,0,1-4.15-4.15Z"/><path class="cls-7" d="M77,33.28a8.83,8.83,0,0,1-4.15,4.15A7.92,7.92,0,0,1,74.57,35,8,8,0,0,1,77,33.28Z"/><path class="cls-7" d="M31.91,40.56a8,8,0,0,1,2.43,1.72,7.8,7.8,0,0,1,1.72,2.43A7.78,7.78,0,0,1,33.63,43,7.87,7.87,0,0,1,31.91,40.56Z"/><path class="cls-7" d="M36.06,40.56a8.95,8.95,0,0,1-4.15,4.15,7.8,7.8,0,0,1,1.72-2.43A7.92,7.92,0,0,1,36.06,40.56Z"/><path class="cls-7" d="M38.73,40.56a8.83,8.83,0,0,1,4.15,4.15,8.95,8.95,0,0,1-4.15-4.15Z"/><path class="cls-7" d="M42.88,40.56A7.87,7.87,0,0,1,41.16,43a7.78,7.78,0,0,1-2.43,1.73,7.92,7.92,0,0,1,1.72-2.43A8,8,0,0,1,42.88,40.56Z"/><path class="cls-7" d="M45.56,40.56A7.87,7.87,0,0,1,48,42.28a7.78,7.78,0,0,1,1.73,2.43A7.67,7.67,0,0,1,47.28,43,7.87,7.87,0,0,1,45.56,40.56Z"/><path class="cls-7" d="M49.71,40.56A8.07,8.07,0,0,1,48,43a7.74,7.74,0,0,1-2.42,1.73,8.83,8.83,0,0,1,4.15-4.15Z"/><path class="cls-7" d="M52.38,40.56a8,8,0,0,1,2.43,1.72,7.92,7.92,0,0,1,1.72,2.43A7.78,7.78,0,0,1,54.1,43,7.87,7.87,0,0,1,52.38,40.56Z"/><path class="cls-7" d="M56.53,40.56A7.87,7.87,0,0,1,54.81,43a7.78,7.78,0,0,1-2.43,1.73,7.92,7.92,0,0,1,1.72-2.43A8,8,0,0,1,56.53,40.56Z"/><path class="cls-7" d="M59.2,40.56a8.83,8.83,0,0,1,4.15,4.15A7.74,7.74,0,0,1,60.93,43,7.9,7.9,0,0,1,59.2,40.56Z"/><path class="cls-7" d="M63.35,40.56A7.87,7.87,0,0,1,61.63,43a7.78,7.78,0,0,1-2.43,1.73,7.78,7.78,0,0,1,1.73-2.43A7.87,7.87,0,0,1,63.35,40.56Z"/><path class="cls-7" d="M66,40.56a8,8,0,0,1,2.43,1.72,7.92,7.92,0,0,1,1.72,2.43A7.78,7.78,0,0,1,67.75,43,7.87,7.87,0,0,1,66,40.56Z"/><path class="cls-7" d="M70.18,40.56A8,8,0,0,1,68.46,43,7.9,7.9,0,0,1,66,44.71a8.83,8.83,0,0,1,4.15-4.15Z"/><path class="cls-7" d="M72.85,40.56a7.92,7.92,0,0,1,2.43,1.72A7.8,7.8,0,0,1,77,44.71,7.78,7.78,0,0,1,74.57,43,7.87,7.87,0,0,1,72.85,40.56Z"/><path class="cls-7" d="M77,40.56A7.87,7.87,0,0,1,75.28,43a7.78,7.78,0,0,1-2.43,1.73,7.8,7.8,0,0,1,1.72-2.43A8,8,0,0,1,77,40.56Z"/><path class="cls-7" d="M31.91,47.89a8.25,8.25,0,0,1,2.43,1.73A7.87,7.87,0,0,1,36.06,52a8.83,8.83,0,0,1-4.15-4.15Z"/><path class="cls-7" d="M36.06,47.89a7.92,7.92,0,0,1-1.72,2.43A8,8,0,0,1,31.91,52a7.87,7.87,0,0,1,1.72-2.42A8.12,8.12,0,0,1,36.06,47.89Z"/><path class="cls-7" d="M38.73,47.89a8.12,8.12,0,0,1,2.43,1.73A7.87,7.87,0,0,1,42.88,52a8,8,0,0,1-2.43-1.72A7.92,7.92,0,0,1,38.73,47.89Z"/><path class="cls-7" d="M42.88,47.89A8.83,8.83,0,0,1,38.73,52a7.87,7.87,0,0,1,1.72-2.42A8.25,8.25,0,0,1,42.88,47.89Z"/><path class="cls-7" d="M45.56,47.89A8.07,8.07,0,0,1,48,49.62,7.74,7.74,0,0,1,49.71,52a7.8,7.8,0,0,1-2.43-1.72A7.92,7.92,0,0,1,45.56,47.89Z"/><path class="cls-7" d="M49.71,47.89A8.12,8.12,0,0,1,48,50.32,7.87,7.87,0,0,1,45.56,52a7.87,7.87,0,0,1,1.72-2.42A8.12,8.12,0,0,1,49.71,47.89Z"/><path class="cls-8" d="M79.05,4.11H73.2V1.66a1.66,1.66,0,1,0-3.31,0V4.11H40.11V1.66a1.66,1.66,0,1,0-3.31,0V4.11H26.85V54.22h1.5v1.5H80.56V4.11Z"/><rect class="cls-2" y="19.73" width="52.2" height="50.11"/><rect class="cls-3" x="1.5" y="21.22" width="52.2" height="50.11"/><rect class="cls-4" x="4.76" y="32.99" width="4.93" height="4.73"/><rect class="cls-4" x="11.57" y="32.99" width="4.93" height="4.73"/><rect class="cls-4" x="18.38" y="32.99" width="4.93" height="4.73"/><rect class="cls-4" x="25.18" y="32.99" width="4.93" height="4.73"/><rect class="cls-4" x="31.99" y="32.99" width="4.93" height="4.73"/><rect class="cls-4" x="38.79" y="32.99" width="4.93" height="4.73"/><rect class="cls-4" x="45.6" y="32.99" width="4.93" height="4.73"/><rect class="cls-4" x="4.76" y="40.58" width="4.93" height="4.73"/><rect class="cls-4" x="11.57" y="40.58" width="4.93" height="4.73"/><rect class="cls-4" x="18.38" y="40.58" width="4.93" height="4.73"/><rect class="cls-4" x="25.18" y="40.58" width="4.93" height="4.73"/><rect class="cls-4" x="31.99" y="40.58" width="4.93" height="4.73"/><rect class="cls-4" x="38.79" y="40.58" width="4.93" height="4.73"/><rect class="cls-4" x="45.6" y="40.58" width="4.93" height="4.73"/><rect class="cls-4" x="4.76" y="48.18" width="4.93" height="4.73"/><rect class="cls-4" x="11.57" y="48.18" width="4.93" height="4.73"/><rect class="cls-4" x="18.38" y="48.18" width="4.93" height="4.73"/><rect class="cls-4" x="25.18" y="48.18" width="4.93" height="4.73"/><rect class="cls-4" x="31.99" y="48.18" width="4.93" height="4.73"/><rect class="cls-4" x="38.79" y="48.18" width="4.93" height="4.73"/><rect class="cls-4" x="45.6" y="48.18" width="4.93" height="4.73"/><rect class="cls-4" x="4.76" y="55.77" width="4.93" height="4.73"/><rect class="cls-4" x="11.57" y="55.77" width="4.93" height="4.73"/><rect class="cls-4" x="18.38" y="55.77" width="4.93" height="4.73"/><rect class="cls-4" x="25.18" y="55.77" width="4.93" height="4.73"/><rect class="cls-4" x="31.99" y="55.77" width="4.93" height="4.73"/><rect class="cls-4" x="38.79" y="55.77" width="4.93" height="4.73"/><rect class="cls-4" x="45.6" y="55.77" width="4.93" height="4.73"/><rect class="cls-4" x="4.76" y="63.36" width="4.93" height="4.73"/><rect class="cls-4" x="11.57" y="63.36" width="4.93" height="4.73"/><rect class="cls-4" x="18.38" y="63.36" width="4.93" height="4.73"/><rect class="cls-5" x="1.5" y="19.73" width="52.2" height="10.02"/><rect class="cls-6" x="9.95" y="15.62" width="3.31" height="9.12" rx="1.66"/><rect class="cls-6" x="43.04" y="15.62" width="3.31" height="9.12" rx="1.66"/><path class="cls-7" d="M5.06,33.28A8,8,0,0,1,7.49,35a7.92,7.92,0,0,1,1.72,2.43,7.92,7.92,0,0,1-2.43-1.72A7.92,7.92,0,0,1,5.06,33.28Z"/><path class="cls-7" d="M9.21,33.28a8.09,8.09,0,0,1-1.72,2.43,8,8,0,0,1-2.43,1.72A7.92,7.92,0,0,1,6.78,35,7.92,7.92,0,0,1,9.21,33.28Z"/><path class="cls-7" d="M11.88,33.28A7.92,7.92,0,0,1,14.31,35,7.92,7.92,0,0,1,16,37.43a7.92,7.92,0,0,1-2.43-1.72A7.92,7.92,0,0,1,11.88,33.28Z"/><path class="cls-7" d="M16,33.28a7.92,7.92,0,0,1-1.72,2.43,7.92,7.92,0,0,1-2.43,1.72A7.92,7.92,0,0,1,13.6,35,8,8,0,0,1,16,33.28Z"/><path class="cls-7" d="M18.7,33.28A7.92,7.92,0,0,1,21.13,35a8.12,8.12,0,0,1,1.73,2.43,7.8,7.8,0,0,1-2.43-1.72A8.12,8.12,0,0,1,18.7,33.28Z"/><path class="cls-7" d="M22.86,33.28a8.12,8.12,0,0,1-1.73,2.43,7.8,7.8,0,0,1-2.43,1.72A7.78,7.78,0,0,1,20.43,35,7.8,7.8,0,0,1,22.86,33.28Z"/><path class="cls-7" d="M25.53,33.28A8,8,0,0,1,28,35a7.92,7.92,0,0,1,1.72,2.43,8.83,8.83,0,0,1-4.15-4.15Z"/><path class="cls-7" d="M29.68,33.28A7.92,7.92,0,0,1,28,35.71a8,8,0,0,1-2.43,1.72,8.83,8.83,0,0,1,4.15-4.15Z"/><path class="cls-7" d="M32.35,33.28a8.83,8.83,0,0,1,4.15,4.15,8,8,0,0,1-2.43-1.72A7.92,7.92,0,0,1,32.35,33.28Z"/><path class="cls-7" d="M36.5,33.28a8.83,8.83,0,0,1-4.15,4.15A7.92,7.92,0,0,1,34.07,35,8,8,0,0,1,36.5,33.28Z"/><path class="cls-7" d="M39.17,33.28A7.8,7.8,0,0,1,41.6,35a8,8,0,0,1,1.73,2.43,7.8,7.8,0,0,1-2.43-1.72A8.12,8.12,0,0,1,39.17,33.28Z"/><path class="cls-7" d="M43.33,33.28a8.12,8.12,0,0,1-1.73,2.43,7.8,7.8,0,0,1-2.43,1.72A8.12,8.12,0,0,1,40.9,35,7.92,7.92,0,0,1,43.33,33.28Z"/><path class="cls-7" d="M46,33.28A8,8,0,0,1,48.43,35a7.92,7.92,0,0,1,1.72,2.43A8.83,8.83,0,0,1,46,33.28Z"/><path class="cls-7" d="M50.15,33.28a7.92,7.92,0,0,1-1.72,2.43A8,8,0,0,1,46,37.43a8.83,8.83,0,0,1,4.15-4.15Z"/><path class="cls-7" d="M5.06,40.87A8.25,8.25,0,0,1,7.49,42.6,7.8,7.8,0,0,1,9.21,45,8.12,8.12,0,0,1,6.78,43.3,7.92,7.92,0,0,1,5.06,40.87Z"/><path class="cls-7" d="M9.21,40.87A8.09,8.09,0,0,1,7.49,43.3,8.25,8.25,0,0,1,5.06,45,7.8,7.8,0,0,1,6.78,42.6,8.12,8.12,0,0,1,9.21,40.87Z"/><path class="cls-7" d="M11.88,40.87a8.12,8.12,0,0,1,2.43,1.73A7.8,7.8,0,0,1,16,45,8.12,8.12,0,0,1,13.6,43.3,7.92,7.92,0,0,1,11.88,40.87Z"/><path class="cls-7" d="M16,40.87a7.92,7.92,0,0,1-1.72,2.43A8.12,8.12,0,0,1,11.88,45,7.8,7.8,0,0,1,13.6,42.6,8.25,8.25,0,0,1,16,40.87Z"/><path class="cls-7" d="M18.7,40.87a8.12,8.12,0,0,1,2.43,1.73A8,8,0,0,1,22.86,45a8,8,0,0,1-2.43-1.73A8.12,8.12,0,0,1,18.7,40.87Z"/><path class="cls-7" d="M22.86,40.87a8.12,8.12,0,0,1-1.73,2.43A8,8,0,0,1,18.7,45a7.67,7.67,0,0,1,1.73-2.43A8,8,0,0,1,22.86,40.87Z"/><path class="cls-7" d="M25.53,40.87A8.25,8.25,0,0,1,28,42.6,7.8,7.8,0,0,1,29.68,45a8.12,8.12,0,0,1-2.43-1.73A7.92,7.92,0,0,1,25.53,40.87Z"/><path class="cls-7" d="M29.68,40.87A7.92,7.92,0,0,1,28,43.3,8.25,8.25,0,0,1,25.53,45a7.8,7.8,0,0,1,1.72-2.43A8.12,8.12,0,0,1,29.68,40.87Z"/><path class="cls-9" d="M73.48,97.05c-21.65,0-39.26-13.57-39.26-30.26S51.83,36.53,73.48,36.53s39.26,13.57,39.26,30.26S95.12,97.05,73.48,97.05Z"/><path class="cls-4" d="M73.48,37c21.4,0,38.75,13.32,38.75,29.76S94.88,96.55,73.48,96.55,34.72,83.23,34.72,66.79,52.07,37,73.48,37m0-1c-21.92,0-39.76,13.8-39.76,30.76S51.56,97.55,73.48,97.55s39.75-13.8,39.75-30.76S95.4,36,73.48,36Z"/><g class="cls-10"><path class="cls-4" d="M100.14,66.79a12.76,12.76,0,0,1-1.8,9,21.39,21.39,0,0,1-6.76,6.76,35.26,35.26,0,0,1-36.2,0,21.19,21.19,0,0,1-6.77-6.75,12.73,12.73,0,0,1-1.79-9A14.71,14.71,0,0,0,51,74a22.75,22.75,0,0,0,6.7,4.42,41.66,41.66,0,0,0,31.66,0A22.46,22.46,0,0,0,96,74,14.56,14.56,0,0,0,100.14,66.79Z"/></g><path class="cls-9" d="M129.56,101.19a48.74,48.74,0,0,1-19-4c-19.9-8.53-30.73-27.95-24.15-43.29,4.33-10.09,15.43-16.36,29-16.36a48.73,48.73,0,0,1,19,4c19.9,8.53,30.73,27.95,24.15,43.29C154.22,94.92,143.11,101.19,129.56,101.19Z"/><path class="cls-4" d="M115.38,38a48,48,0,0,1,18.82,4c19.67,8.43,30.36,27.52,23.88,42.63-4.4,10.27-15.61,16.06-28.52,16.06a47.92,47.92,0,0,1-18.82-4C91.06,88.27,80.37,69.19,86.85,54.08,91.25,43.81,102.47,38,115.38,38m0-1h0c-13.76,0-25,6.38-29.45,16.66-3.26,7.6-2.48,16.37,2.18,24.7s12.52,15.08,22.23,19.25a49.39,49.39,0,0,0,19.22,4.06c13.75,0,25-6.39,29.44-16.67,3.26-7.6,2.49-16.37-2.18-24.7s-12.51-15.07-22.23-19.24A49.2,49.2,0,0,0,115.38,37Z"/><g class="cls-10"><path class="cls-4" d="M147,79.86a12.75,12.75,0,0,1-5.21,7.58A21.21,21.21,0,0,1,132.88,91,35.28,35.28,0,0,1,99.61,76.72a21,21,0,0,1-3.55-8.87,12.73,12.73,0,0,1,1.9-9,14.66,14.66,0,0,0,1,8.27,22.61,22.61,0,0,0,4.42,6.71,41.6,41.6,0,0,0,29.09,12.49,22.68,22.68,0,0,0,7.91-1.43A14.61,14.61,0,0,0,147,79.86Z"/></g></g></g></svg>