<svg xmlns="http://www.w3.org/2000/svg" width="1954.688" height="793.494" viewBox="0 0 1954.688 793.494">
  <g id="Group_182" data-name="Group 182" transform="translate(-15026.797 328.253)">
    <path id="Path_248" data-name="Path 248" d="M1954,687s-415.317-378.571-855.157-323.4S819.917-44.081,580.842,3.429,436.78,503.081,303.45,524.538s-124.9-134.111-211.5-216.109C40.446,259.652,0,274.712,0,274.712" transform="translate(15027 -311)" fill="none" stroke="#ca6aed" stroke-width="0.5"/>
    <path id="Path_249" data-name="Path 249" d="M0,255.087S39.874,241.27,91.182,288.7c85.289,79.338,81.129,228.872,212.956,210.051,105.608-15.055,76.84-284.906,174.792-421.592,26.517-36.8,62.253-63.924,112.34-73.724C828.652-42.887,683.735,396.036,1110.3,341.4c62.146-8.2,123.553-7.845,183.073-1C1649.167,382.012,1952.611,658.493,1954,664" transform="translate(15027 -300)" fill="none" stroke="#cc68e6" stroke-width="0.52" stroke-dasharray="3.92 3.92"/>
    <path id="Path_250" data-name="Path 250" d="M0,235.009s39.454-12.722,90.4,33.442c84.235,76.317,84.128,219.877,214.48,203.728,106.209-13.172,85-268.6,184.613-398.336,26.928-35.106,62.817-60.924,112.254-70.425C837.447-41.61,708.721,374.2,1121.758,318.675a753.226,753.226,0,0,1,181.171-2.442C1649.943,355.032,1951.191,629,1954,640" transform="translate(15027 -288)" fill="none" stroke="#cd67e0" stroke-width="0.55" stroke-dasharray="3.85 3.85"/>
    <path id="Path_251" data-name="Path 251" d="M0,215.408S38.927,203.846,89.623,248.7c83.044,73.5,87.15,211.277,216.006,197.7,106.789-11.241,93.318-252.493,194.4-375.727,27.4-33.4,63.352-58.039,112.2-67.241C846.24-40.43,733.589,352.1,1133.253,296.464c61.428-8.553,121.551-9.859,179.262-3.879C1650.866,327.629,1949.848,600.482,1954,617" transform="translate(15027 -277)" fill="none" stroke="#ce66d9" stroke-width="0.57" stroke-dasharray="3.77 3.77"/>
    <path id="Path_252" data-name="Path 252" d="M0,195.423s38.439-10.376,88.853,33.121c81.831,70.6,90.181,202.378,217.533,191.353C413.787,410.6,408.062,183.864,510.6,67.4,538.445,35.733,574.517,12.356,622.68,3.436c232.326-42.6,135.779,325.942,522.034,270.351,61.063-8.789,120.545-10.819,177.363-5.341C1651.682,300.393,1948.428,571,1954,593" transform="translate(15027 -265)" fill="none" stroke="#d064d1" stroke-width="0.59" stroke-dasharray="3.69 3.69"/>
    <path id="Path_253" data-name="Path 253" d="M0,175.716s37.92-9.2,88.075,32.987c80.618,67.822,93.227,193.84,219.031,185.313,108.027-7.329,110.05-219.926,214.024-329.8,28.341-29.957,64.49-52.119,112-60.761C863.767-37.935,783.294,307.093,1156.18,251.569c60.7-9.039,119.538-11.795,175.456-6.749C1652.5,273.747,1947.039,542.479,1954,570" transform="translate(15027 -254)" fill="none" stroke="#d163cc" stroke-width="0.61" stroke-dasharray="3.62 3.62"/>
    <path id="Path_254" data-name="Path 254" d="M0,156.111s37.4-8.037,87.3,32.852c79.38,65.069,96.294,185.375,220.54,179.279C416.5,362.893,426.288,164.408,531.665,61.055c28.821-28.268,65.054-49.216,111.911-57.567C872.527-36.7,808.153,284.782,1167.654,229.332c60.3-9.305,118.536-12.766,173.553-8.2C1653.3,247.072,1945.642,513.95,1954,547" transform="translate(15027 -243)" fill="none" stroke="#d361c4" stroke-width="0.64" stroke-dasharray="3.54 3.54"/>
    <path id="Path_255" data-name="Path 255" d="M0,136.175s36.859-6.868,86.518,32.685c78.145,62.188,99.372,176.6,222.046,172.911C417.881,338.482,435.444,154.413,542.22,57.8c29.31-26.519,65.6-46.215,111.821-54.274,227.267-38.92,178.944,258.329,525.069,203.162,59.979-9.554,117.546-13.736,171.655-9.623C1654.1,219.959,1944.253,484.485,1954,523" transform="translate(15027 -231)" fill="none" stroke="#d460be" stroke-width="0.66" stroke-dasharray="3.46 3.46"/>
    <path id="Path_256" data-name="Path 256" d="M0,116.521s36.325-5.651,85.748,32.555C162.634,208.521,188.242,312.4,309.3,315.947,419.213,319.169,444.63,144.723,552.788,54.663c29.806-24.812,66.169-43.3,111.738-51.075C890.084-34.145,857.82,239.365,1190.575,184.457c59.613-9.836,116.516-14.678,169.748-11.066C1654.891,193.377,1942.856,455.951,1954,500" transform="translate(15027 -220)" fill="none" stroke="#d65eb7" stroke-width="0.68" stroke-dasharray="3.38 3.38"/>
    <path id="Path_257" data-name="Path 257" d="M0,96.868s35.776-4.494,84.97,32.427c75.619,56.714,105.7,154.789,225.065,160.826,110.5,5.594,143.8-155.064,253.284-238.572,30.3-23.111,66.719-40.39,111.647-47.879,223.9-36.538,207.684,213.138,527.069,158.556,59.247-10.118,115.509-15.644,167.856-12.51C1655.674,166.788,1941.467,427.409,1954,477" transform="translate(15027 -209)" fill="none" stroke="#d75bb0" stroke-width="0.7" stroke-dasharray="3.31 3.31"/>
    <path id="Path_258" data-name="Path 258" d="M0,77.038s35.218-3.251,84.19,32.235C158.526,163.136,192.82,260.49,310.762,263.7c111.3,3.052,152.3-138.556,263.088-215.351,30.806-21.368,67.283-37.394,111.561-44.583C907.618-31.5,907.45,193.722,1213.518,139.677c58.879-10.394,114.492-16.56,165.945-13.935C1656.465,139.913,1940.108,397.977,1954,453" transform="translate(15027 -197)" fill="none" stroke="#d95aaa" stroke-width="0.73" stroke-dasharray="3.23 3.23"/>
    <path id="Path_259" data-name="Path 259" d="M0,57.417s34.654-2.031,83.421,32.073C156.453,140.652,195.144,232.426,311.5,237.855c111.976,5.284,160.827-122.3,272.9-192.565C615.7,25.65,652.244,10.82,695.844,3.909,916.368-30.149,932.229,171.03,1224.968,117.476c58.514-10.691,113.487-17.51,164.048-15.379C1657.238,113.429,1938.673,369.436,1954,430" transform="translate(15027 -186)" fill="none" stroke="#da58a4" stroke-width="0.75" stroke-dasharray="3.15 3.15"/>
    <path id="Path_260" data-name="Path 260" d="M0,37.816s34.081-.81,82.64,31.982c71.748,48.439,114.813,134.667,229.587,142.269,112.63,7.465,169.349-106.062,282.712-169.8A325.284,325.284,0,0,1,706.325,4.1C925.158-28.753,957.04,148.248,1236.447,95.278c58.154-11.017,112.477-18.459,162.144-16.809C1658.015,87,1937.284,340.874,1954,407" transform="translate(15027 -175)" fill="none" stroke="#dd579d" stroke-width="0.77" stroke-dasharray="3.08 3.08"/>
    <path id="Path_261" data-name="Path 261" d="M0,18.272s33.5.42,81.862,31.846c70.4,45.75,117.9,126.442,231.1,136.173s177.906-89.72,292.52-146.982A368.407,368.407,0,0,1,716.782,4.36c217.146-31.639,265.034,121.076,531.137,68.8,57.78-11.352,111.439-19.393,160.236-18.27C1658.786,60.644,1935.887,312.351,1954,384" transform="translate(15027 -164)" fill="none" stroke="#dd5597" stroke-width="0.8" stroke-dasharray="3 3"/>
    <path id="Path_262" data-name="Path 262" d="M0,0S32.912,1.674,81.083,31.693c69.061,43.042,120.979,118.16,232.6,129.975C427.633,173.743,500.167,88.385,616.024,37.624a427.537,427.537,0,0,1,111.225-31.7c215.457-30.409,279.358,97.823,532.14,46.306,57.406-11.693,110.446-20.306,158.334-19.7C1659.559,35.583,1934.5,284.857,1954,362" transform="translate(15027 -154)" fill="none" stroke="#e05490" stroke-width="0.82" stroke-dasharray="2.92 2.92"/>
    <path id="Path_263" data-name="Path 263" d="M0,0S32.317,2.932,80.312,31.515C148.023,71.834,204.361,141.346,314.418,155.2,429.017,169.609,509.483,98.417,626.6,54.167A512.935,512.935,0,0,1,737.7,25.713c213.772-29.149,293.627,74.429,533.16,23.835C1327.88,37.5,1380.3,27.408,1427.283,28.423,1660.274,33.325,1933.1,275.432,1954,358" transform="translate(15027 -163)" fill="none" stroke="#e05188" stroke-width="0.84" stroke-dasharray="2.85 2.85"/>
    <path id="Path_264" data-name="Path 264" d="M0,0S31.707,4.21,79.534,31.328c66.344,37.628,127.109,101.55,235.617,117.382,115.255,16.816,203.643-40.274,321.96-78.062A646.846,646.846,0,0,1,748.153,45.483c212.085-27.9,307.892,51,534.167,1.4,56.651-12.415,108.386-22.063,154.526-22.535C1661.1,22.063,1931.712,266.024,1954,354" transform="translate(15027 -171)" fill="none" stroke="#e35183" stroke-width="0.86" stroke-dasharray="2.77 2.77"/>
    <path id="Path_265" data-name="Path 265" d="M0,0S31.088,5.524,78.754,31.247c64.977,35.06,130.161,93.6,237.126,111.42,115.842,19.306,212.19-23.836,331.772-55.305a877.982,877.982,0,0,1,110.949-22C969,38.627,1080.74,92.985,1293.769,44.334c56.261-12.843,107.408-23,152.655-24.012C1661.88,15.463,1930.339,257.358,1954,351" transform="translate(15027 -180)" fill="none" stroke="#e34e7b" stroke-width="0.89" stroke-dasharray="2.69 2.69"/>
    <path id="Path_266" data-name="Path 266" d="M0,0S30.463,6.83,77.985,31.058c63.589,32.424,133.185,85.4,238.626,105.161,116.447,21.794,220.8-7.287,341.585-32.37,35.012-7.272,71.749-13.858,110.867-18.734,208.712-25.472,336.364,4.052,536.192-43.427,55.865-13.27,106.394-23.839,150.726-25.419C1662.647,8.89,1928.926,247.966,1954,347" transform="translate(15027 -188)" fill="none" stroke="#e64e76" stroke-width="0.91" stroke-dasharray="2.62 2.62"/>
    <path id="Path_267" data-name="Path 267" d="M0,0S29.836,8.188,77.2,31c62.2,29.878,136.2,77.454,240.162,99.121,117.024,24.4,229.354,9.289,351.393-9.518,35.53-5.474,72.3-10.933,110.773-15.535,207.021-24.289,350.553-19.595,537.187-65.964,55.459-13.762,105.385-24.748,148.837-26.911C1663.44,2.339,1927.53,239.26,1954,344" transform="translate(15027 -197)" fill="none" stroke="#e74b6e" stroke-width="0.93" stroke-dasharray="2.54 2.54"/>
    <path id="Path_268" data-name="Path 268" d="M0,0S29.2,9.554,76.427,30.792c60.811,27.333,139.192,69.375,241.647,92.881,117.606,26.981,237.9,25.882,361.215,13.38,36.05-3.65,72.863-7.981,110.676-12.28,205.323-23.041,364.718-43.3,538.212-88.33,55.033-14.281,104.379-25.561,146.916-28.318C1664.228-4.124,1926.14,229.874,1954,340" transform="translate(15027 -205)" fill="none" stroke="#e94a67" stroke-width="0.95" stroke-dasharray="2.46 2.46"/>
    <path id="Path_269" data-name="Path 269" d="M0,0S28.546,10.947,75.648,30.606c59.405,24.809,142.159,61.3,243.155,86.6,118.108,29.63,246.414,42.492,371.04,36.259,36.568-1.831,73.419-5.035,110.605-9.048C1004.1,122.632,1179.282,77.378,1339.66,33.8c54.6-14.838,103.377-26.357,145.021-29.752C1665.049-10.528,1924.744,220.493,1954,336" transform="translate(15027 -213)" fill="none" stroke="#ea4861" stroke-width="0.98" stroke-dasharray="2.38 2.38"/>
    <path id="Path_270" data-name="Path 270" d="M0,.885s383.167,170.4,700.379,170.4S1322.614,17.767,1494.238.885,1923.354,212.737,1954,334" transform="translate(15027 -223)" fill="none" stroke="#ec475a" stroke-width="1" stroke-dasharray="2.31 2.31"/>
    <path id="Path_271" data-name="Path 271" d="M0,0S86.1,33.074,206.239,77.01c133.765,48.92,321.845,94.9,489.05,101.661C1011.554,191.994,1319.042,23.5,1493.261,11.381S1916.653,235.066,1954,353" transform="translate(15027 -226)" fill="none" stroke="#ed4d5a" stroke-width="0.98" stroke-dasharray="2.38 2.38"/>
    <path id="Path_272" data-name="Path 272" d="M0,0S87.38,28.4,204.933,76.442C334.149,129.187,523.825,173.524,690.2,187c315.288,26.655,625.28-156.829,802.079-164.229S1909.951,258.367,1954,373" transform="translate(15027 -229)" fill="none" stroke="#ed5358" stroke-width="0.95" stroke-dasharray="2.46 2.46"/>
    <path id="Path_273" data-name="Path 273" d="M0,0S88.641,23.587,203.645,75.633c124.645,56.431,316,98.564,481.5,119.169,314.39,39.136,626.8-158.13,806.169-160.746S1903.249,280.952,1954,392" transform="translate(15027 -233)" fill="none" stroke="#ee5857" stroke-width="0.93" stroke-dasharray="2.54 2.54"/>
    <path id="Path_274" data-name="Path 274" d="M0,0S89.869,18.811,202.323,75.06C322.379,135.147,515.375,175.7,680.038,203.151c313.495,52.26,628.341-159.846,810.3-157.756S1896.548,304.23,1954,412" transform="translate(15027 -237)" fill="none" stroke="#ee5e57" stroke-width="0.91" stroke-dasharray="2.62 2.62"/>
    <path id="Path_275" data-name="Path 275" d="M0,0S91.074,13.878,201.008,74.5C316.484,138.128,511.15,177.2,674.949,211.472c312.584,65.417,629.87-161.543,814.415-154.722S1889.854,327.512,1954,432" transform="translate(15027 -241)" fill="none" stroke="#f06455" stroke-width="0.89" stroke-dasharray="2.69 2.69"/>
    <path id="Path_276" data-name="Path 276" d="M0,0S92.28,8.89,199.7,73.9c110.889,67.107,307.22,104.812,470.179,145.9C981.576,298.4,1301.29,56.553,1488.4,68.114S1883.168,350.8,1954,452" transform="translate(15027 -244)" fill="none" stroke="#f06a54" stroke-width="0.86" stroke-dasharray="2.77 2.77"/>
    <path id="Path_277" data-name="Path 277" d="M0,0S93.5,3.816,198.4,73.309C304.735,143.771,502.709,180.238,664.77,228.131c310.8,91.825,632.948-164.95,822.64-148.655S1876.45,374.085,1954,472" transform="translate(15027 -248)" fill="none" stroke="#f17053" stroke-width="0.84" stroke-dasharray="2.85 2.85"/>
    <path id="Path_278" data-name="Path 278" d="M0,0S94.723-1.38,197.094,72.728c101.8,73.7,301.389,109.055,462.6,163.727C969.589,341.548,1294.174,69.8,1486.437,90.85S1869.749,397.381,1954,492" transform="translate(15027 -252)" fill="none" stroke="#f37651" stroke-width="0.82" stroke-dasharray="2.92 2.92"/>
    <path id="Path_279" data-name="Path 279" d="M0,.139s96.021-6.656,195.782,72.12c97.326,76.821,298.473,111.176,458.831,172.6,308.991,118.358,636-168.3,830.847-142.522S1863.017,420.692,1954,512" transform="translate(15027 -256)" fill="none" stroke="#f37b51" stroke-width="0.8" stroke-dasharray="3 3"/>
    <path id="Path_280" data-name="Path 280" d="M0,.6s97.3-12.035,194.484,71.6c92.884,79.948,295.543,113.439,455.038,181.682C957.6,385.688,1287.068,83.728,1484.483,114.27S1856.353,444.876,1954,533" transform="translate(15027 -261)" fill="none" stroke="#f48150" stroke-width="0.77" stroke-dasharray="3.08 3.08"/>
    <path id="Path_281" data-name="Path 281" d="M0,1.4s98.685-17.46,193.171,70.916c88.541,82.8,292.619,115.451,451.267,190.327C951.6,407.635,1283.511,91.036,1483.513,126.276S1849.652,468.333,1954,553" transform="translate(15027 -265)" fill="none" stroke="#f6874e" stroke-width="0.75" stroke-dasharray="3.15 3.15"/>
    <path id="Path_282" data-name="Path 282" d="M0,2.506s100.135-22.992,191.866,70.31c84.213,85.671,289.673,117.621,447.489,199.21,306.2,158.309,640.607-173.273,843.181-133.295S1842.95,492.64,1954,574" transform="translate(15027 -270)" fill="none" stroke="#f68d4e" stroke-width="0.73" stroke-dasharray="3.23 3.23"/>
    <path id="Path_283" data-name="Path 283" d="M0,3.872s101.675-28.628,190.55,69.8c80,88.626,286.73,119.951,443.711,208.347,305.247,171.9,642.124-175.158,847.275-130.395S1836.22,517.856,1954,596" transform="translate(15027 -275)" fill="none" stroke="#f7944d" stroke-width="0.7" stroke-dasharray="3.31 3.31"/>
    <path id="Path_284" data-name="Path 284" d="M0,5.443S103.309-28.825,189.245,74.6C265.1,165.888,473.021,196.644,629.17,291.66c304.277,185.14,643.666-176.7,851.419-127.231S1829.549,542.228,1954,617" transform="translate(15027 -280)" fill="none" stroke="#f79a4b" stroke-width="0.68" stroke-dasharray="3.38 3.38"/>
    <path id="Path_285" data-name="Path 285" d="M0,7.208S105.05-32.82,187.943,75.784c71.794,94.055,280.811,124.3,436.154,226.068,303.29,198.665,645.2-178.441,855.508-124.215S1822.853,567.483,1954,639" transform="translate(15027 -286)" fill="none" stroke="#f9a04a" stroke-width="0.66" stroke-dasharray="3.46 3.46"/>
    <path id="Path_286" data-name="Path 286" d="M0,9.1S106.9-36.675,186.63,77.094c67.833,96.786,277.834,126.542,432.384,235.016,302.259,212.158,646.736-180.171,859.622-121.179S1816.151,592.771,1954,661" transform="translate(15027 -292)" fill="none" stroke="#faa64a" stroke-width="0.64" stroke-dasharray="3.54 3.54"/>
    <path id="Path_287" data-name="Path 287" d="M0,11.119S108.859-40.45,185.325,78.526c63.94,99.486,274.85,128.762,428.605,243.918,301.237,225.628,648.262-181.829,863.729-118.112S1809.45,618.092,1954,683" transform="translate(15027 -298)" fill="none" stroke="#faaa47" stroke-width="0.61" stroke-dasharray="3.62 3.62"/>
    <path id="Path_288" data-name="Path 288" d="M0,13.232s110.935-57.369,184.02,66.8C244.151,182.2,455.87,211,608.839,332.819c300.191,239.1,649.8-183.5,867.851-115.036S1802.718,643.391,1954,705" transform="translate(15027 -304)" fill="none" stroke="#fcb047" stroke-width="0.59" stroke-dasharray="3.69 3.69"/>
    <path id="Path_289" data-name="Path 289" d="M0,15.419s113.118-63.165,182.714,66.2c56.407,104.853,268.675,133.41,421.041,261.642C902.466,596.225,1255.094,158.109,1475.7,231.3S1796.047,668.731,1954,727" transform="translate(15027 -310)" fill="none" stroke="#fcb745" stroke-width="0.57" stroke-dasharray="3.77 3.77"/>
    <path id="Path_290" data-name="Path 290" d="M0,17.667s115.416-68.95,181.4,65.575C234.175,190.792,447.13,218.761,598.672,353.7c297.733,266.211,652.865-186.762,876.064-108.824S1789.353,694.061,1954,749" transform="translate(15027 -316)" fill="none" stroke="#fdbd44" stroke-width="0.55" stroke-dasharray="3.85 3.85"/>
    <path id="Path_291" data-name="Path 291" d="M0,19.962S117.813-54.757,180.136,84.925c49.133,110.269,262.7,137.621,413.457,279.273C890.352,643.639,1248,175.812,1473.755,258.44S1782.65,719.381,1954,771" transform="translate(15027 -322)" fill="none" stroke="#fdc344" stroke-width="0.52" stroke-dasharray="3.92 3.92"/>
    <path id="Path_292" data-name="Path 292" d="M0,22.3s120.308-80.47,178.791,64.346C224.443,199.658,438.566,226.359,588.5,374.708c295.787,292.646,655.934-190.015,884.284-102.661S1775.949,744.7,1954,793" transform="translate(15027 -328)" fill="none" stroke="#ffc943" stroke-width="0.5"/>
  </g>
</svg>
